<svg id="Layer_1" data-name="Layer 1" fill="#727375" xmlns="http://www.w3.org/2000/svg" viewBox="0 0 64 64"><path d="M32,0A22,22,0,0,0,9.6,22.4,21.22,21.22,0,0,0,12.9,34l17,28.81a2.41,2.41,0,0,0,3.29.86,2.32,2.32,0,0,0,.87-.86L51.1,34a21.22,21.22,0,0,0,3.3-11.6A22,22,0,0,0,32,0Zm0,4.8c9.88,0,17.6,6.87,17.6,17.6A15.49,15.49,0,0,1,47,31.58L32,56.88,17,31.58A15.49,15.49,0,0,1,14.4,22.4C14.4,11.67,22.12,4.8,32,4.8Zm0,6.4A11.2,11.2,0,1,0,43.2,22.4,11.23,11.23,0,0,0,32,11.2ZM32,16a6.4,6.4,0,1,1-6.4,6.4A6.37,6.37,0,0,1,32,16Z"/></svg>