<svg id="Vi" xmlns="http://www.w3.org/2000/svg" width="24" height="24" viewBox="0 0 24 24">
  <g id="Group_15632" data-name="Group 15632" transform="translate(0 -1)">
    <g id="Group_15835" data-name="Group 15835">
      <path id="Path_63964" data-name="Path 63964" d="M-119.9,115.4a12,12,0,0,0-12,12,12,12,0,0,0,12,12,12,12,0,0,0,12-12,12,12,0,0,0-12-12" transform="translate(131.9 -114.4)" fill="#fccc03"/>
    </g>
  </g>
  <g id="Group_15839" data-name="Group 15839" transform="translate(-315 -105)">
    <g id="vi-seeklogo.com_2_Converted_" data-name="vi-seeklogo.com 2 [Converted]" transform="translate(319.479 112.123)">
      <path id="Path_63966" data-name="Path 63966" d="M-324.376,67.159h2.8V59.306h-2.8Zm-3.71-7.853-1.809,7.316L-331.7,59.3h-2.8l1.942,7.853h5.328l1.942-7.853h-2.8Z" transform="translate(334.5 -59.3)" fill="#fff" fill-rule="evenodd"/>
      <path id="Path_63967" data-name="Path 63967" d="M-158.361,212.62a1.522,1.522,0,0,1-1.52,1.52,1.522,1.522,0,0,1-1.52-1.52,1.522,1.522,0,0,1,1.52-1.52,1.522,1.522,0,0,1,1.52,1.52" transform="translate(171.403 -202.328)" fill="#fff" fill-rule="evenodd"/>
    </g>
  </g>
</svg>
