<?xml version="1.0" encoding="utf-8"?>
<!-- Generator: Adobe Illustrator 21.0.0, SVG Export Plug-In . SVG Version: 6.00 Build 0)  -->
<svg version="1.1" id="Layer_1" xmlns="http://www.w3.org/2000/svg" xmlns:xlink="http://www.w3.org/1999/xlink" x="0px" y="0px"
	 viewBox="0 0 20 24.5" width="20px" height="24.5px" style="enable-background:new 0 0 20 24.5;" xml:space="preserve">
<style type="text/css">
	.st0{fill:#FFFFFF;}
</style>
<path class="st0" d="M13.9,17.8c1.2,2.1,0.5,4.8-1.6,6.1s-4.8,0.5-6.1-1.6s-0.5-4.8,1.6-6.1C10,15,12.7,15.7,13.9,17.8z M20,2.7
	l-6.3,11c-2.2-1.3-5-1.3-7.3,0L0,2.8C6.4-0.9,13.6-0.9,20,2.7z M14,7.8C11.4,7,8.8,7,6.1,7.8L7,9.6C9,9,11.1,9,13.1,9.6L14,7.8z
	 M14.8,6.1l0.8-1.8C12,3,8.3,2.9,4.4,4.3l0.9,1.8C8.4,5,11.6,5,14.8,6.1z"/>
</svg>
