<svg id="Layer_1" data-name="Layer 1" xmlns="http://www.w3.org/2000/svg" width="64" height="64" viewBox="0 0 64 64"><defs><style>.cls-1{fill:#94c65a;}.cls-2{fill:#fff;}</style></defs><g id="Group_13219" data-name="Group 13219"><rect id="Rectangle_2261-3" data-name="Rectangle 2261-3" class="cls-1" width="64" height="64" rx="11.29"/></g><g id="Group_13250" data-name="Group 13250"><path id="Path_60600" data-name="Path 60600" class="cls-2" d="M52.39,50.48l-7.28-4.21v2.51h-6a.43.43,0,0,1-.28-.21c-.55-.9-1.08-1.81-1.63-2.7-.34-.55-.69-1.09-1-1.63s-.59-1.09-.92-1.62a.5.5,0,0,1,0-.59Q37,39.1,38.74,36.17a.57.57,0,0,1,.57-.34c1.79,0,3.58,0,5.36,0l.46,0v2.49l7.23-4.17L45.1,30v2.5l-.18,0-6.91,0a1.5,1.5,0,0,0-1.36.69c-1,1.65-2,3.32-3,5-.17.28-.34.56-.54.86a2.4,2.4,0,0,1-.18-.26q-1.6-2.65-3.18-5.32a1.77,1.77,0,0,0-1.66-.95H22.8l-.48,0V30l-7.24,4.14,7.27,4.21V35.83h.44c1.34,0,2.69,0,4,0a.66.66,0,0,1,.67.38q1.74,2.94,3.51,5.85a.42.42,0,0,1,0,.53,6.52,6.52,0,0,0-.38.68l-.19.24-2.94,4.92a.61.61,0,0,1-.61.36H22.73l-.42,0V46.29l-7.25,4.19,7.28,4.19v-2.5H27.8l.54-.07c.29-.1.69-.11.86-.31a16.34,16.34,0,0,0,1.15-1.7c.84-1.38,2.1-3.41,2.93-4.79.06-.09,2.32,4.44,3.16,5.86a1.9,1.9,0,0,0,1.83,1c2.09,0,4.18,0,6.28,0h.59v2.51Z"/><path id="Path_60844" data-name="Path 60844" class="cls-2" d="M51.18,16.94,43.66,8.59v5.59h-23V8.59l-7.52,8.35L20.7,25.3V19.71h23V25.3Z"/></g></svg>