<svg id="Layer_1" data-name="Layer 1" xmlns="http://www.w3.org/2000/svg" width="64" height="64" viewBox="0 0 64 64"><defs><style>.cls-1{fill:#94c65a;}.cls-2{fill:#fff;}</style></defs><g id="Group_13129" data-name="Group 13129"><rect id="Rectangle_2260" data-name="Rectangle 2260" class="cls-1" y="-0.06" width="64.06" height="64.06" rx="11.3"/></g><g id="Group_13217" data-name="Group 13217"><path id="Path_60817" data-name="Path 60817" class="cls-2" d="M54,31.47H46.37a1.62,1.62,0,0,1-.83-.23c-2.67-1.66-5.33-3.35-8-5a.85.85,0,0,1-.47-.86c0-2.57,0-5.15,0-7.72a1.13,1.13,0,0,0-1-1.22c-.7-.08-1.23.46-1.23,1.29v6.78l-.61-.36c-1.87-1.18-3.74-2.36-5.62-3.52a.84.84,0,0,1-.47-.82c0-2.38,0-4.75,0-7.12v-.19a1.14,1.14,0,0,0-1.06-1.22h0a1.12,1.12,0,0,0-1.13,1.13v6.47l-.46-.27Q21.71,16.25,18,13.9A1.17,1.17,0,0,0,16.05,15v5.69H8.75a1.1,1.1,0,0,0-1.21,1,.74.74,0,0,0,0,.21,1.13,1.13,0,0,0,1.2,1H16V42.31H8.79a1.14,1.14,0,0,0-1.25,1,1.11,1.11,0,0,0,.94,1.26.94.94,0,0,0,.29,0H16v5.62a1.28,1.28,0,0,0,.61,1.29A1.31,1.31,0,0,0,18,51.28l7.3-4.6c.15-.1.32-.19.56-.33v6.3a1.2,1.2,0,0,0,.63,1.18,1.12,1.12,0,0,0,1.51-.5,1.15,1.15,0,0,0,.12-.63V45.35a.69.69,0,0,1,.36-.68c2-1.21,3.91-2.44,5.87-3.67l.46-.26v6.75a1.18,1.18,0,0,0,.66,1.21A1.11,1.11,0,0,0,37,48.17a1.08,1.08,0,0,0,.1-.56c0-2.63,0-5.25,0-7.88a.71.71,0,0,1,.38-.68c2.45-1.53,4.91-3,7.33-4.62a4.07,4.07,0,0,1,2.43-.71c2.26.06,4.52,0,6.78,0a1.13,1.13,0,0,0,1.23-1,1.34,1.34,0,0,0,0-.2,1.14,1.14,0,0,0-1.17-1.09ZM20.38,24.34h.71c.08-.6-.14-1.24.41-1.64a1.43,1.43,0,0,1,.73-.26.9.9,0,0,1,1,.64,6.71,6.71,0,0,1,.18,1.26c.24,0,.51,0,.77,0a1.12,1.12,0,0,1,.08,2.24c-.3,0-.61,0-.91,0,0,.31,0,.57,0,.84a1.11,1.11,0,0,1-1.1,1.09h0a1.1,1.1,0,0,1-1.09-1.09c0-.25,0-.5,0-.84-.28,0-.53,0-.77,0a1.12,1.12,0,0,1-1.17-1.09v0a1.13,1.13,0,0,1,1.17-1.11Zm3.8,18.43c-.67,0-1.32,0-2,0H20.35a1.13,1.13,0,0,1-1.18-1.08v0a1.11,1.11,0,0,1,1.09-1.13h3.89a1.11,1.11,0,0,1,1.13,1.09h0a1.11,1.11,0,0,1-1.08,1.13Z"/></g></svg>