<svg id="Layer_1" data-name="Layer 1" xmlns="http://www.w3.org/2000/svg" width="64" height="64" viewBox="0 0 64 64"><defs><style>.cls-1{fill:#94c65a;}.cls-2{fill:#fff;}</style></defs><g id="Group_13136" data-name="Group 13136"><rect id="Rectangle_2260" data-name="Rectangle 2260" class="cls-1" width="64" height="64" rx="11.29"/></g><g id="Group_13248" data-name="Group 13248"><path id="Path_60835" data-name="Path 60835" class="cls-2" d="M9.43,31.76A22.52,22.52,0,1,1,31.78,54.44h-.05A22.44,22.44,0,0,1,9.43,31.87ZM32,12.5A19.44,19.44,0,1,0,51.34,32v0A19.45,19.45,0,0,0,32,12.5Z"/><path id="Path_60836" data-name="Path 60836" class="cls-2" d="M42.55,18.9l2.26,2.36-5.36,5.25,1.63,1.71-7.47,2,2-7.63,1.54,1.9Z"/><path id="Path_60837" data-name="Path 60837" class="cls-2" d="M30.23,33.63l-2,7.34-.26.14-1.2-1.68L21.49,45l-2.37-2.41,5.31-5.15-1.66-1.76Z"/><path id="Path_60838" data-name="Path 60838" class="cls-2" d="M37.24,39.15l-1.36,2L35.6,41l-2-7.34,7.46,2-1.53,1.65,5.32,5.22-2.34,2.18Z"/><path id="Path_60839" data-name="Path 60839" class="cls-2" d="M28.23,22.76l2,7.46-7.46-2,1.56-1.66L19,21.28l2.29-2.11,5.09,5.34Z"/></g></svg>