<svg id="Layer_1" data-name="Layer 1" xmlns="http://www.w3.org/2000/svg" width="64" height="64" viewBox="0 0 64 64"><defs><style>.cls-1{fill:#94c65a;}.cls-2{fill:#f0f3f5;}</style></defs><g id="Group_13151" data-name="Group 13151"><rect id="Rectangle_2239-2" data-name="Rectangle 2239-2" class="cls-1" width="64" height="64" rx="11.29"/></g><g id="Group_13188" data-name="Group 13188"><path id="Path_60780" data-name="Path 60780" class="cls-2" d="M23,25.9V39.59c-1.17,0-2.3,0-3.43,0-.56,0-.73.21-.72.72,0,1.22,0,2.45,0,3.66,0,.57.17.8.79.79q4.19,0,8.37,0c.59,0,.84-.19.86-.75,0-.17,0-.34,0-.52V21.91a4.48,4.48,0,0,0-.07-.64c0-.38-.26-.54-.66-.54q-4.32,0-8.63,0c-.52,0-.7.21-.7.69,0,1.27,0,2.53,0,3.79,0,.54.23.72.76.7C20.7,25.87,21.81,25.9,23,25.9Z"/><path id="Path_60781" data-name="Path 60781" class="cls-2" d="M39.19,25.89c1.14,0,2.26,0,3.35,0,.61,0,.83-.19.83-.77q0-1.83,0-3.66c0-.58-.22-.78-.83-.77-2.61,0-5.22,0-7.84,0-1.37,0-1.37,0-1.37,1.42V43.83c0,.8.13.9.9.9,2.78,0,5.57,0,8.36,0,.59,0,.77-.23.77-.76,0-1.22,0-2.44,0-3.65,0-.58-.21-.84-.82-.77s-1,0-1.44,0H39.18Z"/><path id="Path_60782" data-name="Path 60782" class="cls-2" d="M14.29,34.78c-.1.27-.16.47-.24.67-.46,1.18-.94,2.35-1.38,3.53a1.68,1.68,0,0,0,0,.59c.19,0,.45,0,.59-.12q4.19-3.18,8.35-6.4c.34-.26.37-.5,0-.78l-8.39-6.44c-.13-.1-.35-.08-.52-.11,0,.19-.13.41-.07.57.46,1.23.94,2.43,1.43,3.65.07.17.1.35.18.59H4.52c-.57,0-.78.18-.75.75,0,.92,0,1.84,0,2.75,0,.62.2.78.79.77,2.55,0,5.1,0,7.65,0Z"/><path id="Path_60783" data-name="Path 60783" class="cls-2" d="M47.9,30.71c.11-.31.18-.53.26-.75.43-1.09.88-2.18,1.29-3.28a3.42,3.42,0,0,0,.06-.78,2.36,2.36,0,0,0-.74.23q-4,3.06-8,6.16c-.63.49-.63.56,0,1.05L46,37.4c.86.66,1.72,1.34,2.6,2a4,4,0,0,0,.89.35,3.89,3.89,0,0,0-.12-1c-.37-1-.81-2.07-1.22-3.1-.09-.21-.15-.44-.26-.75h.78c3,0,6,0,9,0,.57,0,.77-.19.75-.75a26.62,26.62,0,0,1,0-2.68c0-.64-.21-.82-.83-.81-3,0-6,0-8.94,0Z"/><path id="Path_60784" data-name="Path 60784" class="cls-2" d="M23,25.9c-1.18,0-2.29,0-3.4,0-.53,0-.75-.16-.75-.7,0-1.26,0-2.52,0-3.79,0-.48.17-.69.69-.69q4.32,0,8.63,0c.41,0,.61.15.67.54a4.48,4.48,0,0,1,.06.64V43.48c0,.18,0,.35,0,.52,0,.56-.27.75-.87.75-2.79,0-5.57,0-8.36,0-.62,0-.81-.21-.8-.79q0-1.83,0-3.66c0-.51.17-.74.73-.72,1.13,0,2.26,0,3.43,0Z"/><path id="Path_60785" data-name="Path 60785" class="cls-2" d="M39.19,25.89V39.57h1.92a11.53,11.53,0,0,0,1.44,0c.61-.06.83.19.82.77,0,1.22,0,2.45,0,3.66,0,.53-.19.75-.77.75-2.79,0-5.58,0-8.36,0-.77,0-.9-.11-.9-.91,0-1.48,0-3,0-4.44V22.15c0-1.42,0-1.42,1.38-1.42,2.61,0,5.22,0,7.83,0,.61,0,.84.18.83.77q0,1.83,0,3.66c0,.57-.21.79-.82.76C41.44,25.86,40.33,25.89,39.19,25.89Z"/><path id="Path_60786" data-name="Path 60786" class="cls-2" d="M14.29,34.78H12.22c-2.55,0-5.1,0-7.65,0-.59,0-.82-.15-.79-.77,0-.92,0-1.83,0-2.75,0-.57.18-.75.75-.75,3,0,6.05,0,9.08,0h.67c-.08-.24-.12-.42-.18-.59-.48-1.21-1-2.43-1.43-3.65-.06-.16,0-.37.07-.57.17,0,.39,0,.52.11l8.39,6.44c.36.28.33.52,0,.78l-8.35,6.4c-.14.11-.39.08-.59.12a1.68,1.68,0,0,1,0-.59c.45-1.18.92-2.35,1.38-3.53C14.13,35.26,14.2,35.05,14.29,34.78Z"/><path id="Path_60787" data-name="Path 60787" class="cls-2" d="M47.9,30.71h.78c3,0,6,0,8.94,0,.62,0,.86.17.83.81a26.62,26.62,0,0,0,0,2.68c0,.56-.17.75-.75.75-3,0-6,0-9,0H47.9c.11.3.18.53.26.75.41,1,.84,2,1.22,3.09a4,4,0,0,1,.12,1,3.61,3.61,0,0,1-.89-.36c-.88-.63-1.74-1.31-2.6-2l-5.27-4.06c-.63-.48-.63-.56,0-1l8-6.17a2.35,2.35,0,0,1,.74-.22,3.29,3.29,0,0,1-.06.77c-.41,1.1-.86,2.19-1.29,3.28C48.09,30.18,48,30.41,47.9,30.71Z"/></g></svg>