<svg id="Layer_1" data-name="Layer 1" xmlns="http://www.w3.org/2000/svg" width="64" height="64" viewBox="0 0 64 64"><defs><style>.cls-1{fill:#94c65a;}.cls-2{fill:#fff;}</style></defs><g id="Group_13152" data-name="Group 13152"><rect id="Rectangle_2260-2" data-name="Rectangle 2260-2" class="cls-1" width="64" height="64" rx="11.29"/></g><path id="Path_60842" data-name="Path 60842" class="cls-2" d="M53.91,44.11l-8.32-4.8v2.86H38.72a.49.49,0,0,1-.32-.24c-.62-1-1.23-2.07-1.86-3.09-.38-.62-.79-1.23-1.19-1.85s-.67-1.25-1-1.85a.54.54,0,0,1,0-.68q2-3.33,4-6.68a.65.65,0,0,1,.66-.38c2,0,4.08,0,6.11,0l.53,0v2.84l8.25-4.76-8.28-4.79v2.85l-.2,0-7.91,0a1.71,1.71,0,0,0-1.55.8c-1.16,1.88-2.3,3.78-3.44,5.67-.19.32-.4.64-.62,1a3.15,3.15,0,0,1-.22-.29c-1.22-2-2.43-4-3.63-6.08a2,2,0,0,0-1.9-1.09c-2,0-4,0-6,0l-.54,0V20.74l-8.28,4.74,8.31,4.81V27.4h.5c1.53,0,3.06,0,4.6,0a.75.75,0,0,1,.77.44c1.32,2.24,2.66,4.46,4,6.68a.48.48,0,0,1,0,.6,7.37,7.37,0,0,0-.43.78,3.17,3.17,0,0,0-.21.27l-3.36,5.62a.72.72,0,0,1-.7.41c-1.57,0-3.15,0-4.72,0a4.26,4.26,0,0,1-.47,0V39.33l-8.29,4.78,8.3,4.79V46h6.25c.2,0,.4,0,.6-.08s.8-.11,1-.34a20.86,20.86,0,0,0,1.32-2c.95-1.57,2.39-3.89,3.34-5.46.07-.11,2.65,5.06,3.61,6.69A2.19,2.19,0,0,0,37.77,46c2.39,0,4.78,0,7.17,0h.67v2.87Z"/></svg>