<svg id="Layer_1" data-name="Layer 1" xmlns="http://www.w3.org/2000/svg" width="64" height="64" viewBox="0 0 64 64"><defs><style>.cls-1{fill:#94c65a;}.cls-2{fill:#fff;}</style></defs><g id="Group_13153" data-name="Group 13153"><rect id="Rectangle_2260-3" data-name="Rectangle 2260-3" class="cls-1" width="64" height="64" rx="11.29"/></g><path id="Path_60843" data-name="Path 60843" class="cls-2" d="M45.24,17.3v9.36h.67a2.39,2.39,0,0,1,2.53,2.22V45.36c0,.51,0,1,0,1.52a2.35,2.35,0,0,1-2.1,2.19c-.7,0-1.41,0-2.11,0H13.69a2.31,2.31,0,0,1-2.39-2.24v-.1c0-4.35,0-8.69,0-13,0-1.56,0-3.11,0-4.67a2.34,2.34,0,0,1,1.9-2.35,3.39,3.39,0,0,1,.55,0H43.28c0-.24,0-.46,0-.69,0-2.73,0-5.46,0-8.19a.5.5,0,0,0-.46-.59,5.57,5.57,0,1,1,2.72,0Zm-1,28.14H15.52c0,.12,0,.24,0,.35v.38H44.2Zm1.06-28.67a5,5,0,1,0-6.12-4.68,5,5,0,0,0,4.11,4.65c.09-.66.09-.66-.5-.87a4.31,4.31,0,1,1,5.67-5,4.27,4.27,0,0,1-2.72,5c-.41.15-.53.34-.47.73a.88.88,0,0,1,0,.2ZM29.87,36a1.89,1.89,0,0,0,0,3.77h0a1.93,1.93,0,0,0,1.86-1.86A1.9,1.9,0,0,0,29.88,36Z"/></svg>