<svg xmlns="http://www.w3.org/2000/svg" width="55.341" height="66.169" viewBox="0 0 55.341 66.169">
  <g id="Group_10476" data-name="Group 10476" transform="translate(-695.822 -270.125)">
    <g id="Component_6_1" data-name="Component 6 – 1" transform="translate(696.422 270.725)">
      <path id="Path_58964" data-name="Path 58964" d="M371.833,348.652H350.177v-3.609h21.656Zm0-10.828H350.177v3.609h21.656Zm0-7.219H350.177v3.609h21.656Zm21.656,34.289a12.625,12.625,0,0,1-25.121,1.8H341.154a1.8,1.8,0,0,1-1.8-1.8V314.363a1.8,1.8,0,0,1,1.8-1.8h30.68a1.8,1.8,0,0,1,1.276.529l9.023,9.023a1.8,1.8,0,0,1,.529,1.276v29.019A12.643,12.643,0,0,1,393.49,364.894Zm-21.656-47.98v6.472H378.3ZM342.958,363.09h25.41a12.641,12.641,0,0,1,10.684-10.684V327h-9.023a1.8,1.8,0,0,1-1.8-1.8v-9.023H342.958Zm46.922,1.8a9.023,9.023,0,1,0-9.023,9.023A9.034,9.034,0,0,0,389.88,364.894Zm-4.885-4.885-5.943,5.943-2.333-2.333-2.552,2.552,4.885,4.885,8.495-8.495Z" transform="translate(-339.349 -312.558)" stroke="#000" stroke-width="1.2"/>
    </g>
  </g>
</svg>
