<svg id="Layer_1" data-name="Layer 1" fill="#727375" xmlns="http://www.w3.org/2000/svg" viewBox="0 0 64 64"><path d="M55,41.93a8.92,8.92,0,0,0-2.49.36L38.92,18.84a9,9,0,1,0-14.35-.66L10.76,42.1a8.7,8.7,0,0,0-1.71-.17,9.05,9.05,0,1,0,8.46,12.24h29A9,9,0,1,0,55,41.93Zm-23-34a5.08,5.08,0,0,1,1.73,9.85A5.2,5.2,0,0,1,32,18.1a5,5,0,0,1-2.43-.63A5.07,5.07,0,0,1,32,7.94ZM18.06,37.4l9.52-16.49a9,9,0,0,0,8.15.34L49,44.2a9,9,0,0,0-3,6H18.06a9.05,9.05,0,0,0-3.64-6.48h0Zm-9,18.66a5.08,5.08,0,1,1,0-10.16,5,5,0,0,1,3.36,1.29,5.1,5.1,0,0,1,1.65,3,5.16,5.16,0,0,1,.06.79A5.08,5.08,0,0,1,9.05,56.06Zm45.9,0A5.08,5.08,0,0,1,49.88,51,5,5,0,0,1,51,47.76,5.08,5.08,0,1,1,55,56.06Z"/></svg>