<svg id="Layer_1" data-name="Layer 1" xmlns="http://www.w3.org/2000/svg" width="64" height="64" viewBox="0 0 64 64"><defs><style>.cls-1{fill:#FFFFFF;}</style></defs><g id="CSS_Router" data-name="CSS Router"><path id="Path_60799" data-name="Path 60799" class="cls-1" d="M64.24,64H.37V36.66H30v-.75Q30,26,30,16.14a1.24,1.24,0,0,0-.55-1.1,4.53,4.53,0,0,1-.77-6.37A2.69,2.69,0,0,1,29,8.35a4.58,4.58,0,0,1,6.48-.18l.2.2a4.52,4.52,0,0,1-.21,6.4c-.11.1-.22.2-.34.29a1.23,1.23,0,0,0-.53,1.12q0,9.7,0,19.41v1H64.24ZM9.5,52.56H41.39V48.08H9.5Zm41.05,2.33a4.58,4.58,0,0,0,4.61-4.53v0a4.57,4.57,0,0,0-4.55-4.58h0a4.57,4.57,0,0,0-.05,9.13Z"/><path id="Path_60800" data-name="Path 60800" class="cls-1" d="M12,1.34l4,2A17.33,17.33,0,0,0,16,19.6l-3.94,2A21.09,21.09,0,0,1,12,1.34Z"/><path id="Path_60801" data-name="Path 60801" class="cls-1" d="M48.58,3.37l4.07-2.06a21.92,21.92,0,0,1,0,20.35l-4.07-2.05A17.35,17.35,0,0,0,48.58,3.37Z"/><path id="Path_60802" data-name="Path 60802" class="cls-1" d="M21.32,19.57a13.65,13.65,0,0,1,0-16.16l3.74,2.46a9.24,9.24,0,0,0,0,11.21Z"/><path id="Path_60803" data-name="Path 60803" class="cls-1" d="M43.3,19.57l-3.7-2.46a9.37,9.37,0,0,0,0-11.25l3.69-2.45A13.44,13.44,0,0,1,43.3,19.57Z"/></g></svg>