<svg id="Layer_1" data-name="Layer 1" xmlns="http://www.w3.org/2000/svg" width="64" height="64" viewBox="0 0 64 64"><defs><style>.cls-1{fill:#FFFFFF;}</style></defs><g id="Joint_Closure" data-name="Joint Closure"><path id="Path_60780" data-name="Path 60780" class="cls-1" d="M22.6,24.09V39.94c-1.35,0-2.66,0-4,0-.65,0-.85.24-.84.84,0,1.41,0,2.83,0,4.24,0,.65.21.92.92.91q4.84,0,9.69,0c.68,0,1-.23,1-.87,0-.2,0-.4,0-.6v-25a4.78,4.78,0,0,0-.08-.75c-.06-.43-.29-.62-.77-.61q-5,0-10,0c-.6,0-.81.23-.8.8,0,1.46,0,2.92,0,4.39,0,.62.26.82.87.8C20,24.06,21.23,24.09,22.6,24.09Z"/><path id="Path_60781" data-name="Path 60781" class="cls-1" d="M41.36,24.08c1.32,0,2.61,0,3.88,0,.71,0,1-.22,1-.89,0-1.41,0-2.83,0-4.24,0-.67-.26-.9-1-.89-3,0-6.05,0-9.07,0-1.6,0-1.6,0-1.6,1.64V44.85c0,.92.15,1,1,1,3.23,0,6.46,0,9.68,0,.68,0,.9-.26.89-.87,0-1.41,0-2.83,0-4.24,0-.66-.24-1-.94-.88s-1.11,0-1.67,0H41.35Z"/><path id="Path_60782" data-name="Path 60782" class="cls-1" d="M12.52,34.37c-.11.32-.18.55-.27.78-.53,1.36-1.09,2.71-1.6,4.08a2,2,0,0,0,0,.69c.22,0,.51,0,.68-.14Q16.2,36.09,21,32.37c.4-.3.44-.58,0-.9L11.32,24a1.6,1.6,0,0,0-.6-.13c0,.22-.15.48-.08.67.53,1.41,1.09,2.81,1.65,4.22a6.31,6.31,0,0,1,.21.68h-.77c-3.51,0-7,0-10.52,0-.65,0-.9.21-.87.87,0,1.06,0,2.13,0,3.18,0,.72.24.9.92.9,3,0,5.9,0,8.86,0Z"/><path id="Path_60783" data-name="Path 60783" class="cls-1" d="M51.44,29.66c.13-.36.21-.61.31-.87.5-1.27,1-2.52,1.49-3.8a3.86,3.86,0,0,0,.07-.9,2.86,2.86,0,0,0-.86.26q-4.66,3.55-9.29,7.14c-.73.56-.74.65,0,1.21q3,2.36,6.1,4.7c1,.77,2,1.56,3,2.3a4.89,4.89,0,0,0,1,.41A4.64,4.64,0,0,0,53.16,39c-.44-1.2-.94-2.4-1.41-3.58-.1-.25-.18-.51-.3-.87h.9c3.49,0,7,0,10.44,0,.66,0,.89-.22.87-.87,0-1,0-2.07,0-3.1,0-.74-.24-.95-1-.94-3.45,0-6.9,0-10.36,0Z"/><path id="Path_60784" data-name="Path 60784" class="cls-1" d="M22.6,24.09c-1.37,0-2.65,0-3.94,0-.61,0-.87-.18-.87-.8,0-1.47,0-2.93,0-4.39,0-.56.21-.81.81-.8q5,0,10,0c.47,0,.71.17.77.61a4.76,4.76,0,0,1,.07.75v25c0,.2,0,.4,0,.6,0,.64-.32.87-1,.87q-4.84-.06-9.68,0c-.72,0-.93-.25-.92-.91,0-1.42,0-2.84,0-4.24,0-.6.19-.86.84-.84,1.31,0,2.61,0,4,0Z"/><path id="Path_60785" data-name="Path 60785" class="cls-1" d="M41.36,24.08V39.92h2.23a15.32,15.32,0,0,0,1.66,0c.7-.07,1,.22,1,.89,0,1.42,0,2.84,0,4.24,0,.61-.22.87-.9.87-3.22,0-6.45,0-9.68,0-.89,0-1-.13-1-1,0-1.72,0-3.43,0-5.15v-20c0-1.64,0-1.64,1.6-1.64,3,0,6,0,9.07,0,.7,0,1,.21,1,.89,0,1.41,0,2.83,0,4.24,0,.66-.25.92-1,.89C44,24,42.68,24.08,41.36,24.08Z"/><path id="Path_60786" data-name="Path 60786" class="cls-1" d="M12.52,34.37H10.13c-3,0-5.91,0-8.86,0-.68,0-.95-.17-.92-.89q.08-1.59,0-3.18c0-.67.22-.87.87-.87,3.51,0,7,0,10.52,0h.77a6.31,6.31,0,0,0-.21-.68c-.55-1.41-1.12-2.81-1.65-4.23-.07-.18,0-.43.08-.66.2,0,.45,0,.6.13q4.87,3.72,9.72,7.46c.42.32.38.6,0,.9l-9.66,7.41c-.17.13-.45.09-.68.13a1.73,1.73,0,0,1,0-.68c.51-1.37,1.06-2.72,1.59-4.08C12.34,34.93,12.42,34.69,12.52,34.37Z"/><path id="Path_60787" data-name="Path 60787" class="cls-1" d="M51.44,29.66h.9c3.46,0,6.91,0,10.36,0,.72,0,1,.2,1,.94a29.14,29.14,0,0,0,0,3.1c0,.66-.2.88-.87.88-3.49,0-7,0-10.44,0h-.9c.12.36.2.62.3.87.47,1.2,1,2.38,1.41,3.59a4.63,4.63,0,0,1,.14,1.11,4.42,4.42,0,0,1-1-.41c-1-.73-2-1.52-3-2.29l-6.11-4.7c-.72-.56-.72-.65,0-1.21q4.65-3.59,9.3-7.14a2.86,2.86,0,0,1,.86-.26,3.91,3.91,0,0,1-.07.9c-.48,1.27-1,2.53-1.49,3.79C51.66,29.05,51.58,29.31,51.44,29.66Z"/></g></svg>