<svg id="Layer_1" data-name="Layer 1" xmlns="http://www.w3.org/2000/svg" width="64" height="64" viewBox="0 0 64 64"><defs><style>.cls-1{fill:#FFFFFF;}</style></defs><g id="AG1_Router" data-name="AG1 Router"><path id="Path_60835" data-name="Path 60835" class="cls-1" d="M0,31.77A32,32,0,1,1,31.77,64H31.7A31.89,31.89,0,0,1,0,31.93ZM32.07,4.4a27.62,27.62,0,1,0,27.5,27.74v0A27.64,27.64,0,0,0,32.07,4.4Z"/><path id="Path_60836" data-name="Path 60836" class="cls-1" d="M47.07,13.49l3.21,3.37-7.61,7.45L45,26.75,34.37,29.59c1-3.63,1.89-7,2.91-10.84l2.19,2.71Z"/><path id="Path_60837" data-name="Path 60837" class="cls-1" d="M29.57,34.42,26.76,44.86l-.36.19-1.71-2.38-7.55,7.84-3.36-3.42,7.55-7.32L19,37.27Z"/><path id="Path_60838" data-name="Path 60838" class="cls-1" d="M39.53,42.27,37.6,45.13l-.4-.27L34.39,34.43,45,37.24l-2.17,2.34L50.37,47l-3.32,3.1Z"/><path id="Path_60839" data-name="Path 60839" class="cls-1" d="M26.72,19l2.84,10.6L19,26.76l2.22-2.37-7.59-7.51,3.25-3,7.25,7.59Z"/></g></svg>