<svg id="Layer_1" data-name="Layer 1" xmlns="http://www.w3.org/2000/svg" width="64" height="64" viewBox="0 0 64 64"><defs><style>.cls-1{fill:#FFFFFF;}</style></defs><g id="Splitter_1" data-name="Splitter 1"><path id="Path_60840" data-name="Path 60840" class="cls-1" d="M48.55,29.36v1.26c0,.28-.09.4-.39.39-.47,0-.95,0-1.42,0H37.92a4.92,4.92,0,0,0-.48-1.38c1.91-1.89,3.8-3.79,5.69-5.7.57-.57,1.13-1.17,1.78-1.85L46,23.42l1.42-5.32-5.17,1.38-.09.16,1.16.95a1.11,1.11,0,0,1-.07.16L36,28a4.88,4.88,0,0,0-6.82,1,5.11,5.11,0,0,0-.54.93H18.59c-.38,0-.52.09-.52.49,0,1.1,0,2.19,0,3.28,0,.59,0,.59.57.59H28.83a4.89,4.89,0,0,0,6.62,1.92l.34-.21.1.08c1.55,1.58,3.12,3.14,4.69,4.7l2.84,2.8-1.24,1,.08.13,5.17,1.38L46,40.89l-.15-.08-1,1.15a.54.54,0,0,1-.15-.09c-2.36-2.36-4.71-4.73-7.09-7.07a2.22,2.22,0,0,1-.36-.45,5,5,0,0,0,.49-1.19H48.05c.38,0,.5.11.48.48s0,.72,0,1.17l4.7-2.72Z"/><path id="Path_60841" data-name="Path 60841" class="cls-1" d="M59.62,13.43V6.92h0V2.63A2.19,2.19,0,0,0,57.41.46a2.12,2.12,0,0,0-1,.26C55.28,1.33,54.2,2,53.11,2.6L41.36,9.36,29.15,16.43q-5.88,3.41-11.77,6.78L5.49,30.07a2.21,2.21,0,0,0-.83,3,2,2,0,0,0,.24.33,1.7,1.7,0,0,0,.65.57L41.94,55l3.75,2.16.33.19h0L56.2,63.19a2.15,2.15,0,0,0,1.86.24,2.19,2.19,0,0,0,1.55-2.3v-2.4h0V13.42ZM9.87,32.7l-.34-.26.34.26Zm-.2-.81v-.26h0v.26Zm-.57-.21.1,0Zm-.09.6,0,.22Zm.51,1.22a.7.7,0,0,0,.14-.35c0-.06-.05-.11-.12-.17s.12.11.12.17A.7.7,0,0,1,9.52,33.5Zm.74-1.45.22.24,0,0,0,0-.22-.24Zm.4.09-.19-.26Zm-.89-.92-1.4,1,.2-.14-.2.14a.56.56,0,0,0-.22.21.53.53,0,0,1,.21-.21Zm-.26.46h0v0ZM55.23,57.5a3.69,3.69,0,0,1-.44-.19L51,55.14h0L49,54h0l-2.68-1.55-.06,0-1.39-.8h0a24.77,24.77,0,0,0-2.39-1.39c-2.51-1.48-5.05-2.92-7.58-4.39l-7.57-4.39-7.16-4.13-7.12-4.12-1.91-1.09L10.89,32,55.2,6.41v8.71h0l0,39.53Z"/></g></svg>