<svg id="Layer_1" data-name="Layer 1" xmlns="http://www.w3.org/2000/svg" width="64" height="64" viewBox="0 0 64 64"><defs><style>.cls-1{fill:#FFFFFF;}</style></defs><g id="Others"><path id="Path_60804" data-name="Path 60804" class="cls-1" d="M0,32V5.31A5,5,0,0,1,4.62,0a3.64,3.64,0,0,1,.66,0H58.66A4.93,4.93,0,0,1,64,4.55a4.82,4.82,0,0,1,0,.76V58.7A5,5,0,0,1,59.38,64a4.33,4.33,0,0,1-.72,0H5.42A5,5,0,0,1,0,59.5a5,5,0,0,1,0-1Zm17.2,4.94a4.91,4.91,0,1,0-4.89-5V32a4.9,4.9,0,0,0,4.89,4.91ZM46.79,27.1A4.91,4.91,0,0,0,41.85,32v0a4.92,4.92,0,0,0,9.84,0v0a4.9,4.9,0,0,0-4.91-4.88ZM27.11,32A4.88,4.88,0,0,0,32,36.91h.09a4.91,4.91,0,0,0,0-9.81h0a4.88,4.88,0,0,0-5,4.79V32Z"/></g></svg>