<svg id="Layer_1" data-name="Layer 1" xmlns="http://www.w3.org/2000/svg" width="64" height="64" viewBox="0 0 64 64"><defs><style>.cls-1{fill:#FFFFFF;}</style></defs><path id="OTB" class="cls-1" d="M53.35,16.94v13.6h1A3.43,3.43,0,0,1,58,33.75a3.08,3.08,0,0,1,0,.43v23.5c0,.74,0,1.47,0,2.21a3.41,3.41,0,0,1-3,3.19c-1,.05-2,0-3.06,0H7.53a3.35,3.35,0,0,1-3.46-3.26.61.61,0,0,1,0-.14c0-6.31,0-12.62,0-18.93,0-2.25,0-4.51,0-6.77a3.41,3.41,0,0,1,2.77-3.41,3.51,3.51,0,0,1,.79-.06H50.5c0-.35.06-.68.06-1,0-4,0-7.93,0-11.9,0-.53-.13-.73-.66-.86a8.09,8.09,0,1,1,3.95,0A3.06,3.06,0,0,1,53.35,16.94ZM51.84,57.81H10.19c0,.17,0,.34,0,.5v.55H51.85Zm1.55-41.64a7.39,7.39,0,0,0,5.74-8.43A7.38,7.38,0,0,0,44.5,9.38a7.15,7.15,0,0,0,6,6.74c.13-1,.13-1-.72-1.26a6.28,6.28,0,1,1,4.28,0c-.6.22-.78.5-.68,1.06a1.16,1.16,0,0,1,0,.29ZM31,44.1a2.72,2.72,0,0,0-2.76,2.67A2.78,2.78,0,0,0,31,49.58h.06a2.81,2.81,0,0,0,2.7-2.72A2.77,2.77,0,0,0,31,44.1Z"/></svg>