<svg xmlns="http://www.w3.org/2000/svg" xmlns:xlink="http://www.w3.org/1999/xlink" width="284.922" height="85.171" viewBox="0 0 284.922 85.171">
  <defs>
    <filter id="Path_17529" x="0" y="0" width="85.17" height="85.171" filterUnits="userSpaceOnUse">
      <feOffset input="SourceAlpha"/>
      <feGaussianBlur stdDeviation="3" result="blur"/>
      <feFlood flood-opacity="0.161"/>
      <feComposite operator="in" in2="blur"/>
      <feComposite in="SourceGraphic"/>
    </filter>
    <filter id="Path_58877" x="79.93" y="3.25" width="204.992" height="40.289" filterUnits="userSpaceOnUse">
      <feOffset input="SourceAlpha"/>
      <feGaussianBlur stdDeviation="3" result="blur-2"/>
      <feFlood flood-opacity="0.161"/>
      <feComposite operator="in" in2="blur-2"/>
      <feComposite in="SourceGraphic"/>
    </filter>
    <filter id="Path_58878" x="80.767" y="41.659" width="203.67" height="39.57" filterUnits="userSpaceOnUse">
      <feOffset input="SourceAlpha"/>
      <feGaussianBlur stdDeviation="3" result="blur-3"/>
      <feFlood flood-opacity="0.161"/>
      <feComposite operator="in" in2="blur-3"/>
      <feComposite in="SourceGraphic"/>
    </filter>
  </defs>
  <g id="Group_10138" data-name="Group 10138" transform="translate(-942 -100.484)">
    <g transform="matrix(1, 0, 0, 1, 942, 100.48)" filter="url(#Path_17529)">
      <path id="Path_17529-2" data-name="Path 17529" d="M11697.586,1276.526a33.586,33.586,0,1,0,33.584,33.586A33.586,33.586,0,0,0,11697.586,1276.526Zm-6.494,35.523c0,7.189-3.439,10.474-9.973,10.474-5.373,0-8.27-1.893-8.27-4.986,0-2.861,2.434-4.02,2.549-3.865a5.693,5.693,0,0,0,4.561,2.281c2.357,0,3.363-1.046,3.363-4.021v-11.557c0-2.4,1.16-3.594,3.285-3.594h1.119c2.205,0,3.365,1.2,3.365,3.594Zm10.08,6.532c0,2.666-1.354,3.594-3.248,3.594h-.771c-2.012,0-3.4-.851-3.4-3.594v-12.369c0-2.7,1.432-3.594,3.324-3.594h.771c2.012,0,3.326.812,3.326,3.594Zm-3.635-17.935c-2.473,0-4.02-1.351-4.02-3.515,0-2.126,1.51-3.48,3.9-3.48,2.473,0,4.02,1.315,4.02,3.48S11699.936,1300.647,11697.537,1300.647Zm16.1,21.877c-6.377,0-10.436-3.942-10.436-10.088,0-5.991,4.213-10.01,10.551-10.01,6.264,0,10.4,4.02,10.4,10.049C11724.15,1318.582,11719.977,1322.524,11713.639,1322.524Z" transform="translate(-11655 -1267.53)" fill="#fff"/>
    </g>
    <g transform="matrix(1, 0, 0, 1, 942, 100.48)" filter="url(#Path_58877)">
      <path id="Path_58877-2" data-name="Path 58877" d="M1.023-10.912C1.023-4.4,5.549.155,11.966.155c5.177,0,9.083-2.883,10.323-7.6H16.461A4.794,4.794,0,0,1,11.9-4.65c-3.255,0-5.487-2.418-5.487-6.262s2.232-6.262,5.487-6.262a4.794,4.794,0,0,1,4.557,2.79h5.828c-1.24-4.712-5.146-7.626-10.323-7.626C5.549-22.01,1.023-17.422,1.023-10.912Zm48.267-.031A10.853,10.853,0,0,0,38.161-22.072,10.922,10.922,0,0,0,26.97-10.943,10.948,10.948,0,0,0,38.161.217,10.9,10.9,0,0,0,49.29-10.943Zm-16.9,0c0-3.875,2.232-6.324,5.766-6.324,3.472,0,5.735,2.449,5.735,6.324,0,3.813-2.263,6.324-5.735,6.324C34.627-4.619,32.4-7.13,32.4-10.943ZM64.728-22.01c-6.51,0-11.067,4.588-11.067,11.1S58.249.155,64.759.155a10.658,10.658,0,0,0,10.478-7.5v-4.929H63.705V-8.37h6.727a5.213,5.213,0,0,1-5.27,3.844c-3.813,0-6.107-2.356-6.107-6.386,0-3.782,2.263-6.2,5.673-6.2a4.558,4.558,0,0,1,4.278,2.232h5.859C73.718-19.344,69.936-22.01,64.728-22.01Zm29.946.248V-8.277L85.808-21.762h-5.3V0h5.3V-13.423L94.674,0h5.3V-21.762ZM106.144,0h5.3V-21.762h-5.3Zm10.292-17.515H122.2V0h5.3V-17.515h5.766v-4.247H116.436ZM138.26,0h5.3V-21.762h-5.3Zm20.863-5.332-5.394-16.43h-5.642L155.806,0h6.634l7.719-21.762h-5.611Zm28.892-16.43h-13.33V0h13.33V-4.247h-8.029V-9.021h7.1v-4.092h-7.1v-4.4h8.029Z" transform="translate(87.91 34.32)" fill="#fff"/>
    </g>
    <g transform="matrix(1, 0, 0, 1, 942, 100.48)" filter="url(#Path_58878)">
      <path id="Path_58878-2" data-name="Path 58878" d="M6.99-11.64v-5.28H9.78c2.04,0,2.91,1.02,2.91,2.64s-.87,2.64-2.91,2.64Zm10.92-2.64c0-3.87-2.58-6.78-7.74-6.78H1.86V0H6.99V-7.56h3.18C15.54-7.56,17.91-10.8,17.91-14.28Zm6.87-6.78V0H36.63V-3.96H29.91v-17.1ZM57.66,0h5.43L55.47-21.06H49.53L41.91,0h5.37l1.26-3.72H56.4ZM55.08-7.68H49.89l2.58-7.71Zm13.38-9.27h5.58V0h5.13V-16.95h5.58v-4.11H68.46ZM91.53,0h5.13V-8.52h6.42v-3.99H96.66v-4.44h8.58v-4.11H91.53Zm41.34-10.59A10.5,10.5,0,0,0,122.1-21.36a10.57,10.57,0,0,0-10.83,10.77A10.6,10.6,0,0,0,122.1.21,10.546,10.546,0,0,0,132.87-10.59Zm-16.35,0c0-3.75,2.16-6.12,5.58-6.12,3.36,0,5.55,2.37,5.55,6.12,0,3.69-2.19,6.12-5.55,6.12C118.68-4.47,116.52-6.9,116.52-10.59Zm34.53-3.63c0,1.65-.9,2.64-2.82,2.64h-3.18V-16.8h3.18C150.15-16.8,151.05-15.78,151.05-14.22Zm-11.13-6.84V0h5.13V-7.95h1.23L150.66,0h5.79l-4.86-8.34a6.13,6.13,0,0,0,4.68-6.09c0-3.66-2.58-6.63-7.74-6.63ZM163.68,0h5.13V-12.66L173.55,0h4.14l4.71-12.63V0h5.13V-21.06H181.5L175.65-6.48l-5.91-14.58h-6.06Z" transform="translate(87.91 72.02)" fill="#fff"/>
    </g>
    <g id="Group_10140" data-name="Group 10140">
      <g id="Group_6396" data-name="Group 6396" transform="translate(951 109.484)">
        <g id="Group_6395" data-name="Group 6395">
          <path id="Path_17528" data-name="Path 17528" d="M11694.066,1294.474a4.392,4.392,0,0,0,0,8.773,4.392,4.392,0,0,0,0-8.773Z" transform="translate(-11644.39 -1262.931)" fill="#fff"/>
        </g>
      </g>
    </g>
  </g>
</svg>
