<svg xmlns="http://www.w3.org/2000/svg" width="154" height="47.019" viewBox="0 0 154 47.019">
  <g id="Group_7580" data-name="Group 7580" transform="translate(-770 -12.807)">
    <g id="Group_7930" data-name="Group 7930" transform="translate(-10894 -1259.351)">
      <g id="Group_6395" data-name="Group 6395">
        <path id="Path_17528" data-name="Path 17528" d="M11692.267,1294.474a2.5,2.5,0,0,0,0,4.992,2.5,2.5,0,0,0,0-4.992Z" fill="#0078d7"/>
        <path id="Path_17529" data-name="Path 17529" d="M11683.11,1276.526a19.11,19.11,0,1,0,19.109,19.111A19.111,19.111,0,0,0,11683.11,1276.526Zm-3.7,20.213c0,4.091-1.957,5.96-5.674,5.96-3.058,0-4.706-1.077-4.706-2.837a2.2,2.2,0,0,1,1.451-2.2,3.238,3.238,0,0,0,2.595,1.3c1.341,0,1.913-.6,1.913-2.288V1290.1c0-1.363.66-2.045,1.87-2.045h.637c1.255,0,1.914.682,1.914,2.045Zm5.736,3.717c0,1.517-.771,2.045-1.849,2.045h-.438c-1.145,0-1.937-.484-1.937-2.045v-7.038c0-1.539.814-2.045,1.892-2.045h.439c1.145,0,1.893.462,1.893,2.045Zm-2.068-10.205c-1.407,0-2.287-.769-2.287-2a1.967,1.967,0,0,1,2.222-1.98c1.407,0,2.287.748,2.287,1.98A1.97,1.97,0,0,1,11683.083,1290.251Zm9.162,12.448c-3.629,0-5.938-2.243-5.938-5.74,0-3.409,2.4-5.7,6-5.7,3.563,0,5.916,2.287,5.916,5.718C11698.227,1300.456,11695.852,1302.7,11692.245,1302.7Z" fill="#0078d7"/>
      </g>
    </g>
    <text id="COVERAGE_" data-name="COVERAGE
" transform="translate(814.898 31.807)" fill="#0078d7" font-size="18" font-family="Poppins-Bold, Poppins" font-weight="700" letter-spacing="0.075em"><tspan x="0" y="0">COVERAGE</tspan><tspan x="0" y="21"></tspan></text>
    <text id="PLATFORM" transform="translate(815 53.825)" fill="#0078d7" font-size="18" font-family="Poppins-Bold, Poppins" font-weight="700" letter-spacing="0.1em"><tspan x="0" y="0">PLATFORM</tspan></text>
  </g>
</svg>
