<svg class="green-circle" xmlns="http://www.w3.org/2000/svg" width="210mm" height="297mm" viewBox="0 0 744.09448819 1052.3622047">
    <ellipse cx="382.857" cy="506.648" rx="251.429" ry="257.143" fill="#ff3333" fill-rule="evenodd" />
    <path d="M131.168 497.96c0-2.88.646-12.757 1.17-17.9 5.124-50.215 24.146-97.027 55.31-136.118 2.4-3.008 2.725-3.348 3.206-3.348.405 0 .493.055.358.223l-2.745 3.438c-22.186 27.78-38.343 59.726-47.64 94.2-3.676 13.625-6.297 28.016-7.675 42.14-.6 6.135-1.086 13.534-1.09 16.547-.002 1.874-.085 2.202-.556 2.202-.303 0-.338-.145-.338-1.384z" opacity=".305" />
</svg>
