<svg class="mic shadow" xmlns="http://www.w3.org/2000/svg" width="210mm" height="297mm" viewBox="0 0 744.09448819 1052.3622047">
    <path fill="#fff" d="M302.857 365.934h80v100.714h-80z" />
    <circle cx="-343" cy="-357.34" transform="scale(-1)" r="40" fill="#fff" />
    <circle cx="343" cy="469.219" r="40" fill="#fff" />
    <path d="M328.57 728.076a71.43 75.714 0 0 1-35.713 65.57 71.43 75.714 0 0 1-71.428 0 71.43 75.714 0 0 1-35.716-65.57h71.43zM271.43 643.79a31.43 45.714 0 0 1-15.716 39.59 31.43 45.714 0 0 1-31.428 0 31.43 45.714 0 0 1-15.715-39.59H240z" fill="none" />
    <path d="M419.43 457.79a75.714 77.143 0 0 1-37.86 66.808 75.714 77.143 0 0 1-75.713 0A75.714 77.143 0 0 1 268 457.79" fill="none" stroke="#fff" stroke-width="12.5" />
    <path d="M345.893 534.648v67.143" fill="#fff" fill-rule="evenodd" stroke="#fff" stroke-width="18.75" />
    <path fill="#fff" stroke="#fff" stroke-width="12.5" d="M306.57 604.076h77.144v14.286H306.57z" />
</svg>
