<svg id="Layer_1" data-name="Layer 1" xmlns="http://www.w3.org/2000/svg" width="64" height="64" viewBox="0 0 64 64"><defs><style>.cls-1{fill:#1a7ddd;}.cls-2{fill:#fff;}</style></defs><path id="Path_60847" data-name="Path 60847" class="cls-1" d="M11.29.39H52.71A11.3,11.3,0,0,1,64,11.69V53.1A11.29,11.29,0,0,1,52.71,64.39H11.29A11.29,11.29,0,0,1,0,53.1V11.69A11.3,11.3,0,0,1,11.29.39Z"/><path id="Path_60620" data-name="Path 60620" class="cls-2" d="M50.67,28.09a5.73,5.73,0,0,0-5.38-3.39,5.83,5.83,0,0,0-2.36,11.12c.52.25.57.47.38,1a8.93,8.93,0,0,1-3.21,4.07,4.8,4.8,0,0,0-2,3.32c0,.52-.22,1.59-.22,1.59v7.71H34.11V22.3A1.31,1.31,0,0,1,35,20.86a5.8,5.8,0,0,0,2.74-7.74,1.3,1.3,0,0,0-.08-.17,5.85,5.85,0,0,0-11,1.9,5.73,5.73,0,0,0,3.31,6,1.38,1.38,0,0,1,.9,1.54q0,12.27,0,24.53h0v1.8c0,1.58,0,3.16.07,4.74H27c0-2.55,0-5.1,0-7.66A8.72,8.72,0,0,0,26.84,44a6.46,6.46,0,0,0-2.67-3.74,7.63,7.63,0,0,1-2.76-4.19l.83-.44a5.84,5.84,0,1,0-4.8.46,1.57,1.57,0,0,1,.85.9,9.16,9.16,0,0,0,3,5c3.06,2.45,2.5,2.8,2.55,6.21l-.62,7.1a7.6,7.6,0,0,0-1.7,1.79c-1.39,2.11-.84,4.49-.91,6.8H44.72c0-1.08,0-2.1,0-3.11A7.3,7.3,0,0,0,44.59,59h0a6.09,6.09,0,0,0-3.37-4.31v-.47l0-6.86c0-.54,0-1.08,0-1.61a3.07,3.07,0,0,1,1.32-2.7,11.17,11.17,0,0,0,4.25-6.29,1.75,1.75,0,0,1,.66-.74,16.77,16.77,0,0,0,2.52-1.92A5.36,5.36,0,0,0,50.67,28.09ZM29.9,15.59A2.59,2.59,0,0,1,32.51,13h0a2.67,2.67,0,0,1,2.56,2.54,2.63,2.63,0,0,1-2.63,2.63h0a2.58,2.58,0,0,1-2.55-2.59v0ZM19.35,33.15a2.6,2.6,0,1,1,2.55-2.62h0a2.6,2.6,0,0,1-2.55,2.62Zm26,0a2.61,2.61,0,0,1,0-5.21,2.61,2.61,0,0,1,0,5.22h0Z"/></svg>