<svg id="Layer_1" data-name="Layer 1" xmlns="http://www.w3.org/2000/svg" width="64" height="64" viewBox="0 0 64 64"><defs><style>.cls-1{fill:#1a7ddd;}.cls-2{fill:#fff;}</style></defs><g id="Group_13129" data-name="Group 13129"><rect id="Rectangle_2260" data-name="Rectangle 2260" class="cls-1" y="-0.06" width="64.37" height="64.37" rx="11.36"/></g><g id="Group_13217" data-name="Group 13217"><path id="Path_60817" data-name="Path 60817" class="cls-2" d="M54.23,31.62H46.6a1.69,1.69,0,0,1-.84-.23l-8-5a.85.85,0,0,1-.48-.86c0-2.59,0-5.18,0-7.76a1.14,1.14,0,0,0-1-1.23C35.53,16.42,35,17,35,17.79v6.82l-.61-.36c-1.88-1.18-3.76-2.38-5.65-3.54a.84.84,0,0,1-.47-.83c0-2.38,0-4.76,0-7.15v-.19a1.14,1.14,0,0,0-1.07-1.22h-.05A1.14,1.14,0,0,0,26,12.45a.17.17,0,0,0,0,.07V19c-.19-.12-.34-.19-.47-.27L18.06,14A1.17,1.17,0,0,0,16.13,15v5.72H8.79a1.1,1.1,0,0,0-1.21,1,1.48,1.48,0,0,0,0,.21A1.14,1.14,0,0,0,8.78,23h7.3V42.52H8.84a1.14,1.14,0,0,0-.32,2.26h7.6v5.65a1.27,1.27,0,0,0,.61,1.29,1.31,1.31,0,0,0,1.39-.19l7.33-4.62.57-.34v6.34a1.22,1.22,0,0,0,.63,1.19A1.15,1.15,0,0,0,28.29,53V45.58a.67.67,0,0,1,.37-.68l5.89-3.7.46-.26v6.79a1.2,1.2,0,0,0,.66,1.21,1.11,1.11,0,0,0,1.49-.53,1,1,0,0,0,.1-.57q0-4,0-7.91a.7.7,0,0,1,.38-.68c2.46-1.54,4.94-3.07,7.38-4.65a4,4,0,0,1,2.43-.71c2.27,0,4.54,0,6.82,0a1.11,1.11,0,0,0,1.23-1,1.27,1.27,0,0,0,0-.2,1.14,1.14,0,0,0-1.17-1.09ZM20.48,24.46h.71c.08-.6-.14-1.24.41-1.64a1.42,1.42,0,0,1,.74-.27.92.92,0,0,1,1,.64,7.75,7.75,0,0,1,.17,1.27c.25,0,.51,0,.78,0a1.13,1.13,0,0,1,.08,2.25h-.92c0,.31,0,.58,0,.84a1.1,1.1,0,0,1-1.1,1.1h0a1.1,1.1,0,0,1-1.09-1.1c0-.25,0-.5,0-.83h-.78a1.14,1.14,0,0,1-1.18-1.1v0a1.16,1.16,0,0,1,1.18-1.12ZM24.3,43c-.67,0-1.33,0-2,0H20.45a1.14,1.14,0,0,1-1.19-1.09h0a1.12,1.12,0,0,1,1.1-1.14h.06c1.28,0,2.56,0,3.85,0a1.12,1.12,0,0,1,1.13,1.1h0A1.1,1.1,0,0,1,24.32,43Z"/></g></svg>