<svg id="Layer_1" data-name="Layer 1" xmlns="http://www.w3.org/2000/svg" width="64" height="64" viewBox="0 0 64 64"><defs><style>.cls-1{fill:#1a7ddd;}.cls-2{fill:#f0f3f5;}</style></defs><g id="Group_13130" data-name="Group 13130"><path id="Path_60846" data-name="Path 60846" class="cls-1" d="M11.29,0H52.71A11.3,11.3,0,0,1,64,11.29V52.71A11.3,11.3,0,0,1,52.71,64H11.29A11.3,11.3,0,0,1,0,52.71V11.29A11.3,11.3,0,0,1,11.29,0Z"/><g id="Group_13124" data-name="Group 13124"><path id="Path_60618" data-name="Path 60618" class="cls-2" d="M5.65,31.34c0-.26,0-.51.06-.76a26.44,26.44,0,0,1,.46-3.53A26.69,26.69,0,0,1,15,12.1a26.53,26.53,0,0,1,12.61-6,25.44,25.44,0,0,1,5.37-.42c1,0,2.07.13,3.08.26a24.33,24.33,0,0,1,5.4,1.31,26.75,26.75,0,0,1,5.63,2.83,26.89,26.89,0,0,1,8.72,9.5,25.93,25.93,0,0,1,2.31,5.74,27.73,27.73,0,0,1,.75,3.82A26.72,26.72,0,0,1,41.75,57.3a25.94,25.94,0,0,1-4.81,1.31A26.23,26.23,0,0,1,33.5,59a.9.9,0,0,0-.16,0h-2L30.56,59a26.48,26.48,0,0,1-3.87-.53,26.19,26.19,0,0,1-6-2.05,26.54,26.54,0,0,1-5.8-3.81,27,27,0,0,1-4.11-4.44,26.18,26.18,0,0,1-3.16-5.6,25.42,25.42,0,0,1-1.49-4.9,24.92,24.92,0,0,1-.47-3.53c0-.26,0-.51-.06-.76ZM32.33,7.78A24.54,24.54,0,0,0,7.79,32.32v0A24.5,24.5,0,0,0,32.26,56.88h.08A24.5,24.5,0,0,0,56.88,32.41v-.08A24.54,24.54,0,0,0,32.37,7.77h0Z"/><path id="Path_60619" data-name="Path 60619" class="cls-2" d="M34.47,54.64a2.27,2.27,0,0,0-.83-1.58,2,2,0,0,0-1.25-.44,2.07,2.07,0,0,0-1.51.57,2.32,2.32,0,0,0-.68,1.45,22.41,22.41,0,0,1,0-44.62,2.08,2.08,0,0,0,2.15,2h.17a2.06,2.06,0,0,0,2-2,22.41,22.41,0,0,1,.11,44.6ZM22.19,33.4h6.88a1,1,0,0,0,1.12-1,1,1,0,0,0-.15-.62,1.09,1.09,0,0,0-1-.52H15.27a1.06,1.06,0,0,0-1.07,1.06,1,1,0,0,0,.06.35,1.07,1.07,0,0,0,1.1.72Zm20.29-2.13H35.54a1.06,1.06,0,0,0-1.07,1.06,1.1,1.1,0,0,0,.16.56,1.08,1.08,0,0,0,1,.51H49.39a1.06,1.06,0,0,0,1.08-1.06,1.13,1.13,0,0,0-.06-.36,1.07,1.07,0,0,0-1.1-.71Zm-19.76-3.2h6.34a1.06,1.06,0,0,0,1.12-1,1,1,0,0,0-.15-.62,1.1,1.1,0,0,0-1-.52H16.32a1.07,1.07,0,0,0-1,1.42,1.11,1.11,0,0,0,1.11.72Zm19.2,0h6.35a1.06,1.06,0,0,0,1-1.61,1.09,1.09,0,0,0-1-.53H35.54A1.07,1.07,0,0,0,34.46,27a1.15,1.15,0,0,0,.06.37,1.09,1.09,0,0,0,1.09.72ZM22.7,38.74h6.37a1.06,1.06,0,0,0,1-1.61,1.09,1.09,0,0,0-1-.52H16.33a1.06,1.06,0,0,0-1.08,1,1.15,1.15,0,0,0,.06.37,1.09,1.09,0,0,0,1.09.71Zm19.24-2.13H35.59a1.06,1.06,0,0,0-1,1.6,1.08,1.08,0,0,0,1,.53H48.32a1.06,1.06,0,0,0,1.08-1.05,1.15,1.15,0,0,0-.06-.37,1.09,1.09,0,0,0-1.1-.71Zm-17.61-16H19.59a1.07,1.07,0,0,0-1.14,1,1,1,0,0,0,.06.43,1.1,1.1,0,0,0,1.12.71H29.1a1.07,1.07,0,0,0,1-1.42A1.09,1.09,0,0,0,29,20.59Zm16,2.14h4.73a1.07,1.07,0,0,0,1.14-1,1,1,0,0,0-.06-.42,1.08,1.08,0,0,0-1.1-.73H35.55a1.08,1.08,0,0,0-1.08,1.06,1.19,1.19,0,0,0,.06.37,1.09,1.09,0,0,0,1.09.71Zm-16,21.35h4.74a1.06,1.06,0,0,0,1.13-1,1.13,1.13,0,0,0-.05-.41A1.1,1.1,0,0,0,29,41.94H19.53A1.07,1.07,0,0,0,18.45,43a1,1,0,0,0,.06.37,1.09,1.09,0,0,0,1.09.71Zm16-2.14H35.59a1.05,1.05,0,0,0-1,.55,1,1,0,0,0,0,1.08,1.1,1.1,0,0,0,1,.51h9.49A1.06,1.06,0,0,0,46.2,43a1.08,1.08,0,0,0-1.15-1.08ZM26.45,17.39h2.61a1.07,1.07,0,0,0,1.13-1,2.45,2.45,0,0,0,0-.27,1.07,1.07,0,0,0-1.12-.86h-5.2a1.06,1.06,0,0,0-1.12,1,1,1,0,0,0,.06.41,1.08,1.08,0,0,0,1.08.72Zm11.73,0h2.59a1.55,1.55,0,0,0,.56-.11,1.05,1.05,0,0,0,.57-1.2,1.07,1.07,0,0,0-1.06-.82H35.55a1.06,1.06,0,0,0-1.09,1,1.21,1.21,0,0,0,.06.38,1.09,1.09,0,0,0,1.07.72h2.59Zm-11.72,32H29l.32,0a1.05,1.05,0,0,0,0-2.08.91.91,0,0,0-.23,0h-5.2a1.07,1.07,0,0,0-1.13,1,1,1,0,0,0,.06.42,1.08,1.08,0,0,0,1.07.72h2.6Zm11.73,0h2.54a2.07,2.07,0,0,0,.35,0,1.09,1.09,0,0,0,.86-1,1.07,1.07,0,0,0-.86-1,1.36,1.36,0,0,0-.29,0H35.62a1.07,1.07,0,0,0-1.14,1,.9.9,0,0,0,.05.43,1.1,1.1,0,0,0,1.08.72h2.58Z"/></g></g></svg>