<svg xmlns="http://www.w3.org/2000/svg" width="24" height="24" viewBox="0 0 24 24">
  <g id="Airtel" transform="translate(0 0)">
    <g id="Group_15956" data-name="Group 15956" transform="translate(6524 -12675)">
      <g id="Group_15632" data-name="Group 15632" transform="translate(-6524 12674)">
        <g id="Group_15835" data-name="Group 15835">
          <path id="Path_63964" data-name="Path 63964" d="M-119.9,115.4a12,12,0,0,0-12,12,12,12,0,0,0,12,12,12,12,0,0,0,12-12,12,12,0,0,0-12-12" transform="translate(131.9 -114.4)" fill="#e30a17"/>
        </g>
      </g>
      <g id="g20" transform="translate(-6520.134 12677.156)">
        <g id="g4575" transform="translate(0 0)">
          <g id="g4557" transform="translate(3.984)">
            <path id="path4" d="M271.051-774.6a.9.9,0,0,1-.162.02,5.4,5.4,0,0,0-1.248.313c-.024.011-.093.04-.155.064a5.992,5.992,0,0,0-.657.315.417.417,0,0,1-.115.053c-.033.009-.06.025-.06.033s-.018.022-.038.031a.591.591,0,0,0-.107.058.95.95,0,0,1-.118.067.653.653,0,0,0-.124.078.384.384,0,0,1-.087.056,7.936,7.936,0,0,0-.968.7,4.1,4.1,0,0,0-.468.5.224.224,0,0,1-.047.067,4.008,4.008,0,0,0-.324.508c-.024.056-.073.153-.1.22a1.511,1.511,0,0,0-.142.746.8.8,0,0,0,.264.613,1.02,1.02,0,0,0,.742.3,1.755,1.755,0,0,0,.622-.071l.218-.058a.538.538,0,0,0,.122-.042c.051-.027.337-.155.351-.155a8.733,8.733,0,0,0,.941-.575c.286-.191.537-.357.559-.369s.155-.093.3-.18.322-.186.4-.224l.233-.122c.056-.027.16-.075.233-.1s.164-.067.2-.082l.122-.053a1.869,1.869,0,0,1,.473-.084.784.784,0,0,1,.85.537,1.111,1.111,0,0,1,.042.433,1.662,1.662,0,0,1-.115.71l-.055.133a5.1,5.1,0,0,1-.6.995,8.559,8.559,0,0,1-1.137,1.177l-.3.249a3.826,3.826,0,0,1-.322.235c-.049.031-.129.084-.178.12a5.928,5.928,0,0,1-.71.378l-.182.08a.335.335,0,0,1-.113.031.474.474,0,0,0-.113.024.212.212,0,0,1-.291-.2c0-.182.087-.3.633-.839.591-.586.655-.673.655-.895a.538.538,0,0,0-.353-.509.554.554,0,0,0-.333-.062.85.85,0,0,0-.5.127c-.036.022-.091.051-.122.067a.376.376,0,0,0-.067.04c-.007.007-.051.04-.1.078a2.961,2.961,0,0,0-.442.453,3.09,3.09,0,0,0-.282.468,2.266,2.266,0,0,0-.22.857.948.948,0,0,0,.633.968,2.894,2.894,0,0,0,.748,0,4.212,4.212,0,0,0,.6-.187.092.092,0,0,1,.053-.02,6.814,6.814,0,0,0,.944-.482l.131-.084c.02-.011.124-.075.233-.142s.2-.129.206-.135a1.917,1.917,0,0,1,.167-.122l.222-.153c.038-.027.142-.107.233-.18a8.867,8.867,0,0,0,1.385-1.332c.049-.06.093-.115.1-.122s.169-.231.273-.4a2.858,2.858,0,0,0,.158-.271l.129-.244c.029-.056.091-.2.14-.322s.093-.242.1-.266a5.109,5.109,0,0,0,.2-.855,3.289,3.289,0,0,0-.08-1.166,1.9,1.9,0,0,0-.129-.322,2.43,2.43,0,0,0-.788-.955,1.151,1.151,0,0,1-.124-.1,3.114,3.114,0,0,0-.724-.322,3.645,3.645,0,0,0-.42-.093A4.786,4.786,0,0,0,271.051-774.6Z" transform="translate(-266.125 774.613)" fill="#fff"/>
          </g>
          <g id="g4554" transform="translate(0 10.493)">
            <g id="g4539" transform="translate(14.449 0.491)">
              <path id="path8" d="M738.4-279.837c-.007,0-.109.024-.231.044s-.322.051-.444.073l-.222.038v2.042c0,2.218,0,2.125.127,2.4a.809.809,0,0,0,.2.264,1.178,1.178,0,0,0,.924.284c.4,0,.384.016.375-.353l-.007-.266-.171-.016c-.3-.027-.451-.149-.484-.4-.009-.075-.016-1.026-.013-2.109C738.454-279.711,738.449-279.89,738.4-279.837Z" transform="translate(-737.499 279.845)" fill="#fff"/>
            </g>
            <g id="g4533" transform="translate(8.507 0.51)">
              <path id="path10" d="M470.532-278.967a2.894,2.894,0,0,0-.677.129c-.016.018-.018.726-.011,2.08a14.04,14.04,0,0,0,.051,2.153.96.96,0,0,0,.242.4,1.312,1.312,0,0,0,1.019.329c.271,0,.309,0,.326-.04a2.157,2.157,0,0,0,.016-.517c-.013-.056-.022-.058-.189-.071a.46.46,0,0,1-.422-.238l-.056-.1-.007-1.15a8.778,8.778,0,0,1,.02-1.183c.02-.024.1-.031.333-.031.366,0,.335.035.326-.388l-.007-.289-.311-.011a2.146,2.146,0,0,1-.337-.029,1.736,1.736,0,0,1-.029-.551V-279l-.049,0C470.743-279,470.637-278.982,470.532-278.967Z" transform="translate(-469.841 279)" fill="#fff"/>
            </g>
            <g id="g4527" transform="translate(0 1.538)">
              <path id="path12" d="M88.178-232.68a3.554,3.554,0,0,0-.688.164.869.869,0,0,1-.1.036,1.837,1.837,0,0,0-.422.211.725.725,0,0,0,.042.115,2.916,2.916,0,0,0,.213.437.2.2,0,0,0,.051-.02,2.4,2.4,0,0,1,.36-.147c.067-.02.147-.047.178-.058a1.766,1.766,0,0,1,.608-.042c.3.049.413.189.431.546.009.2.009.2-.042.215a4,4,0,0,1-.453.016,1.871,1.871,0,0,0-1.032.2,1.2,1.2,0,0,0-.615.757,1.507,1.507,0,0,0,.013.71,1.4,1.4,0,0,0,1.336.992,2.459,2.459,0,0,0,1.618-.466l.144-.118.007-1.174c.007-1.361,0-1.408-.16-1.741a1.264,1.264,0,0,0-.473-.457c-.071-.033-.149-.067-.173-.078A2.252,2.252,0,0,0,88.178-232.68Zm.655,2.14a4.253,4.253,0,0,1,.022.6c0,.631.009.591-.155.677a.75.75,0,0,1-.346.042h-.269l-.111-.076a.663.663,0,0,1-.155-.144.826.826,0,0,1,.02-.879.912.912,0,0,1,.282-.2.1.1,0,0,0,.06-.02c.031-.033.133-.042.393-.038C88.76-230.573,88.818-230.566,88.833-230.54Z" transform="translate(-86.673 232.686)" fill="#fff"/>
            </g>
            <g id="g4530" transform="translate(5.802 1.556)">
              <path id="path14" d="M349.243-231.861a2.463,2.463,0,0,0-1.15.617l-.093.084v3.279c0,.036.033.038.484.033l.482-.007.007-1.547,0-1.545.084-.067a.743.743,0,0,1,.277-.149,1.519,1.519,0,0,1,.573-.055.823.823,0,0,0,.186.007.49.49,0,0,0,.091-.169c.033-.089.087-.2.113-.258.073-.14.067-.175-.031-.2l-.191-.044A2.738,2.738,0,0,0,349.243-231.861Z" transform="translate(-348 231.903)" fill="#fff"/>
            </g>
            <g id="g4536" transform="translate(10.583 1.578)">
              <path id="path16" d="M564.653-230.871a.473.473,0,0,0-.153.042.093.093,0,0,1-.053.02.76.76,0,0,0-.175.071,1.682,1.682,0,0,0-.544.506,2.271,2.271,0,0,0-.229.477.823.823,0,0,1-.033.111c-.009.024-.035.12-.058.211a4.326,4.326,0,0,0,0,1.232,2.22,2.22,0,0,0,.2.522.023.023,0,0,1,.02.024,1.649,1.649,0,0,0,.451.571,1.6,1.6,0,0,0,.4.209,2.679,2.679,0,0,0,.624.107,2.791,2.791,0,0,0,1.072-.255.749.749,0,0,1,.135-.067.7.7,0,0,0,.231-.142,1.936,1.936,0,0,0-.262-.535.21.21,0,0,0-.087.044.2.2,0,0,1-.087.044.163.163,0,0,0-.073.031,2.117,2.117,0,0,1-.255.1,1.169,1.169,0,0,1-.522.075c-.275,0-.322,0-.411-.047a1.067,1.067,0,0,1-.488-1.03,1.447,1.447,0,0,1,.007-.2s.5-.011,1.092-.018l1.088-.011-.007-.222a3.141,3.141,0,0,0-.229-1.154c-.009-.013-.04-.069-.069-.124a1.169,1.169,0,0,0-.673-.542A2.22,2.22,0,0,0,564.653-230.871Zm.477.706c.093.024.289.182.289.231a.3.3,0,0,0,.033.087.95.95,0,0,1,.055.471c-.022.029-.109.033-.557.033h-.531l-.013-.056a.92.92,0,0,1,.138-.535.564.564,0,0,1,.313-.235.556.556,0,0,1,.155-.029C565.026-230.194,565.079-230.179,565.13-230.165Z" transform="translate(-563.362 230.896)" fill="#fff"/>
            </g>
            <g id="g4524" transform="translate(3.859 0)">
              <path id="path6" d="M260.866-301.931a.619.619,0,0,0-.293.238c-.071.109-.073.118-.073.344v.235l.084.115a.553.553,0,0,0,.313.235.62.62,0,0,0,.566-.084.66.66,0,0,0,.175-.821.516.516,0,0,0-.229-.231A.724.724,0,0,0,260.866-301.931Z" transform="translate(-260.5 301.97)" fill="#fff"/>
              <path id="path18" d="M266.747-228.7a1.737,1.737,0,0,1-.222.042l-.344.049a1.18,1.18,0,0,0-.206.04c-.02.018-.022,3.79,0,3.823a2.793,2.793,0,0,0,.466.02c.453,0,.455,0,.466-.051.007-.027.009-.924.007-1.991-.007-1.925-.007-1.943-.051-1.947A.367.367,0,0,0,266.747-228.7Z" transform="translate(-265.836 230.345)" fill="#fff"/>
            </g>
          </g>
        </g>
      </g>
    </g>
  </g>
</svg>
