<svg id="Capa_1" data-name="Capa 1" xmlns="http://www.w3.org/2000/svg" viewBox="0 0 53.3 48.82"><defs><style>.cls-1{fill:#fff;}</style></defs><path class="cls-1" d="M53.3,42.31l-20.37-36a6.21,6.21,0,0,0-10.86,0L1.7,42.31a6.47,6.47,0,0,0,0,6.4,6.18,6.18,0,0,0,5.43,3.2H47.87a6.18,6.18,0,0,0,5.43-3.2A6.47,6.47,0,0,0,53.3,42.31Zm-2.71,4.81a3.09,3.09,0,0,1-2.72,1.6H7.13a3.09,3.09,0,0,1-2.72-1.6,3.23,3.23,0,0,1,0-3.21l20.37-36a3.11,3.11,0,0,1,5.44,0l20.37,36A3.23,3.23,0,0,1,50.59,47.12Z" transform="translate(-0.85 -3.09)"/><rect class="cls-1" x="25.09" y="15.91" width="3.12" height="15.94"/><path class="cls-1" d="M27.5,38.13a2.13,2.13,0,1,0,2.08,2.12A2.1,2.1,0,0,0,27.5,38.13Z" transform="translate(-0.85 -3.09)"/></svg>