<svg xmlns="http://www.w3.org/2000/svg" width="24" height="24" viewBox="0 0 24 24">
  <g id="Jio" transform="translate(0 0)">
    <g id="Group_15947" data-name="Group 15947" transform="translate(6524 -12675)">
      <g id="Group_15632" data-name="Group 15632" transform="translate(-6524 12674)">
        <g id="Group_15835" data-name="Group 15835">
          <path id="Path_63964" data-name="Path 63964" d="M-119.9,115.4a12,12,0,0,0-12,12,12,12,0,0,0,12,12,12,12,0,0,0,12-12,12,12,0,0,0-12-12" transform="translate(131.9 -114.4)" fill="#0b5aab"/>
        </g>
      </g>
      <path id="Path_64003" data-name="Path 64003" d="M-89.293,195.981h-.356c-.672,0-1.041.451-1.041,1.359V201.7c0,1.126-.316,1.515-1.061,1.515a1.721,1.721,0,0,1-1.444-.862,1.451,1.451,0,0,0-.806,1.46c0,1.165.913,1.88,2.612,1.88,2.068,0,3.149-1.243,3.149-3.953v-4.4c.013-.909-.356-1.359-1.054-1.359m3.2,2.2h-.242c-.6,0-1.054.334-1.054,1.359v4.668c0,1.033.443,1.359,1.074,1.359h.242c.6,0,1.027-.35,1.027-1.359v-4.668c0-1.049-.416-1.359-1.048-1.359m-.134-3.379a1.19,1.19,0,0,0-1.236,1.313,1.209,1.209,0,0,0,1.269,1.328,1.2,1.2,0,0,0,1.236-1.328,1.193,1.193,0,0,0-1.269-1.313m5.164,3.309c-2.008,0-3.337,1.515-3.337,3.775,0,2.322,1.283,3.806,3.3,3.806s3.324-1.491,3.324-3.79c0-2.276-1.309-3.79-3.284-3.79m-.027,5.437c-.779,0-1.316-.683-1.316-1.662,0-.963.551-1.647,1.316-1.647s1.316.683,1.316,1.662c0,.948-.557,1.647-1.316,1.647" transform="translate(-6426 12486.2)" fill="#fff"/>
    </g>
  </g>
</svg>
