<svg xmlns="http://www.w3.org/2000/svg" width="28.923" height="33.917" viewBox="0 0 28.923 33.917">
  <g id="Group_13136" data-name="Group 13136" transform="translate(-5.214 17.868) rotate(-45)">
    <path id="Path_60531" data-name="Path 60531" d="M10.666,18.52l-7.8,7.8a.852.852,0,1,0,1.2,1.2l7.8-7.8Z" transform="translate(0 -2.55)" fill="#a53bf2"/>
    <path id="Path_60532" data-name="Path 60532" d="M26.84,7.15,21.3,1.611a1.832,1.832,0,0,0-2.557,2.557.145.145,0,0,1,0,.179L15.685,7.406a2.207,2.207,0,0,1-2.761.366,3.9,3.9,0,0,0-4.977.452L6.958,9.229a.852.852,0,0,0,0,1.185L18.037,21.493a.852.852,0,0,0,1.2,0l1.006-1.006a3.9,3.9,0,0,0,.435-4.96,2.207,2.207,0,0,1,.366-2.761l3.025-3.025a.145.145,0,0,1,.179,0,1.832,1.832,0,0,0,2.557-2.557Z" transform="translate(-0.613 0)" fill="#a53bf2"/>
  </g>
</svg>
