<svg id="BG" xmlns="http://www.w3.org/2000/svg" xmlns:xlink="http://www.w3.org/1999/xlink" width="1440.104" height="234" viewBox="0 0 1440.104 234">
  <defs>
    <linearGradient id="linear-gradient" x1="0.5" x2="0.5" y2="1" gradientUnits="objectBoundingBox">
      <stop offset="0" stop-color="#0070db"/>
      <stop offset="1" stop-color="#004486"/>
    </linearGradient>
  </defs>
  <rect id="Rectangle_2101" data-name="Rectangle 2101" width="1440" height="234" fill="url(#linear-gradient)"/>
  <path id="Path_58980" data-name="Path 58980" d="M1422.094,9.622a1.319,1.319,0,0,0,.8-.745H1440v-1h-17.1a1.317,1.317,0,0,0-1.249-.827L1417.6.037h-1.162l4.282,7.416a1.319,1.319,0,0,0-.3,1.327,1.3,1.3,0,0,0,.311.5L1412.291,23.9a1.821,1.821,0,0,0-1.023.788H1393l-8.719-15.1a1.8,1.8,0,0,0,.007-2.447l4.1-7.107h-1.163l-3.8,6.577a1.788,1.788,0,0,0-2.242,1.259h-16.314a1.8,1.8,0,0,0-.237-.529,1.819,1.819,0,0,0-1.533-.8L1359.352.037h-1.162l3.932,6.811-.013.007a1.823,1.823,0,0,0,.019,3.034l-2.643,4.578-5.595,9.688a1.843,1.843,0,0,0-.495.534h-18.6a1.774,1.774,0,0,0-.2-.265L1325.91,9.382a1.822,1.822,0,0,0,.006-2.027l4.226-7.318h-1.164L1325.132,6.7a1.812,1.812,0,0,0-2.486,1.177h-16.173a1.321,1.321,0,0,0-1.225-.833c-.034,0-.062.017-.1.019L1301.1.037h-1.162l4.318,7.477a1.263,1.263,0,0,0,.005,1.71L1295.8,23.869a1.79,1.79,0,0,0-1.979.82h-16.146a1.817,1.817,0,0,0-1.551-.875c-.044,0-.085.01-.128.013L1267.072,8.37l4.811-8.333H1270.7l-4.5,7.786H1247.37l-4.5-7.786h-1.163l1.373,2.377,3.411,5.908-8.967,15.533a1.846,1.846,0,0,0-.382-.041,1.821,1.821,0,0,0-1.523.823h-16.9a1.3,1.3,0,0,0-.65-.285l-8.552-14.811a1.8,1.8,0,0,0-.028-2.389L1213.6.037h-1.162l-3.8,6.581a1.783,1.783,0,0,0-2.237,1.2h-16.242a1.819,1.819,0,0,0-1.734-1.283c-.017,0-.033.005-.051.005L1184.621.037h-1.165L1187.4,6.86a1.819,1.819,0,0,0-.033,2.981l-8.07,13.975-.019,0a1.819,1.819,0,0,0-1.522.823h-17.765l-9.155-15.855a1.289,1.289,0,0,0,.084-.417,1.3,1.3,0,0,0-.1-.481l4.532-7.847h-1.163l-4.1,7.1a1.308,1.308,0,0,0-1.7.682h-16.026a1.786,1.786,0,0,0-2.2-1.215l-3.794-6.57H1125.2l4.093,7.087a1.8,1.8,0,0,0-.028,2.446L1120.818,24.2a1.808,1.808,0,0,0-2.638.433h-15.057a1.817,1.817,0,0,0-1.524-.823,1.9,1.9,0,0,0-.322.032L1092.77,9.115a1.212,1.212,0,0,0-.026-1.539L1097.1.037h-1.163l-4.063,7.036a1.283,1.283,0,0,0-.164-.033,1.322,1.322,0,0,0-1.2.782h-17.886L1068.126.037h-1.176l4.778,8.274-9.413,16.3h-18.777a1.825,1.825,0,0,0-.213-.258L1034.054,8.3l4.77-8.262h-1.158L1032.9,8.3l8.969,15.532a1.818,1.818,0,0,0-.534,3.494L1032.9,41.931l10,17.317h18.962a1.287,1.287,0,0,0,.717.48l9.448,16.362h18.448a1.316,1.316,0,0,0,2.563-.429,1.3,1.3,0,0,0-.3-.805l8.384-14.519a1.8,1.8,0,0,0,2.351-1.065h17.092l8.742,15.138a1.821,1.821,0,1,0,3.092,1.68h15.426a1.805,1.805,0,0,0,2.566,1.2l9.016,15.613h18.714a1.313,1.313,0,1,0,2.14-1.479l8.058-13.954c.038,0,.074.011.112.011a1.821,1.821,0,0,0,1.768-1.394h17.749l8.627,14.939a1.81,1.81,0,0,0,.084,2.61l-8.042,13.928a1.8,1.8,0,0,0-.478-.071,1.825,1.825,0,1,0,0,3.65,1.8,1.8,0,0,0,.571-.1l8.948,15.5h17.858a1.778,1.778,0,0,0,2.107.95l8.006,13.863a1.814,1.814,0,0,0-.171,3.347l-7.869,13.627a1.3,1.3,0,0,0-.441-.089,1.325,1.325,0,0,0-1.326,1.324h0a1.326,1.326,0,0,0,1.324,1.325,1.3,1.3,0,0,0,.279-.056l8.235,14.261a1.808,1.808,0,0,0-.4,1.126,1.82,1.82,0,0,0,3.448.82h16.509a1.314,1.314,0,0,0,1.294,1.177,1.288,1.288,0,0,0,.329-.066l8.179,14.163a1.8,1.8,0,0,0-.062,2.192l-8.226,14.245a1.766,1.766,0,0,0-.219-.022,1.825,1.825,0,0,0,0,3.65,1.8,1.8,0,0,0,.607-.112l7.767,13.45a1.819,1.819,0,1,0,3.172,1.773h16.3a1.3,1.3,0,0,0,1.013.5,1.229,1.229,0,0,0,.217-.044l3.516,6.09h1.157l-3.825-6.625a1.284,1.284,0,0,0,.26-.746,1.312,1.312,0,0,0-.081-.4l8.073-13.981a1.791,1.791,0,0,0,.555.1,1.82,1.82,0,0,0,1.813-1.705h15.523a1.824,1.824,0,0,0,1.813,1.705,1.8,1.8,0,0,0,.9-.246l7.661,13.266a1.308,1.308,0,0,0-1.036,1.267,1.325,1.325,0,0,0,1.325,1.325c.021,0,.039-.011.06-.012l-3.5,6.058h1.162l3.779-6.546h18.58a1.831,1.831,0,0,0,.675.729l3.359,5.817h1.161l-3.223-5.583a1.822,1.822,0,0,0,.318-3.483l3.457-5.988,4.109-7.115a1.307,1.307,0,0,0,1.249-1.194h16.7a1.81,1.81,0,0,0,2.486,1.573l8.006,13.864a1.254,1.254,0,0,0,.2,1.408l-3.763,6.518h1.161l3.5-6.065c.032,0,.06.019.093.019a1.3,1.3,0,0,0,1.012-.5h17.98a1.2,1.2,0,0,0,.1.131l3.7,6.415h1.161l-3.539-6.13a1.29,1.29,0,0,0,.288-2.334l7.663-13.27a1.788,1.788,0,0,0,2.3-1.629H1440v-1h-16.734a1.818,1.818,0,0,0-1.588-.942c-.03,0-.059.007-.089.009l-7.906-13.692a1.812,1.812,0,0,0-.08-3.241l8.526-14.765H1440v-1h-17.871l-8.806-15.251a1.305,1.305,0,0,0,.133-2.363l8.118-14.057c.036,0,.068.021.1.021a1.308,1.308,0,0,0,1.256-.982H1440v-1h-17.2a1.3,1.3,0,0,0-1.05-.651l-8.27-14.321a1.818,1.818,0,0,0,.316-3.232l7.558-13.088a1.781,1.781,0,0,0,.321.033,1.82,1.82,0,0,0,1.761-1.372H1440v-1h-16.59a1.819,1.819,0,0,0-1.732-1.277,1.843,1.843,0,0,0-.27.027l-7.835-13.569a1.814,1.814,0,0,0,.141-3.24l7.657-13.259a1.8,1.8,0,0,0,2.061-1.315H1440v-1h-16.582a1.735,1.735,0,0,0-.055-.182,1.822,1.822,0,0,0-1.97-1.093L1413.561,60.3a1.816,1.816,0,0,0,.165-3.241l7.751-13.423a1.8,1.8,0,0,0,1.895-1.13H1440v-1h-16.527a1.88,1.88,0,0,0-.11-.379,1.825,1.825,0,0,0-2.073-1.076l-7.449-12.9a1.82,1.82,0,0,0-.4-3.224l8.226-14.245A1.316,1.316,0,0,0,1422.094,9.622Zm-58.978.567a1.8,1.8,0,0,0,1.758-1.312H1381.2a1.82,1.82,0,0,0,1.743,1.312,1.8,1.8,0,0,0,.483-.073l8.7,15.073-8.88,15.379a1.259,1.259,0,0,0-.306-.062,1.306,1.306,0,0,0-1.259,1h-16.759a1.807,1.807,0,0,0-1.909-1.488l-7.339-12.709a1.819,1.819,0,0,0-.446-3.466Zm28.39,49.714-2.151,3.726L1383.421,73.9a1.8,1.8,0,0,0-.478-.071,1.818,1.818,0,0,0-1.74,1.3h-16.332a1.792,1.792,0,0,0-.055-.181,1.824,1.824,0,0,0-1.693-1.121l-7.754-13.429a1.817,1.817,0,0,0,.183-3.485l7.664-13.273a1.8,1.8,0,0,0,1.61-1.142h17.005a1.306,1.306,0,0,0,1.113.649c.044,0,.082-.021.125-.025l8.31,14.391a1.8,1.8,0,0,0,.127,2.381Zm.061,67.159-8.215,14.227a1.783,1.783,0,0,0-.409-.05,1.823,1.823,0,0,0-1.7,1.166h-16.417a1.819,1.819,0,0,0-1.622-1.159l-7.922-13.718a1.822,1.822,0,0,0,.349-3.48l7.454-12.907c.015,0,.029.005.044.005a1.821,1.821,0,0,0,1.761-1.371h16.818a1.317,1.317,0,0,0,1.233.871,1.2,1.2,0,0,0,.24-.049l8.139,14.1a1.81,1.81,0,0,0,.245,2.37Zm-.071,33.757-8.246,14.28a1.771,1.771,0,0,0-1.911.94h-17.214a1.3,1.3,0,0,0-.456-.353l-5.965-10.33-2.324-4.025a1.816,1.816,0,0,0,.157-3.486l7.488-12.967c.036,0,.07.011.106.011a1.824,1.824,0,0,0,1.79-1.482h16.232a1.8,1.8,0,0,0,2.354,1.384l7.881,13.648a1.8,1.8,0,0,0,.108,2.38Zm-29.256,17.04-8.66,15h-18.617a1.82,1.82,0,0,0-.768-.96l-8.183-14.171a1.777,1.777,0,0,0-.219-1.993l8.955-15.508h18.5a1.821,1.821,0,0,0,.892.97l8.392,14.533a1.3,1.3,0,0,0-.293,2.132Zm-94.491-36.13,8.19-14.186c.063.006.123.019.187.019a1.817,1.817,0,0,0,1.6-.971h16.044a1.774,1.774,0,0,0,2.076.9l7.607,13.173.849,1.471a1.32,1.32,0,0,0-.382.928,1.3,1.3,0,0,0,.283.781l-8.879,15.377h-18.832l-8.629-14.943a1.8,1.8,0,0,0-.117-2.55Zm-.227-33.239,8.312-14.4a1.763,1.763,0,0,0,.292.03,1.822,1.822,0,0,0,1.7-1.164h15.854c.005.012.007.025.012.037a1.819,1.819,0,0,0,2.255,1.026l1.981,3.432,6.345,10.991a1.266,1.266,0,0,0-.029,1.71l-8.058,13.954a1.8,1.8,0,0,0-2.618,1.481h-15.629A1.792,1.792,0,0,0,1275.6,124l-8.036-13.916a1.288,1.288,0,0,0,.269-.758A1.3,1.3,0,0,0,1267.522,108.49Zm-28.89-50.907,8.081-13.994a1.821,1.821,0,0,0,1.228-1.082h17.46a1.306,1.306,0,0,0,1.111.649c.02,0,.037-.011.057-.012l9.039,15.653L1266.9,73.878a1.806,1.806,0,0,0-2.109,1.205h-17.361a1.325,1.325,0,0,0-.291-.392l-8.6-14.89a1.8,1.8,0,0,0,.092-2.218Zm58.261.041,8.355-14.468h0a1.306,1.306,0,0,0,1.113-.649H1322.7a1.823,1.823,0,0,0,1.692,1.149,1.8,1.8,0,0,0,.65-.125l7.711,13.354a1.817,1.817,0,0,0,.191,3.546l-8.493,14.707h-17.468a1.8,1.8,0,0,0-2.07-1.27l-8.133-14.085a1.8,1.8,0,0,0,.109-2.159Zm64.554,18.738a1.814,1.814,0,0,0,.669.812l-8.536,14.782h-18.545a1.827,1.827,0,0,0-1.049-1.325l-8.658-14.992,8.953-15.5a1.832,1.832,0,0,0,.651-.811h18.328a1.822,1.822,0,0,0,.857.926l4.845,8.392,3.172,5.492A1.823,1.823,0,0,0,1361.447,76.362Zm.659,34.467-7.588,13.139a1.817,1.817,0,0,0-1.381,1.621H1334.75l-8.824-15.279a1.811,1.811,0,0,0-.029-2.024l8.357-14.471a1.837,1.837,0,0,0,.687-.857h18.641l2.6,4.5,5.967,10.336a1.82,1.82,0,0,0-.039,3.04Zm-.045,33.706-7.682,13.3a1.821,1.821,0,0,0-1.224,1.384h-18.406L1325.957,144a1.788,1.788,0,0,0-.1-2.012l8.89-15.393h18.595a1.827,1.827,0,0,0,.634.686l2.72,4.712,5.495,9.516a1.812,1.812,0,0,0-.133,3.03Zm-65.122-19.725,8.193-14.188a1.14,1.14,0,0,0,.116.024,1.314,1.314,0,0,0,1.233-.871h16.154a1.81,1.81,0,0,0,2.513,1.205l7.79,13.494a1.306,1.306,0,0,0-1.019,1.263,1.325,1.325,0,0,0,1.325,1.325c.027,0,.05-.014.077-.016l-2.368,4.1-5.9,10.216a1.807,1.807,0,0,0-2.355,1.039h-16.326a1.306,1.306,0,0,0-1.124-.666l-.01,0-8.528-14.768a1.793,1.793,0,0,0,.229-2.163Zm.122-33.212a1.868,1.868,0,0,0-.179-.33l7.983-13.825a1.847,1.847,0,0,0,.382.042A1.82,1.82,0,0,0,1307,76.14h17.452l8.315,14.4a1.817,1.817,0,0,0,.163,3.547l-4.839,8.386-2.983,5.165a1.817,1.817,0,0,0-2.444,1.133h-16.217a1.32,1.32,0,0,0-1.2-.777c-.024,0-.044.012-.067.013l-8.405-14.556A1.818,1.818,0,0,0,1297.061,91.6ZM1304,74.336a1.816,1.816,0,0,0-.035,2.618l-7.886,13.658a1.821,1.821,0,0,0-2.482,1.294h-15.687a1.8,1.8,0,0,0-2.2-1.38l-7.864-13.618a1.814,1.814,0,0,0-.053-2.553l8.681-15.032h17.22a1.79,1.79,0,0,0,2.243,1.043Zm-56.51,1.754h17.258a1.823,1.823,0,0,0,1.768,1.4,1.858,1.858,0,0,0,.456-.064l7.854,13.6a1.81,1.81,0,0,0,.083,2.622l-8.3,14.371c-.033,0-.061-.019-.095-.019a1.312,1.312,0,0,0-1.163.722h-17.387a1.821,1.821,0,0,0-1.268-1.161l-8.75-15.152L1247,76.719A1.3,1.3,0,0,0,1247.487,76.09Zm57.588,68.264a1.266,1.266,0,0,0,.173.035,1.308,1.308,0,0,0,1.256-.982h16.1a1.825,1.825,0,0,0,1.79,1.482,1.8,1.8,0,0,0,.8-.193l7.844,13.585a1.307,1.307,0,0,0-1.123,1.284,1.322,1.322,0,0,0,1.285,1.317l-8.248,14.283a1.789,1.789,0,0,0-.56-.1,1.818,1.818,0,0,0-1.6.971h-15.941a1.819,1.819,0,0,0-1.6-.971,1.72,1.72,0,0,0-.176.018l-8.871-15.364Zm78.06-36.319a1.258,1.258,0,0,0-.192-.039,1.32,1.32,0,0,0-1.2.777h-16.881a1.817,1.817,0,0,0-1.724-1.276l-8.685-15.041,8.647-14.973a1.808,1.808,0,0,0,1.784-1.343h16.3a1.785,1.785,0,0,0,2.249,1.267l8.691,15.049Zm-48.071-82.344h18.063a1.826,1.826,0,0,0,1.458,1.736l2.225,3.853,5.245,9.084a1.812,1.812,0,0,0,.146,3.031L1354.4,56.9a1.816,1.816,0,0,0-1.246,1.42h-18.117a1.822,1.822,0,0,0-1.074-1.364l-8.109-14.041a1.785,1.785,0,0,0,.108-2.01l7.815-13.532A1.818,1.818,0,0,0,1335.064,25.691Zm-29.9-16.019c.031,0,.056.018.087.018a1.327,1.327,0,0,0,1.221-.813h16.184a1.813,1.813,0,0,0,2.469,1.16l7.963,13.793a1.815,1.815,0,0,0-.457,3.519l-1.958,3.392-5.464,9.462a1.808,1.808,0,0,0-2.6,1.3h-16.1a1.307,1.307,0,0,0-1.259-1,1.378,1.378,0,0,0-.181.036l-8.1-14.027a1.8,1.8,0,0,0-.289-2.152Zm-29.035,17.792a1.823,1.823,0,0,0,1.82-1.773h15.609a1.825,1.825,0,0,0,1.821,1.773,1.789,1.789,0,0,0,.849-.22l7.976,13.812a1.3,1.3,0,0,0-.278.775,1.32,1.32,0,0,0,.388.936l-8.2,14.2a1.819,1.819,0,0,0-2.523,1.3H1276.5l-9-15.578a1.309,1.309,0,0,0,.338-.862,1.284,1.284,0,0,0-.245-.725l7.941-13.751A1.785,1.785,0,0,0,1276.126,27.464ZM1247.363,8.877h18.84l8.837,15.3a1.8,1.8,0,0,0-.332,2.593l-7.958,13.781a1.234,1.234,0,0,0-.236-.048,1.307,1.307,0,0,0-1.25.95h-17.229a1.824,1.824,0,0,0-1.486-1.42l-7.81-13.524a1.8,1.8,0,0,0-.307-2.168Zm-29.48,18.086a1.326,1.326,0,0,0,1.325-1.324h16.113a1.829,1.829,0,0,0,1.825,1.825,1.8,1.8,0,0,0,.831-.209l7.474,12.942a1.816,1.816,0,0,0,.134,3.329l-7.531,13.05-.216.373a1.821,1.821,0,0,0-2.48,1.323h-15.687a1.824,1.824,0,0,0-1.789-1.461,1.849,1.849,0,0,0-.449.062l-7.967-13.8a1.8,1.8,0,0,0,.085-2.389l7.968-13.8A1.266,1.266,0,0,0,1217.883,26.963Zm-29.551-16.784c.033,0,.064.01.1.01a1.82,1.82,0,0,0,1.758-1.361h16.194a1.786,1.786,0,0,0,2.3,1.269l8.384,14.523a1.245,1.245,0,0,0-.34,1.628l-8,13.862a1.792,1.792,0,0,0-.583-.1,1.826,1.826,0,0,0-1.786,1.45h-16.138a1.826,1.826,0,0,0-1.786-1.45c-.049,0-.095.01-.143.014l-7.625-13.2a1.81,1.81,0,0,0-.378-2.7Zm-28.343,15.46h17.462a1.8,1.8,0,0,0,2.369,1.733l7.511,13.009a1.815,1.815,0,0,0,.1,2.976l-7.79,13.491a1.778,1.778,0,0,0-.367-.037,1.824,1.824,0,0,0-1.787,1.461h-17.5l-6.764-11.713-2.656-4.6ZM1130.12,10.108a1.786,1.786,0,0,0,2.267-1.28h15.973a1.3,1.3,0,0,0,1.766.745l8.987,15.566-9.422,16.317h-17.812a1.308,1.308,0,0,0-1.249-.95,1.28,1.28,0,0,0-.283.057l-8.887-15.39c0-.016-.009-.03-.014-.046ZM1072.6,8.828h17.877a1.318,1.318,0,0,0,1.23.862,1.3,1.3,0,0,0,.206-.042l8.458,14.649a1.793,1.793,0,0,0-.335,2.269l-8.6,14.89h-16.6a1.819,1.819,0,0,0-2.851-1.1l-8.8-15.23Zm-9.7,48.316a1.307,1.307,0,0,0-1.28,1.1h-18.147l-9.42-16.316,8.382-14.518a1.823,1.823,0,0,0,1.417-1.776l0-.022H1062.3l9.029,15.636a1.76,1.76,0,0,0,.048,1.3l-8.429,14.6C1062.93,57.152,1062.917,57.144,1062.9,57.144Zm28.958,17.221a1.231,1.231,0,0,0-.149-.03,1.316,1.316,0,0,0-1.186.755H1072.6l-8.973-15.542a1.279,1.279,0,0,0,.242-1.968l8.2-14.211a1.811,1.811,0,0,0,2.682-.911h16.684l8.782,15.211a1.794,1.794,0,0,0,.088,2.057Zm11.695-16.093a1.815,1.815,0,0,0-2.562-1.284l-8.68-15.032,8.482-14.688a1.811,1.811,0,0,0,2.631-1.629h14.453a1.821,1.821,0,0,0,3.3,1.063l8.341,14.446a1.207,1.207,0,0,0,.076,1.479l-9.034,15.645Zm46.773,15.719a1.812,1.812,0,0,0-2.462,1.1h-15.511a1.787,1.787,0,0,0-2.188-1.19l-8.729-15.124,9.038-15.651a1.326,1.326,0,0,0,.155.031,1.309,1.309,0,0,0,1.146-.7h17.917l9.422,16.316Zm37.029,3.137-8,13.859c-.026,0-.049-.015-.076-.015a1.31,1.31,0,0,0-1.246.934h-18.048l-8.837-15.3a1.8,1.8,0,0,0-.037-1.956l8.877-15.372h17.587a1.825,1.825,0,0,0,1.7,1.187,1.681,1.681,0,0,0,.215-.022l7.916,13.707a1.818,1.818,0,0,0-.052,2.982Zm20.589-2.038h-17.791a1.818,1.818,0,0,0-1.725-1.256c-.012,0-.023,0-.035,0l-7.967-13.8a1.807,1.807,0,0,0,.1-2.724l7.889-13.662h.008a1.821,1.821,0,0,0,1.708-1.2h16.294a1.821,1.821,0,0,0,1.708,1.2,1.8,1.8,0,0,0,.462-.066l7.963,13.79a1.807,1.807,0,0,0,.1,2.607Zm.872.5,8.756-15.164a1.783,1.783,0,0,0,.311.032,1.822,1.822,0,0,0,1.7-1.187h15.856a1.786,1.786,0,0,0,2.261,1.091l4.59,7.948,3.526,6.108a1.313,1.313,0,0,0-.075,2.462l-8.675,15.023h-17.406a1.824,1.824,0,0,0-1.782-1.434,1.769,1.769,0,0,0-.44.06Zm28.329,48.319a1.818,1.818,0,0,0-1.805,1.629h-17.1l-8.7-15.064a1.8,1.8,0,0,0-.065-2.392l8.08-14a1.893,1.893,0,0,0,.33.033,1.822,1.822,0,0,0,1.712-1.214h17.481l8.5,14.72a1.819,1.819,0,0,0-.09,3.345l-7.572,13.113A1.808,1.808,0,0,0,1237.146,123.912Zm1.335,3.061a1.8,1.8,0,0,0,.2-2.21l7.882-13.649a1.823,1.823,0,0,0,1.459-1.39h17.244a1.31,1.31,0,0,0,1.242.922,1.2,1.2,0,0,0,.171-.035l8.057,13.952a1.795,1.795,0,0,0,.244,2.585l-8.154,14.123a1.852,1.852,0,0,0-.317-.032,1.824,1.824,0,0,0-1.682,1.117h-16.9a1.821,1.821,0,0,0-1.166-1.034Zm27.986,48.6a1.3,1.3,0,0,0-.948.464h-16.626a1.8,1.8,0,0,0-2.416-1.532l-8.228-14.253a1.281,1.281,0,0,0,.223-.69,1.317,1.317,0,0,0-.124-.546l8.174-14.158a1.816,1.816,0,0,0,1.517-1.454h16.684a1.825,1.825,0,0,0,1.79,1.482,1.782,1.782,0,0,0,.5-.078l8.611,14.911Zm1.178,1.963a1.281,1.281,0,0,0,.193-.646,1.313,1.313,0,0,0-.417-.957l9.073-15.712h18.834l8.8,15.238a1.8,1.8,0,0,0-.262,2.608l-7.889,13.662a1.8,1.8,0,0,0-2.32,1.124h-15.5a1.794,1.794,0,0,0-2.32-1.125Zm36.21,34.18-7.937,13.745a1.291,1.291,0,0,0-1.833,1.026h-15.838a1.8,1.8,0,0,0-2.6-1.461l-7.707-13.349a1.8,1.8,0,0,0-.277-2.533l8.089-14.012a1.816,1.816,0,0,0,2.463-1.277H1293.6a1.73,1.73,0,0,0,.087.288,1.824,1.824,0,0,0,2.377.99l8.072,13.978a1.8,1.8,0,0,0-.283,2.6Zm21.087-2.9a1.778,1.778,0,0,0-2.134.85h-15.973a1.818,1.818,0,0,0-1.588-.942c-.055,0-.107.011-.161.016L1296.86,194.5a1.775,1.775,0,0,0-.061-2.181l7.907-13.693a1.8,1.8,0,0,0,.541.092,1.819,1.819,0,0,0,1.81-1.677h15.529a1.822,1.822,0,0,0,1.81,1.677,1.8,1.8,0,0,0,.886-.239l7.61,13.178a1.821,1.821,0,0,0-.09,3.555Zm36.864,1.733a1.312,1.312,0,0,0,.422.958l-7.733,13.391a1.814,1.814,0,0,0-1.356,1.586H1334.75l-8.73-15.118a1.781,1.781,0,0,0-.236-1.99l8.258-14.3a1.817,1.817,0,0,0,.976-1.223h18.563l8.964,15.523A1.313,1.313,0,0,0,1361.806,210.554Zm21.429-1.8a1.876,1.876,0,0,0-.292-.029,1.818,1.818,0,0,0-1.588.942H1364.1a1.307,1.307,0,0,0-.408-.305l-6.017-10.42-2.443-4.231a1.295,1.295,0,0,0-.094-2.553l5.212-9.028,2.848-4.931a1.3,1.3,0,0,0,1.224-1.162h16.707a1.806,1.806,0,0,0,2.469,1.549l7.87,13.629a1.8,1.8,0,0,0-.061,2.381Zm34.366-4.915,3.019,5.229a1.807,1.807,0,0,0-.289,2.7l-7.877,13.641a1.292,1.292,0,0,0-.923,1.074H1394.1a1.309,1.309,0,0,0-1.289-1.148,1.288,1.288,0,0,0-.426.086l-7.973-13.806a1.8,1.8,0,0,0-.271-2.429l8.1-14.021a1.793,1.793,0,0,0,2.346-1.313h16.456a1.819,1.819,0,0,0,1.6,1.4Zm3.655-27.3-8.727,15.112a1.817,1.817,0,0,0-1.428,1.205h-16.567a1.82,1.82,0,0,0-1.719-1.234,1.79,1.79,0,0,0-.483.073l-7.925-13.723a1.8,1.8,0,0,0-.25-2.432l8.208-14.214a1.788,1.788,0,0,0,2.147-1.1H1411.7a1.3,1.3,0,0,0,.371.4Zm-1.293-35.874.826,1.431a1.277,1.277,0,0,0-.111,1.81l-8.333,14.43a1.306,1.306,0,0,0-.781.886h-16.958a1.825,1.825,0,0,0-1.791-1.483,1.789,1.789,0,0,0-.6.111l-7.869-13.626a1.808,1.808,0,0,0-.106-2.449l8.229-14.249a1.773,1.773,0,0,0,.352.036,1.819,1.819,0,0,0,1.6-.971h16.8a1.82,1.82,0,0,0,1.14.9Zm-.814-35.043,1.341,2.323a1.805,1.805,0,0,0-.037,2.72l-7.65,13.249a1.817,1.817,0,0,0-1.793,1.675h-16.385a1.815,1.815,0,0,0-2.509-1.537l-8.09-14.01a1.2,1.2,0,0,0-.031-1.487l9.006-15.6h18.122a1.822,1.822,0,0,0,1.366,1.129Zm-1.932-36.979,3.263,5.651a1.8,1.8,0,0,0-.017,2.72l-7.779,13.471a1.818,1.818,0,0,0-1.655,1.471H1393L1384.3,76.875a1.8,1.8,0,0,0-.014-2.448l8.1-14.025a1.791,1.791,0,0,0,.436.059,1.826,1.826,0,0,0,1.687-1.136h16.629a1.83,1.83,0,0,0,1.34,1.1Zm2.773-28.832.415.718a1.8,1.8,0,0,0,.136,2.719L1412.7,56.823a1.816,1.816,0,0,0-1.675,1.5h-16.419a1.8,1.8,0,0,0-2.412-1.4l-8.24-14.27a1.217,1.217,0,0,0,.11-1.488L1393,25.691h18a1.825,1.825,0,0,0,1.821,1.773c.013,0,.024,0,.037,0Z" transform="translate(0.104 -0.037)" fill="#fff" opacity="0.08"/>
</svg>
