<svg xmlns="http://www.w3.org/2000/svg" xmlns:xlink="http://www.w3.org/1999/xlink" width="420" height="234" viewBox="0 0 420 234">
  <defs>
    <clipPath id="clip-path">
      <rect id="Rectangle_2079" data-name="Rectangle 2079" width="420" height="234" transform="translate(6768 538)" fill="#fff"/>
    </clipPath>
  </defs>
  <g id="Mask_Group_7" data-name="Mask Group 7" transform="translate(-6768 -538)" clip-path="url(#clip-path)">
    <g id="Group_10407" data-name="Group 10407" transform="translate(6766.832 502.017)" opacity="0.079">
      <g id="Group_10406" data-name="Group 10406" transform="translate(0)" style="mix-blend-mode: overlay;isolation: isolate">
        <g id="Group_10405" data-name="Group 10405" transform="translate(0 1.985)" style="mix-blend-mode: overlay;isolation: isolate">
          <path id="Path_58970" data-name="Path 58970" d="M680.6,460.452h20.387l10.194-17.317-10.194-17.318H680.6l-10.194,17.318Zm19.8-1H681.19l-9.6-16.316,9.6-16.317H700.4l9.6,16.317Z" transform="translate(-373.438 -173.517)" fill="#fff"/>
          <path id="Path_58971" data-name="Path 58971" d="M738.785,426.858h20.388l10.193-17.318-10.193-17.317H738.785l-10.193,17.317Zm19.8-1H739.375l-9.6-16.317,9.6-16.315h19.209l9.6,16.315Z" transform="translate(-461.319 -156.741)" fill="#fff"/>
          <path id="Path_58972" data-name="Path 58972" d="M564.229,326.076h20.387l10.194-17.317-10.194-17.318H564.229l-10.194,17.318Zm19.8-1H564.818l-9.6-16.316,9.6-16.317h19.209l9.6,16.317Z" transform="translate(-197.672 -106.408)" fill="#fff"/>
          <path id="Path_58973" data-name="Path 58973" d="M622.414,426.858H642.8L653,409.541,642.8,392.224H622.414l-10.193,17.317Zm19.8-1H623l-9.6-16.317,9.6-16.315h19.209l9.6,16.315Z" transform="translate(-285.554 -156.741)" fill="#fff"/>
          <path id="Path_58974" data-name="Path 58974" d="M564.228,460.452h20.387l10.194-17.317-10.194-17.318H564.228l-10.194,17.318Zm19.8-1H564.817l-9.6-16.316,9.6-16.317h19.209l9.6,16.317Z" transform="translate(-197.67 -173.517)" fill="#fff"/>
          <path id="Path_58975" data-name="Path 58975" d="M564.228,393.264h20.387l10.194-17.317L584.615,358.63H564.228l-10.194,17.317Zm19.8-1H564.817l-9.6-16.316,9.6-16.316h19.209l9.6,16.316Z" transform="translate(-197.67 -139.963)" fill="#fff"/>
          <path id="Path_58976" data-name="Path 58976" d="M564.229,258.888h20.387l10.194-17.317-10.194-17.317H564.229l-10.194,17.317Zm19.8-1H564.818l-9.6-16.316,9.6-16.316h19.209l9.6,16.316Z" transform="translate(-197.672 -72.854)" fill="#fff"/>
          <path id="Path_58977" data-name="Path 58977" d="M506.042,359.67H526.43l10.193-17.317L526.43,325.036H506.042l-10.193,17.317Zm19.8-1H506.632l-9.6-16.316,9.6-16.316h19.209l9.6,16.316Z" transform="translate(-109.788 -123.186)" fill="#fff"/>
          <path id="Path_58978" data-name="Path 58978" d="M506.041,494.046h20.388l10.193-17.317-10.193-17.317H506.041l-10.193,17.317Zm19.8-1H506.631l-9.6-16.316,9.6-16.316H525.84l9.6,16.316Z" transform="translate(-109.786 -190.295)" fill="#fff"/>
          <path id="Path_58979" data-name="Path 58979" d="M506.041,426.858h20.388l10.193-17.318-10.193-17.317H506.041l-10.193,17.317Zm19.8-1H506.631l-9.6-16.317,9.6-16.315H525.84l9.6,16.315Z" transform="translate(-109.786 -156.741)" fill="#fff"/>
          <path id="Path_58980" data-name="Path 58980" d="M506.042,292.482H526.43l10.193-17.318L526.43,257.848H506.042l-10.193,17.317Zm19.8-1H506.632l-9.6-16.317,9.6-16.316h19.209l9.6,16.316Z" transform="translate(-109.788 -89.631)" fill="#fff"/>
          <path id="Path_58981" data-name="Path 58981" d="M1262.456-10.014h20.388l10.193-17.317-10.193-17.317h-20.388l-10.193,17.317Zm19.8-1h-19.209l-9.6-16.316,9.6-16.316h19.209l9.6,16.316Z" transform="translate(-1252.262 61.44)" fill="#fff"/>
          <path id="Path_58982" data-name="Path 58982" d="M1262.455,57.173h20.388l10.194-17.317-10.194-17.317h-20.388l-10.193,17.317Zm19.8-1h-19.209l-9.6-16.316,9.6-16.316h19.209l9.6,16.316Z" transform="translate(-1252.261 27.886)" fill="#fff"/>
          <path id="Path_58983" data-name="Path 58983" d="M564.229,326.076h20.387l10.194-17.317-10.194-17.318H564.229l-10.194,17.318Zm19.8-1H564.818l-9.6-16.316,9.6-16.317h19.209l9.6,16.317Z" transform="translate(-197.672 -106.408)" fill="#fff"/>
          <path id="Path_58984" data-name="Path 58984" d="M564.228,460.452h20.387l10.194-17.317-10.194-17.318H564.228l-10.194,17.318Zm19.8-1H564.817l-9.6-16.316,9.6-16.317h19.209l9.6,16.317Z" transform="translate(-197.67 -173.517)" fill="#fff"/>
          <path id="Path_58985" data-name="Path 58985" d="M564.228,393.264h20.387l10.194-17.317L584.615,358.63H564.228l-10.194,17.317Zm19.8-1H564.817l-9.6-16.316,9.6-16.316h19.209l9.6,16.316Z" transform="translate(-197.67 -139.963)" fill="#fff"/>
          <path id="Path_58986" data-name="Path 58986" d="M564.229,258.888h20.387l10.194-17.317-10.194-17.317H564.229l-10.194,17.317Zm19.8-1H564.818l-9.6-16.316,9.6-16.316h19.209l9.6,16.316Z" transform="translate(-197.672 -72.854)" fill="#fff"/>
          <path id="Path_58987" data-name="Path 58987" d="M680.6,258.888h20.387l10.194-17.317-10.194-17.317H680.6l-10.194,17.317Zm19.8-1H681.19l-9.6-16.316,9.6-16.316H700.4l9.6,16.316Z" transform="translate(-373.438 -72.854)" fill="#fff"/>
          <path id="Path_58988" data-name="Path 58988" d="M622.414,292.482H642.8L653,275.165,642.8,257.848H622.414l-10.193,17.317Zm19.8-1H623l-9.6-16.317,9.6-16.316h19.209l9.6,16.316Z" transform="translate(-285.554 -89.631)" fill="#fff"/>
          <path id="Path_58989" data-name="Path 58989" d="M622.414,359.67H642.8L653,342.353,642.8,325.036H622.414l-10.193,17.317Zm19.8-1H623l-9.6-16.316,9.6-16.316h19.209l9.6,16.316Z" transform="translate(-285.554 -123.186)" fill="#fff"/>
          <path id="Path_58990" data-name="Path 58990" d="M738.785,359.67h20.388l10.193-17.317-10.193-17.317H738.785l-10.193,17.317Zm19.8-1H739.375l-9.6-16.316,9.6-16.316h19.209l9.6,16.316Z" transform="translate(-461.319 -123.186)" fill="#fff"/>
          <path id="Path_58991" data-name="Path 58991" d="M680.6,393.264h20.387l10.194-17.317L700.986,358.63H680.6l-10.194,17.317Zm19.8-1H681.188l-9.6-16.316,9.6-16.316H700.4l9.6,16.316Z" transform="translate(-373.435 -139.963)" fill="#fff"/>
          <path id="Path_58992" data-name="Path 58992" d="M680.6,326.076h20.387l10.194-17.317-10.194-17.318H680.6l-10.194,17.318Zm19.8-1H681.188l-9.6-16.316,9.6-16.317H700.4l9.6,16.317Z" transform="translate(-373.435 -106.408)" fill="#fff"/>
          <path id="Path_58993" data-name="Path 58993" d="M738.785,292.482h20.388l10.193-17.318-10.193-17.317H738.785l-10.193,17.317Zm19.8-1H739.375l-9.6-16.317,9.6-16.316h19.209l9.6,16.316Z" transform="translate(-461.319 -89.631)" fill="#fff"/>
          <path id="Path_58994" data-name="Path 58994" d="M855.157,292.482h20.388l10.193-17.318-10.193-17.317H855.157l-10.194,17.317Zm19.8-1H855.746l-9.6-16.317,9.6-16.316h19.209l9.6,16.316Z" transform="translate(-637.084 -89.631)" fill="#fff"/>
          <path id="Path_58995" data-name="Path 58995" d="M796.97,326.076h20.387l10.194-17.317-10.194-17.318H796.97l-10.194,17.318Zm19.8-1H797.559l-9.6-16.316,9.6-16.317h19.209l9.6,16.317Z" transform="translate(-549.2 -106.408)" fill="#fff"/>
          <path id="Path_58996" data-name="Path 58996" d="M796.97,258.888h20.387l10.194-17.317-10.194-17.317H796.97l-10.194,17.317Zm19.8-1H797.559l-9.6-16.316,9.6-16.316h19.209l9.6,16.316Z" transform="translate(-549.2 -72.854)" fill="#fff"/>
          <path id="Path_58997" data-name="Path 58997" d="M796.97,393.264h20.387l10.194-17.317L817.357,358.63H796.97l-10.194,17.317Zm19.8-1H797.559l-9.6-16.316,9.6-16.316h19.209l9.6,16.316Z" transform="translate(-549.2 -139.963)" fill="#fff"/>
          <path id="Path_58998" data-name="Path 58998" d="M796.97,124.41h20.387l10.194-17.317L817.357,89.776H796.97l-10.194,17.317Zm19.8-1H797.559l-9.6-16.316,9.6-16.316h19.209l9.6,16.316Z" transform="translate(-549.2 -5.693)" fill="#fff"/>
          <path id="Path_58999" data-name="Path 58999" d="M913.342,124.41h20.387l10.193-17.317L933.729,89.776H913.342l-10.194,17.317Zm19.8-1H913.931l-9.6-16.316,9.6-16.316H933.14l9.6,16.316Z" transform="translate(-724.966 -5.693)" fill="#fff"/>
          <path id="Path_59000" data-name="Path 59000" d="M855.155,158h20.387l10.194-17.318L875.543,123.37H855.155l-10.193,17.317Zm19.8-1H855.744l-9.6-16.317,9.6-16.316h19.209l9.6,16.316Z" transform="translate(-637.082 -22.471)" fill="#fff"/>
          <path id="Path_59001" data-name="Path 59001" d="M855.155,90.817h20.387L885.737,73.5,875.543,56.183H855.155L844.962,73.5Zm19.8-1H855.744L846.14,73.5l9.6-16.316h19.209l9.6,16.316Z" transform="translate(-637.082 11.084)" fill="#fff"/>
          <path id="Path_59002" data-name="Path 59002" d="M855.155,225.193h20.387l10.194-17.317-10.194-17.317H855.155l-10.193,17.317Zm19.8-1H855.744l-9.6-16.316,9.6-16.316h19.209l9.6,16.316Z" transform="translate(-637.082 -56.026)" fill="#fff"/>
          <path id="Path_59003" data-name="Path 59003" d="M913.34,191.6h20.387l10.194-17.317-10.194-17.318H913.34l-10.194,17.318Zm19.8-1H913.929l-9.6-16.316,9.6-16.317h19.209l9.6,16.317Z" transform="translate(-724.963 -39.248)" fill="#fff"/>
          <path id="Path_59004" data-name="Path 59004" d="M913.342,57.222h20.387l10.193-17.317L933.729,22.588H913.342L903.148,39.906Zm19.8-1H913.931l-9.6-16.316,9.6-16.317H933.14l9.6,16.317Z" transform="translate(-724.966 27.861)" fill="#fff"/>
          <path id="Path_59005" data-name="Path 59005" d="M1029.714,57.222H1050.1l10.193-17.317L1050.1,22.588h-20.388L1019.52,39.906Zm19.8-1H1030.3L1020.7,39.906l9.605-16.317h19.209l9.6,16.317Z" transform="translate(-900.732 27.861)" fill="#fff"/>
          <path id="Path_59006" data-name="Path 59006" d="M971.527,90.817h20.387L1002.108,73.5,991.914,56.183H971.527L961.333,73.5Zm19.8-1H972.116l-9.6-16.316,9.6-16.316h19.209l9.6,16.316Z" transform="translate(-812.848 11.084)" fill="#fff"/>
          <path id="Path_59007" data-name="Path 59007" d="M971.527,23.629h20.387l10.194-17.318L991.914-11.006H971.527L961.333,6.311Zm19.8-1H972.116l-9.6-16.317L972.116-10h19.209l9.6,16.316Z" transform="translate(-812.848 44.639)" fill="#fff"/>
          <path id="Path_59008" data-name="Path 59008" d="M1029.712,124.41H1050.1l10.193-17.317L1050.1,89.776h-20.387l-10.194,17.317Zm19.8-1H1030.3l-9.6-16.316,9.6-16.316h19.209l9.6,16.316Z" transform="translate(-900.729 -5.693)" fill="#fff"/>
          <path id="Path_59009" data-name="Path 59009" d="M1087.9,90.817h20.387L1118.479,73.5l-10.194-17.317H1087.9L1077.7,73.5Zm19.8-1h-19.209l-9.6-16.316,9.6-16.316H1107.7l9.6,16.316Z" transform="translate(-988.613 11.084)" fill="#fff"/>
          <path id="Path_59010" data-name="Path 59010" d="M1204.269,90.817h20.387L1234.85,73.5l-10.194-17.317h-20.387L1194.075,73.5Zm19.8-1h-19.209l-9.6-16.316,9.6-16.316h19.209l9.6,16.316Z" transform="translate(-1164.378 11.084)" fill="#fff"/>
          <path id="Path_59011" data-name="Path 59011" d="M1146.083,57.222h20.388l10.193-17.317L1166.47,22.588h-20.388l-10.193,17.318Zm19.8-1h-19.209l-9.6-16.316,9.6-16.317h19.209l9.6,16.317Z" transform="translate(-1076.494 27.861)" fill="#fff"/>
          <path id="Path_59012" data-name="Path 59012" d="M1204.269,23.629h20.387L1234.85,6.311l-10.194-17.317h-20.387L1194.075,6.311Zm19.8-1h-19.209l-9.6-16.317,9.6-16.316h19.209l9.6,16.316Z" transform="translate(-1164.378 44.639)" fill="#fff"/>
          <path id="Path_59013" data-name="Path 59013" d="M855.155-43.559h20.387l10.194-17.317L875.543-78.193H855.155L844.962-60.876Zm19.8-1H855.744l-9.6-16.316,9.6-16.316h19.209l9.6,16.316Z" transform="translate(-637.082 78.193)" fill="#fff"/>
          <path id="Path_59014" data-name="Path 59014" d="M971.527-43.559h20.387l10.194-17.317L991.914-78.193H971.527L961.333-60.876Zm19.8-1H972.116l-9.6-16.316,9.6-16.316h19.209l9.6,16.316Z" transform="translate(-812.848 78.193)" fill="#fff"/>
          <path id="Path_59015" data-name="Path 59015" d="M913.34-9.966h20.387l10.194-17.317L933.727-44.6H913.34L903.146-27.283Zm19.8-1H913.929l-9.6-16.316,9.6-16.316h19.209l9.6,16.316Z" transform="translate(-724.963 61.416)" fill="#fff"/>
          <path id="Path_59016" data-name="Path 59016" d="M1029.712-9.966H1050.1l10.193-17.317L1050.1-44.6h-20.387l-10.194,17.317Zm19.8-1H1030.3l-9.6-16.316,9.6-16.316h19.209l9.6,16.316Z" transform="translate(-900.729 61.416)" fill="#fff"/>
          <path id="Path_59017" data-name="Path 59017" d="M1146.083-9.966h20.388l10.193-17.317L1166.47-44.6h-20.388l-10.193,17.317Zm19.8-1h-19.209l-9.6-16.316,9.6-16.316h19.209l9.6,16.316Z" transform="translate(-1076.494 61.416)" fill="#fff"/>
          <path id="Path_59018" data-name="Path 59018" d="M1087.9,23.629h20.387l10.194-17.318-10.194-17.317H1087.9L1077.7,6.311Zm19.8-1h-19.209l-9.6-16.317,9.6-16.316h19.209l9.6,16.316Z" transform="translate(-988.61 44.639)" fill="#fff"/>
          <path id="Path_59019" data-name="Path 59019" d="M1087.9-43.559h20.387l10.194-17.317-10.194-17.317H1087.9L1077.7-60.876Zm19.8-1h-19.209l-9.6-16.316,9.6-16.316h19.209l9.6,16.316Z" transform="translate(-988.61 78.193)" fill="#fff"/>
          <path id="Path_59020" data-name="Path 59020" d="M1204.268-43.559h20.387l10.194-17.317-10.194-17.317h-20.387l-10.194,17.317Zm19.8-1h-19.209l-9.6-16.316,9.6-16.316h19.209l9.6,16.316Z" transform="translate(-1164.376 78.193)" fill="#fff"/>
          <path id="Path_59021" data-name="Path 59021" d="M506.041,225.294h20.388l10.193-17.317L526.429,190.66H506.041l-10.193,17.317Zm19.8-1H506.631l-9.6-16.316,9.6-16.316H525.84l9.6,16.316Z" transform="translate(-109.786 -56.076)" fill="#fff"/>
          <path id="Path_59022" data-name="Path 59022" d="M506.041,158.106h20.388l10.193-17.318-10.193-17.317H506.041l-10.193,17.317Zm19.8-1H506.631l-9.6-16.317,9.6-16.316H525.84l9.6,16.316Z" transform="translate(-109.786 -22.522)" fill="#fff"/>
          <path id="Path_59023" data-name="Path 59023" d="M622.412,158.106H642.8l10.193-17.318L642.8,123.472H622.412l-10.193,17.317Zm19.8-1H623l-9.6-16.317,9.6-16.316h19.209l9.6,16.316Z" transform="translate(-285.551 -22.522)" fill="#fff"/>
          <path id="Path_59024" data-name="Path 59024" d="M564.226,191.7h20.387l10.194-17.317-10.194-17.318H564.226l-10.194,17.318Zm19.8-1H564.815l-9.6-16.316,9.6-16.317h19.209l9.6,16.317Z" transform="translate(-197.667 -39.298)" fill="#fff"/>
          <path id="Path_59025" data-name="Path 59025" d="M564.226,124.512h20.387L594.807,107.2,584.613,89.878H564.226L554.032,107.2Zm19.8-1H564.815l-9.6-16.316,9.6-16.316h19.209l9.6,16.316Z" transform="translate(-197.667 -5.744)" fill="#fff"/>
          <path id="Path_59026" data-name="Path 59026" d="M622.41,225.294H642.8l10.193-17.317L642.8,190.66H622.41l-10.193,17.317Zm19.8-1H623l-9.6-16.316,9.6-16.316h19.209l9.6,16.316Z" transform="translate(-285.548 -56.076)" fill="#fff"/>
          <path id="Path_59027" data-name="Path 59027" d="M622.412,90.918H642.8L652.994,73.6,642.8,56.284H622.412L612.219,73.6Zm19.8-1H623L613.4,73.6,623,57.285h19.209l9.6,16.316Z" transform="translate(-285.551 11.033)" fill="#fff"/>
          <path id="Path_59028" data-name="Path 59028" d="M738.783,90.918h20.388L769.365,73.6,759.171,56.284H738.783L728.59,73.6Zm19.8-1H739.373l-9.6-16.316,9.6-16.316h19.209l9.6,16.316Z" transform="translate(-461.316 11.033)" fill="#fff"/>
          <path id="Path_59029" data-name="Path 59029" d="M680.6,124.512h20.387L711.178,107.2,700.984,89.878H680.6L670.4,107.2Zm19.8-1H681.186l-9.6-16.316,9.6-16.316H700.4L710,107.2Z" transform="translate(-373.432 -5.744)" fill="#fff"/>
          <path id="Path_59030" data-name="Path 59030" d="M680.6,57.324h20.387l10.194-17.317L700.984,22.69H680.6L670.4,40.007Zm19.8-1H681.186l-9.6-16.316,9.6-16.316H700.4L710,40.007Z" transform="translate(-373.432 27.81)" fill="#fff"/>
          <path id="Path_59031" data-name="Path 59031" d="M680.6,191.7h20.387l10.194-17.317-10.194-17.318H680.6L670.4,174.383Zm19.8-1H681.186l-9.6-16.316,9.6-16.317H700.4l9.6,16.317Z" transform="translate(-373.432 -39.298)" fill="#fff"/>
          <path id="Path_59032" data-name="Path 59032" d="M796.969,191.7h20.387l10.194-17.317-10.194-17.318H796.969l-10.194,17.318Zm19.8-1H797.558l-9.6-16.316,9.6-16.317h19.209l9.6,16.317Z" transform="translate(-549.198 -39.298)" fill="#fff"/>
          <path id="Path_59033" data-name="Path 59033" d="M738.782,225.294H759.17l10.193-17.317L759.17,190.66H738.782l-10.193,17.317Zm19.8-1H739.372l-9.6-16.316,9.6-16.316h19.209l9.6,16.316Z" transform="translate(-461.315 -56.076)" fill="#fff"/>
          <path id="Path_59034" data-name="Path 59034" d="M738.782,158.106H759.17l10.193-17.318L759.17,123.472H738.782l-10.193,17.317Zm19.8-1H739.372l-9.6-16.317,9.6-16.316h19.209l9.6,16.316Z" transform="translate(-461.315 -22.522)" fill="#fff"/>
          <path id="Path_59035" data-name="Path 59035" d="M506.041-43.458h20.388l10.193-17.317L526.429-78.092H506.041L495.848-60.775Zm19.8-1H506.631l-9.6-16.316,9.6-16.316H525.84l9.6,16.316Z" transform="translate(-109.786 78.143)" fill="#fff"/>
          <path id="Path_59036" data-name="Path 59036" d="M564.226,57.324h20.387l10.194-17.317L584.613,22.69H564.226L554.032,40.007Zm19.8-1H564.815l-9.6-16.316,9.6-16.316h19.209l9.6,16.316Z" transform="translate(-197.667 27.81)" fill="#fff"/>
          <path id="Path_59037" data-name="Path 59037" d="M506.039,90.918h20.388L536.621,73.6,526.427,56.284H506.039L495.846,73.6Zm19.8-1H506.629l-9.6-16.316,9.6-16.316h19.209l9.6,16.316Z" transform="translate(-109.783 11.033)" fill="#fff"/>
          <path id="Path_59038" data-name="Path 59038" d="M506.039,23.73h20.388L536.621,6.413,526.427-10.9H506.039L495.846,6.413Zm19.8-1H506.629l-9.6-16.316,9.6-16.316h19.209l9.6,16.316Z" transform="translate(-109.783 44.588)" fill="#fff"/>
          <path id="Path_59039" data-name="Path 59039" d="M564.226-9.864h20.387l10.194-17.317L584.613-44.5H564.226L554.032-27.181Zm19.8-1H564.815l-9.6-16.316,9.6-16.316h19.209l9.6,16.316Z" transform="translate(-197.667 61.365)" fill="#fff"/>
          <path id="Path_59040" data-name="Path 59040" d="M680.6-9.864h20.387l10.194-17.317L700.984-44.5H680.6L670.4-27.181Zm19.8-1H681.186l-9.6-16.316,9.6-16.316H700.4L710-27.181Z" transform="translate(-373.432 61.365)" fill="#fff"/>
          <path id="Path_59041" data-name="Path 59041" d="M622.41,23.73H642.8L652.992,6.413,642.8-10.9H622.41L612.217,6.413Zm19.8-1H623L613.4,6.413,623-9.9h19.209l9.6,16.316Z" transform="translate(-285.548 44.588)" fill="#fff"/>
          <path id="Path_59042" data-name="Path 59042" d="M622.41-43.458H642.8l10.193-17.317L642.8-78.092H622.41L612.217-60.775Zm19.8-1H623l-9.6-16.316L623-77.091h19.209l9.6,16.316Z" transform="translate(-285.548 78.143)" fill="#fff"/>
          <path id="Path_59043" data-name="Path 59043" d="M738.782-43.458H759.17l10.193-17.317L759.17-78.092H738.782L728.589-60.775Zm19.8-1H739.372l-9.6-16.316,9.6-16.316h19.209l9.6,16.316Z" transform="translate(-461.315 78.143)" fill="#fff"/>
          <path id="Path_59044" data-name="Path 59044" d="M738.782,23.73H759.17L769.364,6.413,759.17-10.9H738.782L728.589,6.413Zm19.8-1H739.372l-9.6-16.316,9.6-16.316h19.209l9.6,16.316Z" transform="translate(-461.315 44.588)" fill="#fff"/>
          <path id="Path_59045" data-name="Path 59045" d="M855.154,23.73h20.387L885.735,6.413,875.541-10.9H855.154L844.96,6.413Zm19.8-1H855.743l-9.6-16.316,9.6-16.316h19.209l9.6,16.316Z" transform="translate(-637.08 44.588)" fill="#fff"/>
          <path id="Path_59046" data-name="Path 59046" d="M796.967,57.324h20.387l10.194-17.317L817.354,22.69H796.967L786.773,40.007Zm19.8-1H797.556l-9.6-16.316,9.6-16.316h19.209l9.6,16.316Z" transform="translate(-549.195 27.81)" fill="#fff"/>
          <path id="Path_59047" data-name="Path 59047" d="M796.967-9.864h20.387l10.194-17.317L817.354-44.5H796.967L786.773-27.181Zm19.8-1H797.556l-9.6-16.316,9.6-16.316h19.209l9.6,16.316Z" transform="translate(-549.195 61.365)" fill="#fff"/>
        </g>
        <path id="Path_59048" data-name="Path 59048" d="M631.094,259.168a1.825,1.825,0,1,0-1.861-1.825A1.845,1.845,0,0,0,631.094,259.168Z" transform="translate(-274.197 -86.483)" fill="#fff"/>
        <path id="Path_59049" data-name="Path 59049" d="M631.094,326.746a1.825,1.825,0,1,0-1.861-1.826A1.846,1.846,0,0,0,631.094,326.746Z" transform="translate(-274.197 -120.232)" fill="#fff"/>
        <path id="Path_59050" data-name="Path 59050" d="M553.714,393.99a1.826,1.826,0,1,0-1.861-1.826A1.846,1.846,0,0,0,553.714,393.99Z" transform="translate(-157.323 -153.815)" fill="#fff"/>
        <path id="Path_59051" data-name="Path 59051" d="M631.094,393.99a1.826,1.826,0,1,0-1.861-1.826A1.846,1.846,0,0,0,631.094,393.99Z" transform="translate(-274.197 -153.815)" fill="#fff"/>
        <path id="Path_59052" data-name="Path 59052" d="M1.831-.013A1.813,1.813,0,0,1,3.649,1.83,1.874,1.874,0,0,1,1.805,3.7,1.813,1.813,0,0,1-.013,1.856,1.874,1.874,0,0,1,1.831-.013Z" transform="translate(395.392 72.015) rotate(-112.689)" fill="#fff"/>
        <ellipse id="Ellipse_968" data-name="Ellipse 968" cx="1.861" cy="1.825" rx="1.861" ry="1.825" transform="translate(355.036 34.335)" fill="#fff"/>
        <path id="Path_59053" data-name="Path 59053" d="M1.831-.013A1.813,1.813,0,0,1,3.649,1.83,1.874,1.874,0,0,1,1.805,3.7,1.813,1.813,0,0,1-.013,1.856,1.874,1.874,0,0,1,1.831-.013Z" transform="translate(395.392 105.844) rotate(-112.689)" fill="#fff"/>
        <ellipse id="Ellipse_969" data-name="Ellipse 969" cx="1.861" cy="1.825" rx="1.861" ry="1.825" transform="translate(355.036 101.63)" fill="#fff"/>
        <path id="Path_59054" data-name="Path 59054" d="M553.714,191.76a1.826,1.826,0,1,0-1.861-1.825A1.845,1.845,0,0,0,553.714,191.76Z" transform="translate(-157.323 -52.818)" fill="#fff"/>
        <path id="Path_59055" data-name="Path 59055" d="M512.718,326.746a1.825,1.825,0,1,0-1.861-1.826A1.846,1.846,0,0,0,512.718,326.746Z" transform="translate(-95.403 -120.232)" fill="#fff"/>
        <path id="Path_59056" data-name="Path 59056" d="M512.718,393.99a1.826,1.826,0,1,0-1.861-1.826A1.846,1.846,0,0,0,512.718,393.99Z" transform="translate(-95.403 -153.815)" fill="#fff"/>
        <ellipse id="Ellipse_970" data-name="Ellipse 970" cx="1.861" cy="1.825" rx="1.861" ry="1.825" transform="translate(415.453 67.802)" fill="#fff"/>
        <ellipse id="Ellipse_971" data-name="Ellipse 971" cx="1.861" cy="1.825" rx="1.861" ry="1.825" transform="translate(326.492 252.636)" fill="#fff"/>
        <ellipse id="Ellipse_972" data-name="Ellipse 972" cx="1.861" cy="1.825" rx="1.861" ry="1.825" transform="translate(424.109 219.418)" fill="#fff"/>
        <ellipse id="Ellipse_973" data-name="Ellipse 973" cx="1.861" cy="1.825" rx="1.861" ry="1.825" transform="translate(385.498 219.418)" fill="#fff"/>
        <ellipse id="Ellipse_974" data-name="Ellipse 974" cx="1.861" cy="1.825" rx="1.861" ry="1.825" transform="translate(365.102 219.418)" fill="#fff"/>
        <ellipse id="Ellipse_975" data-name="Ellipse 975" cx="1.861" cy="1.825" rx="1.861" ry="1.825" transform="translate(304.364 219.418)" fill="#fff"/>
        <path id="Path_59057" data-name="Path 59057" d="M1.831-.013A1.813,1.813,0,0,1,3.649,1.831,1.874,1.874,0,0,1,1.805,3.7,1.813,1.813,0,0,1-.013,1.856,1.874,1.874,0,0,1,1.831-.013Z" transform="translate(266.608 223.628) rotate(-112.5)" fill="#fff"/>
        <ellipse id="Ellipse_976" data-name="Ellipse 976" cx="1.861" cy="1.825" rx="1.861" ry="1.825" transform="translate(246.449 252.636)" fill="#fff"/>
        <ellipse id="Ellipse_977" data-name="Ellipse 977" cx="1.861" cy="1.825" rx="1.861" ry="1.825" transform="translate(246.449 219.418)" fill="#fff"/>
        <ellipse id="Ellipse_978" data-name="Ellipse 978" cx="1.861" cy="1.825" rx="1.861" ry="1.825" transform="translate(424.109 185.535)" fill="#fff"/>
        <ellipse id="Ellipse_979" data-name="Ellipse 979" cx="1.861" cy="1.825" rx="1.861" ry="1.825" transform="translate(365.102 185.535)" fill="#fff"/>
        <ellipse id="Ellipse_980" data-name="Ellipse 980" cx="1.861" cy="1.825" rx="1.861" ry="1.825" transform="translate(326.492 185.535)" fill="#fff"/>
        <path id="Path_59058" data-name="Path 59058" d="M495.76,224.553a1.826,1.826,0,1,0-1.861-1.826A1.846,1.846,0,0,0,495.76,224.553Z" transform="translate(-69.79 -69.195)" fill="#fff"/>
        <path id="Path_59059" data-name="Path 59059" d="M571.411,224.553a1.826,1.826,0,1,0-1.861-1.826A1.845,1.845,0,0,0,571.411,224.553Z" transform="translate(-184.052 -69.195)" fill="#fff"/>
        <path id="Path_59060" data-name="Path 59060" d="M611.373,224.553a1.826,1.826,0,1,0-1.861-1.826A1.845,1.845,0,0,0,611.373,224.553Z" transform="translate(-244.41 -69.195)" fill="#fff"/>
        <path id="Path_59061" data-name="Path 59061" d="M687.022,224.553a1.826,1.826,0,1,0-1.861-1.826A1.846,1.846,0,0,0,687.022,224.553Z" transform="translate(-358.669 -69.195)" fill="#fff"/>
        <path id="Path_59062" data-name="Path 59062" d="M806.026,224.553a1.826,1.826,0,1,0-1.861-1.826A1.846,1.846,0,0,0,806.026,224.553Z" transform="translate(-538.411 -69.195)" fill="#fff"/>
        <ellipse id="Ellipse_981" data-name="Ellipse 981" cx="1.861" cy="1.825" rx="1.861" ry="1.825" transform="translate(424.109 118.267)" fill="#fff"/>
        <ellipse id="Ellipse_982" data-name="Ellipse 982" cx="1.861" cy="1.825" rx="1.861" ry="1.825" transform="translate(385.498 118.267)" fill="#fff"/>
        <ellipse id="Ellipse_983" data-name="Ellipse 983" cx="1.861" cy="1.825" rx="1.861" ry="1.825" transform="translate(304.364 118.267)" fill="#fff"/>
        <path id="Path_59063" data-name="Path 59063" d="M1.831-.013A1.813,1.813,0,0,1,3.649,1.831,1.874,1.874,0,0,1,1.805,3.7,1.813,1.813,0,0,1-.013,1.856,1.874,1.874,0,0,1,1.831-.013Z" transform="translate(266.608 122.477) rotate(-112.5)" fill="#fff"/>
        <path id="Path_59064" data-name="Path 59064" d="M495.76,90.507a1.826,1.826,0,1,0-1.861-1.826A1.846,1.846,0,0,0,495.76,90.507Z" transform="translate(-69.79 -2.25)" fill="#fff"/>
        <path id="Path_59065" data-name="Path 59065" d="M571.411,90.507a1.826,1.826,0,1,0-1.861-1.826A1.845,1.845,0,0,0,571.411,90.507Z" transform="translate(-184.052 -2.25)" fill="#fff"/>
        <path id="Path_59066" data-name="Path 59066" d="M611.373,90.507a1.826,1.826,0,1,0-1.861-1.826A1.845,1.845,0,0,0,611.373,90.507Z" transform="translate(-244.41 -2.25)" fill="#fff"/>
        <path id="Path_59067" data-name="Path 59067" d="M687.022,90.507a1.826,1.826,0,1,0-1.861-1.826A1.846,1.846,0,0,0,687.022,90.507Z" transform="translate(-358.669 -2.25)" fill="#fff"/>
        <path id="Path_59068" data-name="Path 59068" d="M730.377,90.507a1.826,1.826,0,1,0-1.861-1.826A1.845,1.845,0,0,0,730.377,90.507Z" transform="translate(-424.152 -2.25)" fill="#fff"/>
        <path id="Path_59069" data-name="Path 59069" d="M806.026,90.507a1.826,1.826,0,1,0-1.861-1.826A1.846,1.846,0,0,0,806.026,90.507Z" transform="translate(-538.411 -2.25)" fill="#fff"/>
        <path id="Path_59070" data-name="Path 59070" d="M571.411,24.59a1.826,1.826,0,1,0-1.861-1.826A1.845,1.845,0,0,0,571.411,24.59Z" transform="translate(-184.052 30.67)" fill="#fff"/>
        <path id="Path_59071" data-name="Path 59071" d="M687.022,24.59a1.826,1.826,0,1,0-1.861-1.826A1.846,1.846,0,0,0,687.022,24.59Z" transform="translate(-358.669 30.67)" fill="#fff"/>
        <path id="Path_59072" data-name="Path 59072" d="M730.377,24.59a1.826,1.826,0,1,0-1.861-1.826A1.845,1.845,0,0,0,730.377,24.59Z" transform="translate(-424.152 30.67)" fill="#fff"/>
        <path id="Path_59073" data-name="Path 59073" d="M806.026,24.59a1.826,1.826,0,1,0-1.861-1.826A1.846,1.846,0,0,0,806.026,24.59Z" transform="translate(-538.411 30.67)" fill="#fff"/>
        <ellipse id="Ellipse_984" data-name="Ellipse 984" cx="1.861" cy="1.825" rx="1.861" ry="1.825" transform="translate(355.036 270.353)" fill="#fff"/>
        <path id="Path_59074" data-name="Path 59074" d="M670.672,259.168a1.825,1.825,0,1,0-1.861-1.825A1.845,1.845,0,0,0,670.672,259.168Z" transform="translate(-333.975 -86.483)" fill="#fff"/>
        <path id="Path_59075" data-name="Path 59075" d="M748.052,259.168a1.825,1.825,0,1,0-1.861-1.825A1.845,1.845,0,0,0,748.052,259.168Z" transform="translate(-450.848 -86.483)" fill="#fff"/>
        <path id="Path_59076" data-name="Path 59076" d="M748.052,326.746a1.825,1.825,0,1,0-1.861-1.826A1.846,1.846,0,0,0,748.052,326.746Z" transform="translate(-450.848 -120.232)" fill="#fff"/>
        <path id="Path_59077" data-name="Path 59077" d="M748.052,393.99a1.826,1.826,0,1,0-1.861-1.826A1.846,1.846,0,0,0,748.052,393.99Z" transform="translate(-450.848 -153.815)" fill="#fff"/>
        <path id="Path_59078" data-name="Path 59078" d="M1.831-.013A1.813,1.813,0,0,1,3.649,1.83,1.874,1.874,0,0,1,1.805,3.7,1.813,1.813,0,0,1-.013,1.856,1.874,1.874,0,0,1,1.831-.013Z" transform="matrix(-0.385, -0.923, 0.923, -0.385, 335.697, 72.015)" fill="#fff"/>
        <ellipse id="Ellipse_985" data-name="Ellipse 985" cx="1.861" cy="1.825" rx="1.861" ry="1.825" transform="translate(295.343 67.802)" fill="#fff"/>
        <path id="Path_59079" data-name="Path 59079" d="M1.837-.017a1.8,1.8,0,0,1,1.82,1.833A1.884,1.884,0,0,1,1.8,3.683,1.8,1.8,0,0,1-.017,1.85,1.884,1.884,0,0,1,1.837-.017Z" transform="matrix(-0.56, -0.828, 0.828, -0.56, 336.199, 38.695)" fill="#fff"/>
        <ellipse id="Ellipse_986" data-name="Ellipse 986" cx="1.861" cy="1.825" rx="1.861" ry="1.825" transform="translate(295.343 34.335)" fill="#fff"/>
        <path id="Path_59080" data-name="Path 59080" d="M1.831-.013A1.813,1.813,0,0,1,3.649,1.83,1.874,1.874,0,0,1,1.805,3.7,1.813,1.813,0,0,1-.013,1.856,1.874,1.874,0,0,1,1.831-.013Z" transform="matrix(-0.385, -0.923, 0.923, -0.385, 335.697, 105.843)" fill="#fff"/>
        <path id="Path_59081" data-name="Path 59081" d="M670.672,191.76a1.826,1.826,0,1,0-1.861-1.825A1.845,1.845,0,0,0,670.672,191.76Z" transform="translate(-333.975 -52.818)" fill="#fff"/>
        <path id="Path_59082" data-name="Path 59082" d="M748.052,191.76a1.826,1.826,0,1,0-1.861-1.825A1.845,1.845,0,0,0,748.052,191.76Z" transform="translate(-450.848 -52.818)" fill="#fff"/>
        <path id="Path_59083" data-name="Path 59083" d="M1.831-.013A1.813,1.813,0,0,1,3.649,1.83,1.874,1.874,0,0,1,1.805,3.7,1.813,1.813,0,0,1-.013,1.856,1.874,1.874,0,0,1,1.831-.013Z" transform="matrix(-0.385, -0.923, 0.923, -0.385, 335.697, 274.566)" fill="#fff"/>
        <path id="Path_59084" data-name="Path 59084" d="M863.683,259.168a1.825,1.825,0,1,0-1.861-1.825A1.845,1.845,0,0,0,863.683,259.168Z" transform="translate(-625.495 -86.483)" fill="#fff"/>
        <path id="Path_59085" data-name="Path 59085" d="M786.3,326.746a1.825,1.825,0,1,0-1.861-1.826A1.846,1.846,0,0,0,786.3,326.746Z" transform="translate(-508.623 -120.232)" fill="#fff"/>
        <path id="Path_59086" data-name="Path 59086" d="M786.3,393.99a1.826,1.826,0,1,0-1.861-1.826A1.846,1.846,0,0,0,786.3,393.99Z" transform="translate(-508.623 -153.815)" fill="#fff"/>
        <path id="Path_59087" data-name="Path 59087" d="M863.683,393.99a1.826,1.826,0,1,0-1.861-1.826A1.846,1.846,0,0,0,863.683,393.99Z" transform="translate(-625.495 -153.815)" fill="#fff"/>
        <path id="Path_59088" data-name="Path 59088" d="M786.3,124.516a1.826,1.826,0,1,0-1.861-1.825A1.845,1.845,0,0,0,786.3,124.516Z" transform="translate(-508.623 -19.235)" fill="#fff"/>
        <path id="Path_59089" data-name="Path 59089" d="M863.683,124.516a1.826,1.826,0,1,0-1.861-1.825A1.845,1.845,0,0,0,863.683,124.516Z" transform="translate(-625.495 -19.235)" fill="#fff"/>
        <ellipse id="Ellipse_987" data-name="Ellipse 987" cx="1.861" cy="1.825" rx="1.861" ry="1.825" transform="translate(176.81 67.802)" fill="#fff"/>
        <ellipse id="Ellipse_988" data-name="Ellipse 988" cx="1.861" cy="1.825" rx="1.861" ry="1.825" transform="translate(176.81 34.335)" fill="#fff"/>
        <path id="Path_59090" data-name="Path 59090" d="M980.3,191.76a1.826,1.826,0,1,0-1.861-1.825A1.845,1.845,0,0,0,980.3,191.76Z" transform="translate(-801.624 -52.818)" fill="#fff"/>
        <path id="Path_59091" data-name="Path 59091" d="M922.34,224.553a1.826,1.826,0,1,0-1.861-1.826A1.846,1.846,0,0,0,922.34,224.553Z" transform="translate(-714.09 -69.195)" fill="#fff"/>
        <path id="Path_59092" data-name="Path 59092" d="M922.34,90.507a1.826,1.826,0,1,0-1.861-1.826A1.846,1.846,0,0,0,922.34,90.507Z" transform="translate(-714.09 -2.25)" fill="#fff"/>
        <path id="Path_59093" data-name="Path 59093" d="M1037.952,90.507a1.826,1.826,0,1,0-1.861-1.826A1.846,1.846,0,0,0,1037.952,90.507Z" transform="translate(-888.708 -2.25)" fill="#fff"/>
        <path id="Path_59094" data-name="Path 59094" d="M922.34,24.59a1.826,1.826,0,1,0-1.861-1.826A1.846,1.846,0,0,0,922.34,24.59Z" transform="translate(-714.09 30.67)" fill="#fff"/>
        <ellipse id="Ellipse_989" data-name="Ellipse 989" cx="1.861" cy="1.825" rx="1.861" ry="1.825" transform="translate(385.498 17.311)" fill="#fff"/>
        <ellipse id="Ellipse_990" data-name="Ellipse 990" cx="1.861" cy="1.825" rx="1.861" ry="1.825" transform="translate(365.102 17.311)" fill="#fff"/>
        <path id="Path_59095" data-name="Path 59095" d="M727.943-43.926a1.845,1.845,0,0,0,1.861-1.825,1.846,1.846,0,0,0-1.861-1.826,1.845,1.845,0,0,0-1.861,1.826A1.845,1.845,0,0,0,727.943-43.926Z" transform="translate(-420.476 64.888)" fill="#fff"/>
        <path id="Path_59096" data-name="Path 59096" d="M1.831-.013A1.813,1.813,0,0,1,3.649,1.83,1.874,1.874,0,0,1,1.805,3.7,1.813,1.813,0,0,1-.013,1.856,1.874,1.874,0,0,1,1.831-.013Z" transform="matrix(-0.385, -0.923, 0.923, -0.385, 207.248, 21.523)" fill="#fff"/>
        <path id="Path_59097" data-name="Path 59097" d="M960.829,157.751a1.826,1.826,0,1,0-1.861-1.825A1.845,1.845,0,0,0,960.829,157.751Z" transform="translate(-772.223 -35.833)" fill="#fff"/>
        <path id="Path_59098" data-name="Path 59098" d="M960.829,90.507a1.826,1.826,0,1,0-1.861-1.826A1.845,1.845,0,0,0,960.829,90.507Z" transform="translate(-772.223 -2.25)" fill="#fff"/>
        <path id="Path_59099" data-name="Path 59099" d="M960.829-43.926a1.845,1.845,0,0,0,1.861-1.825,1.845,1.845,0,0,0-1.861-1.826,1.846,1.846,0,0,0-1.861,1.826A1.845,1.845,0,0,0,960.829-43.926Z" transform="translate(-772.223 64.888)" fill="#fff"/>
        <path id="Path_59100" data-name="Path 59100" d="M844.479,224.553a1.826,1.826,0,1,0-1.861-1.826A1.846,1.846,0,0,0,844.479,224.553Z" transform="translate(-596.49 -69.195)" fill="#fff"/>
        <path id="Path_59101" data-name="Path 59101" d="M844.479,157.751a1.826,1.826,0,1,0-1.861-1.825A1.846,1.846,0,0,0,844.479,157.751Z" transform="translate(-596.49 -35.833)" fill="#fff"/>
        <path id="Path_59102" data-name="Path 59102" d="M844.479,24.59a1.826,1.826,0,1,0-1.861-1.826A1.846,1.846,0,0,0,844.479,24.59Z" transform="translate(-596.49 30.67)" fill="#fff"/>
        <path id="Path_59103" data-name="Path 59103" d="M1035.63-43.926a1.845,1.845,0,0,0,1.861-1.825,1.845,1.845,0,0,0-1.861-1.826,1.845,1.845,0,0,0-1.861,1.826A1.845,1.845,0,0,0,1035.63-43.926Z" transform="translate(-885.201 64.888)" fill="#fff"/>
        <ellipse id="Ellipse_991" data-name="Ellipse 991" cx="1.861" cy="1.825" rx="1.861" ry="1.825" transform="translate(126.441 17.311)" fill="#fff"/>
        <ellipse id="Ellipse_992" data-name="Ellipse 992" cx="1.861" cy="1.825" rx="1.861" ry="1.825" transform="translate(87.83 17.311)" fill="#fff"/>
        <path id="Path_59104" data-name="Path 59104" d="M1192.792,90.507a1.826,1.826,0,1,0-1.861-1.826A1.845,1.845,0,0,0,1192.792,90.507Z" transform="translate(-1122.575 -2.25)" fill="#fff"/>
        <ellipse id="Ellipse_993" data-name="Ellipse 993" cx="1.861" cy="1.825" rx="1.861" ry="1.825" transform="translate(67.848 17.311)" fill="#fff"/>
        <ellipse id="Ellipse_994" data-name="Ellipse 994" cx="1.861" cy="1.825" rx="1.861" ry="1.825" transform="translate(28.465 17.311)" fill="#fff"/>
        <path id="Path_59105" data-name="Path 59105" d="M1037.952,24.59a1.826,1.826,0,1,0-1.861-1.826A1.846,1.846,0,0,0,1037.952,24.59Z" transform="translate(-888.708 30.67)" fill="#fff"/>
        <path id="Path_59106" data-name="Path 59106" d="M1156.957,24.59a1.826,1.826,0,1,0-1.861-1.826A1.845,1.845,0,0,0,1156.957,24.59Z" transform="translate(-1068.452 30.67)" fill="#fff"/>
        <path id="Path_59107" data-name="Path 59107" d="M1193.123,24.59a1.826,1.826,0,1,0-1.861-1.826A1.845,1.845,0,0,0,1193.123,24.59Z" transform="translate(-1123.076 30.67)" fill="#fff"/>
        <path id="Path_59108" data-name="Path 59108" d="M1312.128,24.59a1.826,1.826,0,1,0-1.861-1.826A1.845,1.845,0,0,0,1312.128,24.59Z" transform="translate(-1302.818 30.67)" fill="#fff"/>
        <ellipse id="Ellipse_995" data-name="Ellipse 995" cx="1.861" cy="1.825" rx="1.861" ry="1.825" transform="translate(117.117 101.63)" fill="#fff"/>
        <path id="Path_59109" data-name="Path 59109" d="M1.831-.013A1.813,1.813,0,0,1,3.649,1.83,1.874,1.874,0,0,1,1.805,3.7,1.813,1.813,0,0,1-.013,1.856,1.874,1.874,0,0,1,1.831-.013Z" transform="translate(395.392 4.776) rotate(-112.689)" fill="#fff"/>
        <ellipse id="Ellipse_996" data-name="Ellipse 996" cx="1.861" cy="1.825" rx="1.861" ry="1.825" transform="translate(355.036 0.563)" fill="#fff"/>
        <path id="Path_59110" data-name="Path 59110" d="M1.831-.013A1.813,1.813,0,0,1,3.649,1.83,1.874,1.874,0,0,1,1.805,3.7,1.813,1.813,0,0,1-.013,1.856,1.874,1.874,0,0,1,1.831-.013Z" transform="matrix(-0.385, -0.923, 0.923, -0.385, 335.697, 4.776)" fill="#fff"/>
        <ellipse id="Ellipse_997" data-name="Ellipse 997" cx="1.861" cy="1.825" rx="1.861" ry="1.825" transform="translate(295.343 0.563)" fill="#fff"/>
        <path id="Path_59111" data-name="Path 59111" d="M786.3-77.382a1.846,1.846,0,0,0,1.861-1.826,1.845,1.845,0,0,0-1.861-1.825,1.845,1.845,0,0,0-1.861,1.825A1.845,1.845,0,0,0,786.3-77.382Z" transform="translate(-508.623 81.596)" fill="#fff"/>
        <path id="Path_59112" data-name="Path 59112" d="M863.683-77.382a1.846,1.846,0,0,0,1.861-1.826,1.845,1.845,0,0,0-1.861-1.825,1.845,1.845,0,0,0-1.861,1.825A1.846,1.846,0,0,0,863.683-77.382Z" transform="translate(-625.495 81.596)" fill="#fff"/>
        <path id="Path_59113" data-name="Path 59113" d="M904.164,259.168a1.825,1.825,0,1,0-1.861-1.825A1.845,1.845,0,0,0,904.164,259.168Z" transform="translate(-686.636 -86.483)" fill="#fff"/>
        <path id="Path_59114" data-name="Path 59114" d="M902.49,325.405a1.825,1.825,0,1,0-1.861-1.826A1.846,1.846,0,0,0,902.49,325.405Z" transform="translate(-684.109 -119.563)" fill="#fff"/>
        <path id="Path_59115" data-name="Path 59115" d="M904.164,56.938a1.826,1.826,0,1,0-1.861-1.825A1.845,1.845,0,0,0,904.164,56.938Z" transform="translate(-686.636 14.514)" fill="#fff"/>
        <path id="Path_59116" data-name="Path 59116" d="M904.164,191.76a1.826,1.826,0,1,0-1.861-1.825A1.845,1.845,0,0,0,904.164,191.76Z" transform="translate(-686.636 -52.818)" fill="#fff"/>
        <path id="Path_59117" data-name="Path 59117" d="M904.164-77.382a1.845,1.845,0,0,0,1.861-1.826,1.845,1.845,0,0,0-1.861-1.825,1.845,1.845,0,0,0-1.861,1.825A1.846,1.846,0,0,0,904.164-77.382Z" transform="translate(-686.636 81.596)" fill="#fff"/>
        <ellipse id="Ellipse_998" data-name="Ellipse 998" cx="1.861" cy="1.825" rx="1.861" ry="1.825" transform="translate(176.81 0.563)" fill="#fff"/>
        <ellipse id="Ellipse_999" data-name="Ellipse 999" cx="1.861" cy="1.825" rx="1.861" ry="1.825" transform="translate(156.715 67.802)" fill="#fff"/>
        <ellipse id="Ellipse_1000" data-name="Ellipse 1000" cx="1.861" cy="1.825" rx="1.861" ry="1.825" transform="translate(156.715 34.335)" fill="#fff"/>
        <ellipse id="Ellipse_1001" data-name="Ellipse 1001" cx="1.861" cy="1.825" rx="1.861" ry="1.825" transform="translate(156.715 101.63)" fill="#fff"/>
        <ellipse id="Ellipse_1002" data-name="Ellipse 1002" cx="1.861" cy="1.825" rx="1.861" ry="1.825" transform="translate(156.715 0.563)" fill="#fff"/>
        <ellipse id="Ellipse_1003" data-name="Ellipse 1003" cx="1.861" cy="1.825" rx="1.861" ry="1.825" transform="translate(97.783 34.335)" fill="#fff"/>
        <ellipse id="Ellipse_1004" data-name="Ellipse 1004" cx="1.861" cy="1.825" rx="1.861" ry="1.825" transform="translate(97.783 101.63)" fill="#fff"/>
        <ellipse id="Ellipse_1005" data-name="Ellipse 1005" cx="1.861" cy="1.825" rx="1.861" ry="1.825" transform="translate(97.783 0.563)" fill="#fff"/>
        <ellipse id="Ellipse_1006" data-name="Ellipse 1006" cx="1.861" cy="1.825" rx="1.861" ry="1.825" transform="translate(39.077 67.802)" fill="#fff"/>
        <ellipse id="Ellipse_1007" data-name="Ellipse 1007" cx="1.861" cy="1.825" rx="1.861" ry="1.825" transform="translate(117.117 0.563)" fill="#fff"/>
        <path id="Path_59118" data-name="Path 59118" d="M1212.883-77.382a1.846,1.846,0,0,0,1.861-1.826,1.845,1.845,0,0,0-1.861-1.825,1.845,1.845,0,0,0-1.861,1.825A1.845,1.845,0,0,0,1212.883-77.382Z" transform="translate(-1152.921 81.596)" fill="#fff"/>
        <path id="Path_59119" data-name="Path 59119" d="M554.2,259.167a1.325,1.325,0,1,0-1.351-1.325A1.34,1.34,0,0,0,554.2,259.167Z" transform="translate(-157.813 -86.982)" fill="#fff"/>
        <ellipse id="Ellipse_1008" data-name="Ellipse 1008" cx="1.351" cy="1.325" rx="1.351" ry="1.325" transform="translate(355.547 68.302)" fill="#fff"/>
        <path id="Path_59120" data-name="Path 59120" d="M1.327-.008a1.319,1.319,0,0,1,1.32,1.34A1.357,1.357,0,0,1,1.312,2.689a1.319,1.319,0,0,1-1.32-1.34A1.357,1.357,0,0,1,1.327-.008Z" transform="matrix(-0.314, -0.949, 0.949, -0.314, 395.532, 37.834)" fill="#fff"/>
        <ellipse id="Ellipse_1009" data-name="Ellipse 1009" cx="1.351" cy="1.325" rx="1.351" ry="1.325" transform="translate(415.964 102.131)" fill="#fff"/>
        <path id="Path_59121" data-name="Path 59121" d="M513.207,191.759a1.325,1.325,0,1,0-1.35-1.325A1.34,1.34,0,0,0,513.207,191.759Z" transform="translate(-95.893 -53.317)" fill="#fff"/>
        <path id="Path_59122" data-name="Path 59122" d="M631.583,191.759a1.325,1.325,0,1,0-1.35-1.325A1.34,1.34,0,0,0,631.583,191.759Z" transform="translate(-274.686 -53.317)" fill="#fff"/>
        <ellipse id="Ellipse_1010" data-name="Ellipse 1010" cx="1.351" cy="1.325" rx="1.351" ry="1.325" transform="translate(424.619 253.137)" fill="#fff"/>
        <ellipse id="Ellipse_1011" data-name="Ellipse 1011" cx="1.351" cy="1.325" rx="1.351" ry="1.325" transform="translate(386.008 253.137)" fill="#fff"/>
        <ellipse id="Ellipse_1012" data-name="Ellipse 1012" cx="1.351" cy="1.325" rx="1.351" ry="1.325" transform="translate(365.612 253.137)" fill="#fff"/>
        <ellipse id="Ellipse_1013" data-name="Ellipse 1013" cx="1.351" cy="1.325" rx="1.351" ry="1.325" transform="translate(304.875 253.137)" fill="#fff"/>
        <path id="Path_59123" data-name="Path 59123" d="M806.516,426.175a1.325,1.325,0,1,0-1.351-1.325A1.339,1.339,0,0,0,806.516,426.175Z" transform="translate(-538.901 -170.388)" fill="#fff"/>
        <ellipse id="Ellipse_1014" data-name="Ellipse 1014" cx="1.351" cy="1.325" rx="1.351" ry="1.325" transform="translate(327.002 219.919)" fill="#fff"/>
        <ellipse id="Ellipse_1015" data-name="Ellipse 1015" cx="1.351" cy="1.325" rx="1.351" ry="1.325" transform="translate(386.008 186.036)" fill="#fff"/>
        <ellipse id="Ellipse_1016" data-name="Ellipse 1016" cx="1.351" cy="1.325" rx="1.351" ry="1.325" transform="translate(304.875 186.036)" fill="#fff"/>
        <ellipse id="Ellipse_1017" data-name="Ellipse 1017" cx="1.351" cy="1.325" rx="1.351" ry="1.325" transform="translate(304.875 152.208)" fill="#fff"/>
        <path id="Path_59124" data-name="Path 59124" d="M496.25,24.589a1.325,1.325,0,1,0-1.351-1.325A1.34,1.34,0,0,0,496.25,24.589Z" transform="translate(-70.28 30.17)" fill="#fff"/>
        <path id="Path_59125" data-name="Path 59125" d="M671.161,326.745a1.325,1.325,0,1,0-1.35-1.325A1.34,1.34,0,0,0,671.161,326.745Z" transform="translate(-334.464 -120.732)" fill="#fff"/>
        <path id="Path_59126" data-name="Path 59126" d="M671.161,393.989a1.325,1.325,0,1,0-1.35-1.325A1.34,1.34,0,0,0,671.161,393.989Z" transform="translate(-334.464 -154.314)" fill="#fff"/>
        <path id="Path_59127" data-name="Path 59127" d="M786.793,259.167a1.325,1.325,0,1,0-1.35-1.325A1.34,1.34,0,0,0,786.793,259.167Z" transform="translate(-509.113 -86.982)" fill="#fff"/>
        <path id="Path_59128" data-name="Path 59128" d="M864.172,326.745a1.325,1.325,0,1,0-1.35-1.325A1.34,1.34,0,0,0,864.172,326.745Z" transform="translate(-625.985 -120.732)" fill="#fff"/>
        <path id="Path_59129" data-name="Path 59129" d="M786.793,56.937a1.325,1.325,0,1,0-1.35-1.325A1.34,1.34,0,0,0,786.793,56.937Z" transform="translate(-509.113 14.015)" fill="#fff"/>
        <path id="Path_59130" data-name="Path 59130" d="M864.172,56.937a1.325,1.325,0,1,0-1.35-1.325A1.34,1.34,0,0,0,864.172,56.937Z" transform="translate(-625.985 14.015)" fill="#fff"/>
        <path id="Path_59131" data-name="Path 59131" d="M786.793-9.917a1.34,1.34,0,0,0,1.351-1.325,1.34,1.34,0,0,0-1.351-1.325,1.339,1.339,0,0,0-1.35,1.325A1.339,1.339,0,0,0,786.793-9.917Z" transform="translate(-509.113 47.403)" fill="#fff"/>
        <path id="Path_59132" data-name="Path 59132" d="M786.793,191.759a1.325,1.325,0,1,0-1.35-1.325A1.34,1.34,0,0,0,786.793,191.759Z" transform="translate(-509.113 -53.317)" fill="#fff"/>
        <path id="Path_59133" data-name="Path 59133" d="M864.172,191.759a1.325,1.325,0,1,0-1.35-1.325A1.34,1.34,0,0,0,864.172,191.759Z" transform="translate(-625.985 -53.317)" fill="#fff"/>
        <path id="Path_59134" data-name="Path 59134" d="M786.793,461.567a1.325,1.325,0,1,0-1.35-1.325A1.34,1.34,0,0,0,786.793,461.567Z" transform="translate(-509.113 -188.063)" fill="#fff"/>
        <path id="Path_59135" data-name="Path 59135" d="M922.829,292.129a1.325,1.325,0,1,0-1.35-1.325A1.34,1.34,0,0,0,922.829,292.129Z" transform="translate(-714.579 -103.444)" fill="#fff"/>
        <ellipse id="Ellipse_1018" data-name="Ellipse 1018" cx="1.351" cy="1.325" rx="1.351" ry="1.325" transform="translate(147.893 118.768)" fill="#fff"/>
        <path id="Path_59136" data-name="Path 59136" d="M687.512-43.927a1.34,1.34,0,0,0,1.351-1.325,1.34,1.34,0,0,0-1.351-1.325,1.339,1.339,0,0,0-1.351,1.325A1.339,1.339,0,0,0,687.512-43.927Z" transform="translate(-359.159 64.388)" fill="#fff"/>
        <path id="Path_59137" data-name="Path 59137" d="M806.516-43.927a1.339,1.339,0,0,0,1.35-1.325,1.339,1.339,0,0,0-1.35-1.325,1.34,1.34,0,0,0-1.351,1.325A1.34,1.34,0,0,0,806.516-43.927Z" transform="translate(-538.901 64.388)" fill="#fff"/>
        <path id="Path_59138" data-name="Path 59138" d="M961.319,24.589a1.325,1.325,0,1,0-1.351-1.325A1.339,1.339,0,0,0,961.319,24.589Z" transform="translate(-772.713 30.17)" fill="#fff"/>
        <path id="Path_59139" data-name="Path 59139" d="M844.969-43.927a1.34,1.34,0,0,0,1.351-1.325,1.34,1.34,0,0,0-1.351-1.325,1.339,1.339,0,0,0-1.351,1.325A1.339,1.339,0,0,0,844.969-43.927Z" transform="translate(-596.979 64.388)" fill="#fff"/>
        <ellipse id="Ellipse_1019" data-name="Ellipse 1019" cx="1.351" cy="1.325" rx="1.351" ry="1.325" transform="translate(29.239 84.94)" fill="#fff"/>
        <ellipse id="Ellipse_1020" data-name="Ellipse 1020" cx="1.351" cy="1.325" rx="1.351" ry="1.325" transform="translate(117.627 34.836)" fill="#fff"/>
        <path id="Path_59140" data-name="Path 59140" d="M1213.372-9.917a1.34,1.34,0,0,0,1.351-1.325,1.34,1.34,0,0,0-1.351-1.325,1.339,1.339,0,0,0-1.35,1.325A1.339,1.339,0,0,0,1213.372-9.917Z" transform="translate(-1153.411 47.403)" fill="#fff"/>
        <path id="Path_59141" data-name="Path 59141" d="M904.653,124.515a1.325,1.325,0,1,0-1.351-1.325A1.339,1.339,0,0,0,904.653,124.515Z" transform="translate(-687.125 -19.734)" fill="#fff"/>
        <ellipse id="Ellipse_1021" data-name="Ellipse 1021" cx="1.351" cy="1.325" rx="1.351" ry="1.325" transform="translate(98.294 68.302)" fill="#fff"/>
        <ellipse id="Ellipse_1022" data-name="Ellipse 1022" cx="1.351" cy="1.325" rx="1.351" ry="1.325" transform="translate(39.588 1.063)" fill="#fff"/>
        <path id="Path_59142" data-name="Path 59142" d="M1213.372,124.515a1.325,1.325,0,1,0-1.35-1.325A1.34,1.34,0,0,0,1213.372,124.515Z" transform="translate(-1153.411 -19.734)" fill="#fff"/>
      </g>
    </g>
  </g>
</svg>
