<svg id="Layer_1" data-name="Layer 1" xmlns="http://www.w3.org/2000/svg" width="64" height="64" viewBox="0 0 64 64"><defs><style>.cls-1{fill:#1a7ddd;}.cls-2{fill:#f0f3f5;}</style></defs><g id="Group_13143" data-name="Group 13143"><path id="Path_60815" data-name="Path 60815" class="cls-1" d="M11.29,0H52.71A11.3,11.3,0,0,1,64,11.29V52.71A11.3,11.3,0,0,1,52.71,64H11.29A11.3,11.3,0,0,1,0,52.71V11.29A11.3,11.3,0,0,1,11.29,0Z"/></g><g id="Group_13194" data-name="Group 13194"><path id="Path_60804" data-name="Path 60804" class="cls-2" d="M12.36,32V17.25a2.74,2.74,0,0,1,2.54-2.93H44.83a2.74,2.74,0,0,1,3,2.51,2.94,2.94,0,0,1,0,.42V46.82a2.74,2.74,0,0,1-2.55,2.93H15.35a2.75,2.75,0,0,1-3-2.49,2.26,2.26,0,0,1,0-.52Zm9.52,2.73a2.72,2.72,0,1,0,.05-5.43A2.7,2.7,0,0,0,19.18,32v0a2.71,2.71,0,0,0,2.7,2.72Zm16.38-5.43A2.72,2.72,0,0,0,35.52,32v0A2.73,2.73,0,0,0,41,32v0a2.7,2.7,0,0,0-2.72-2.7ZM27.36,32a2.7,2.7,0,0,0,2.69,2.72h.05a2.72,2.72,0,0,0,0-5.43h0A2.69,2.69,0,0,0,27.36,32V32Z"/></g></svg>