<svg xmlns="http://www.w3.org/2000/svg" width="155.071" height="39.22" viewBox="0 0 155.071 39.22">
  <g id="Logo" transform="translate(0.5 0.5)">
    <path id="Path_17528" data-name="Path 17528" d="M444.169,328.452a2.5,2.5,0,1,0,2.355,2.354A2.5,2.5,0,0,0,444.169,328.452Z" transform="translate(-415.903 -310.504)" fill="#0078d7" stroke="rgba(0,0,0,0)" stroke-miterlimit="10" stroke-width="1"/>
    <path id="Path_17529" data-name="Path 17529" d="M435.013,310.5a19.11,19.11,0,1,0,19.11,19.111A19.109,19.109,0,0,0,435.013,310.5Zm-3.7,20.213c0,4.091-1.957,5.96-5.674,5.96-3.057,0-4.706-1.077-4.706-2.837a2.2,2.2,0,0,1,1.451-2.2,3.242,3.242,0,0,0,2.6,1.3c1.341,0,1.913-.6,1.913-2.288v-6.574c0-1.363.66-2.045,1.87-2.045h.637c1.255,0,1.914.682,1.914,2.045Zm5.736,3.717c0,1.517-.771,2.045-1.848,2.045h-.439c-1.144,0-1.936-.484-1.936-2.045V327.4c0-1.539.814-2.045,1.891-2.045h.44c1.144,0,1.892.462,1.892,2.045Zm-2.068-10.2c-1.407,0-2.287-.769-2.287-2a1.966,1.966,0,0,1,1.937-2,1.944,1.944,0,0,1,.285.016c1.407,0,2.287.748,2.287,1.98a1.97,1.97,0,0,1-1.924,2.015,2.046,2.046,0,0,1-.293-.015Zm9.162,12.448c-3.629,0-5.938-2.243-5.938-5.74,0-3.409,2.4-5.7,6-5.7,3.563,0,5.916,2.287,5.916,5.718.008,3.479-2.367,5.723-5.973,5.723Z" transform="translate(-415.903 -310.504)" fill="#0078d7" stroke="rgba(0,0,0,0)" stroke-miterlimit="10" stroke-width="1"/>
    <path id="Path_58963" data-name="Path 58963" d="M467.751,312.352a5.866,5.866,0,0,1,5.995,4.43h-3.385a2.783,2.783,0,0,0-2.646-1.62c-1.891,0-3.188,1.4-3.188,3.636s1.3,3.637,3.188,3.637a2.783,2.783,0,0,0,2.646-1.62h3.385a5.852,5.852,0,0,1-5.995,4.411,6.438,6.438,0,0,1,0-12.874Z" transform="translate(-415.902 -310.504)" fill="#0078d7" stroke="rgba(0,0,0,0)" stroke-miterlimit="10" stroke-width="1"/>
    <path id="Path_58964" data-name="Path 58964" d="M482.961,325.262a6.473,6.473,0,1,1,6.464-6.481A6.358,6.358,0,0,1,482.961,325.262Zm0-2.808c2.017,0,3.331-1.459,3.331-3.673,0-2.251-1.314-3.674-3.331-3.674-2.053,0-3.35,1.423-3.35,3.674C479.611,320.995,480.908,322.454,482.961,322.454Z" transform="translate(-415.902 -310.504)" fill="#0078d7" stroke="rgba(0,0,0,0)" stroke-miterlimit="10" stroke-width="1"/>
    <path id="Path_58965" data-name="Path 58965" d="M504.275,316.494h-3.4a2.646,2.646,0,0,0-2.484-1.3c-1.981,0-3.295,1.4-3.295,3.6,0,2.341,1.332,3.709,3.547,3.709a3.026,3.026,0,0,0,3.06-2.232h-3.906v-2.269h6.7v2.863a6.438,6.438,0,1,1-6.1-8.517C501.412,312.352,503.609,313.9,504.275,316.494Z" transform="translate(-415.902 -310.504)" fill="#0078d7" stroke="rgba(0,0,0,0)" stroke-miterlimit="10" stroke-width="1"/>
    <path id="Path_58966" data-name="Path 58966" d="M518.855,312.5v12.639h-3.079l-5.15-7.8v7.8h-3.079V312.5h3.079l5.15,7.832V312.5Z" transform="translate(-415.902 -310.504)" fill="#0078d7" stroke="rgba(0,0,0,0)" stroke-miterlimit="10" stroke-width="1"/>
    <path id="Path_58967" data-name="Path 58967" d="M522.433,312.5h3.079v12.639h-3.079Z" transform="translate(-415.902 -310.504)" fill="#0078d7" stroke="rgba(0,0,0,0)" stroke-miterlimit="10" stroke-width="1"/>
    <path id="Path_58968" data-name="Path 58968" d="M528.408,312.5h9.778v2.466h-3.35v10.173h-3.078V314.963h-3.35Z" transform="translate(-415.902 -310.504)" fill="#0078d7" stroke="rgba(0,0,0,0)" stroke-miterlimit="10" stroke-width="1"/>
    <path id="Path_58969" data-name="Path 58969" d="M541.08,312.5h3.08v12.639h-3.08Z" transform="translate(-415.902 -310.504)" fill="#0078d7" stroke="rgba(0,0,0,0)" stroke-miterlimit="10" stroke-width="1"/>
    <path id="Path_58970" data-name="Path 58970" d="M556.347,312.5h3.259l-4.483,12.639H551.27L546.786,312.5h3.277l3.132,9.542Z" transform="translate(-415.902 -310.504)" fill="#0078d7" stroke="rgba(0,0,0,0)" stroke-miterlimit="10" stroke-width="1"/>
    <path id="Path_58971" data-name="Path 58971" d="M569.973,314.963H565.31v2.557h4.123V319.9H565.31v2.772h4.663v2.467h-7.742V312.5h7.742Z" transform="translate(-415.902 -310.504)" fill="#0078d7" stroke="rgba(0,0,0,0)" stroke-miterlimit="10" stroke-width="1"/>
    <path id="Path_58972" data-name="Path 58972" d="M467.007,342.617H465.1v4.537h-3.079V334.515h4.988c3.1,0,4.645,1.746,4.645,4.069C471.652,340.672,470.23,342.617,467.007,342.617Zm-.234-2.449c1.224,0,1.746-.612,1.746-1.584S468,337,466.773,337H465.1v3.169Z" transform="translate(-415.902 -310.504)" fill="#0078d7" stroke="rgba(0,0,0,0)" stroke-miterlimit="10" stroke-width="1"/>
    <path id="Path_58973" data-name="Path 58973" d="M478.13,334.515v10.262h4.033v2.377h-7.112V334.515Z" transform="translate(-415.902 -310.504)" fill="#0078d7" stroke="rgba(0,0,0,0)" stroke-miterlimit="10" stroke-width="1"/>
    <path id="Path_58974" data-name="Path 58974" d="M493.3,344.922h-4.718l-.756,2.232h-3.222l4.573-12.639h3.564l4.574,12.639h-3.259Zm-2.359-7-1.548,4.627h3.115Z" transform="translate(-415.902 -310.504)" fill="#0078d7" stroke="rgba(0,0,0,0)" stroke-miterlimit="10" stroke-width="1"/>
    <path id="Path_58975" data-name="Path 58975" d="M499.819,334.515H509.6v2.466h-3.35v10.173h-3.078V336.981h-3.349Z" transform="translate(-415.902 -310.504)" fill="#0078d7" stroke="rgba(0,0,0,0)" stroke-miterlimit="10" stroke-width="1"/>
    <path id="Path_58976" data-name="Path 58976" d="M512.941,334.515h8.228v2.466H516.02v2.665h3.852v2.395H516.02v5.113h-3.079Z" transform="translate(-415.902 -310.504)" fill="#0078d7" stroke="rgba(0,0,0,0)" stroke-miterlimit="10" stroke-width="1"/>
    <path id="Path_58977" data-name="Path 58977" d="M530.565,347.28a6.473,6.473,0,1,1,6.463-6.481A6.358,6.358,0,0,1,530.565,347.28Zm0-2.808c2.016,0,3.331-1.459,3.331-3.673,0-2.251-1.315-3.674-3.331-3.674-2.053,0-3.35,1.423-3.35,3.674C527.215,343.013,528.512,344.472,530.565,344.472Z" transform="translate(-415.902 -310.504)" fill="#0078d7" stroke="rgba(0,0,0,0)" stroke-miterlimit="10" stroke-width="1"/>
    <path id="Path_58978" data-name="Path 58978" d="M545.7,334.515c3.1,0,4.646,1.782,4.646,3.979a3.678,3.678,0,0,1-2.809,3.654l2.917,5.006H546.98l-2.628-4.771h-.739v4.771h-3.079V334.515Zm-.179,2.556h-1.909V340.2h1.909c1.152,0,1.692-.594,1.692-1.584C547.214,337.684,546.674,337.071,545.522,337.071Z" transform="translate(-415.902 -310.504)" fill="#0078d7" stroke="rgba(0,0,0,0)" stroke-miterlimit="10" stroke-width="1"/>
    <path id="Path_58979" data-name="Path 58979" d="M554.07,334.515h3.637l3.547,8.751,3.512-8.751h3.619v12.639h-3.079v-7.58l-2.827,7.58h-2.485l-2.844-7.6v7.6h-3.08Z" transform="translate(-415.902 -310.504)" fill="#0078d7" stroke="rgba(0,0,0,0)" stroke-miterlimit="10" stroke-width="1"/>
  </g>
</svg>
