<svg id="Layer_1" data-name="Layer 1" xmlns="http://www.w3.org/2000/svg" width="64" height="64" viewBox="0 0 64 64"><defs><style>.cls-1{fill:#FFFFFF;}</style></defs><g id="Splitter_2" data-name="Splitter 2"><path id="Path_60834" data-name="Path 60834" class="cls-1" d="M60.84,35.6a2.86,2.86,0,0,0-2.71,1.93l-16.82-4.7V30.08L57.7,26.29A3,3,0,1,0,57.14,25L41.32,28.61v-2l9.26-10.45a2.88,2.88,0,1,0-1-1l-8.21,9.27v-6.6L14.63,30.43l-8,.44a2.87,2.87,0,1,0,0,1.44l7.8-.43,26.9,13.43V39.49l10.79,9.95a2.86,2.86,0,1,0,.81-1.21L41.33,37.54V34.32L58,39a2.87,2.87,0,1,0,2.83-3.39Z"/></g></svg>