<svg id="Layer_1" data-name="Layer 1" xmlns="http://www.w3.org/2000/svg" width="64" height="64" viewBox="0 0 64 64"><defs><style>.cls-1{fill:#FFFFFF;}</style></defs><path id="L2_switch" data-name="L2 switch" class="cls-1" d="M64.71,46.27,52,38.91V43.3c-3.58,0-7.06,0-10.55,0a.75.75,0,0,1-.49-.36c-1-1.58-1.89-3.18-2.86-4.74-.57-1-1.2-1.9-1.81-2.84s-1-1.92-1.61-2.84a.89.89,0,0,1,0-1.05q3.1-5.1,6.16-10.24a1,1,0,0,1,1-.6c3.13,0,6.25,0,9.38,0,.24,0,.49,0,.81,0V25l12.66-7.3L51.94,10.37v4.37a1.55,1.55,0,0,1-.31.06l-12.13,0A2.62,2.62,0,0,0,37.12,16c-1.78,2.89-3.52,5.81-5.28,8.71-.29.49-.61,1-.95,1.52a5,5,0,0,1-.34-.46c-1.86-3.1-3.73-6.21-5.57-9.32a3.11,3.11,0,0,0-2.91-1.67c-3.08,0-6.16,0-9.24,0-.25,0-.49,0-.84,0v-4.3L-.7,17.69l12.75,7.38V20.63h.76c2.36,0,4.71,0,7.06,0a1.18,1.18,0,0,1,1.18.68q3,5.15,6.15,10.25a.75.75,0,0,1,0,.93,12.47,12.47,0,0,0-.66,1.19,3.22,3.22,0,0,0-.32.41L21,42.71a1.11,1.11,0,0,1-1.07.64c-2.42,0-4.84,0-7.25,0-.23,0-.45,0-.73-.06V38.94L-.71,46.27,12,53.62v-4.4H21.6a7.16,7.16,0,0,0,.93-.12c.52-.16,1.23-.18,1.52-.53a30.12,30.12,0,0,0,2-3c1.47-2.41,3.67-6,5.13-8.37.1-.17,4.07,7.77,5.53,10.26a3.37,3.37,0,0,0,3.21,1.77c3.67,0,7.34,0,11,0h1v4.39Z"/></svg>