<svg id="Layer_1" data-name="Layer 1" xmlns="http://www.w3.org/2000/svg" width="64" height="64" viewBox="0 0 64 64"><defs><style>.cls-1{fill:#1a7ddd;}.cls-2{fill:#fff;}</style></defs><g id="Group_13525" data-name="Group 13525"><g id="Group_13212" data-name="Group 13212"><g id="Group_13201" data-name="Group 13201"><rect id="Rectangle_2261-6" data-name="Rectangle 2261-6" class="cls-1" width="64" height="64" rx="11.29"/></g></g></g><path id="Union_11" data-name="Union 11" class="cls-2" d="M27.68,50.8l4.56-5.9v1.92a14.36,14.36,0,0,0,8.51-4.16A14.62,14.62,0,0,0,45,33.75L48.35,36c.79.52.86.52,1.63,0l3-2,.21-.08c-.1.78-.15,1.51-.29,2.23A22.66,22.66,0,0,1,38.42,53.65,20.6,20.6,0,0,1,32.22,55v3Zm-2.23,3.77A22.49,22.49,0,0,1,8.34,38.12a28.25,28.25,0,0,1-.72-4.48h-2l5.94-3.92L18,33.64H15.76a14.61,14.61,0,0,0,6.75,11,14.41,14.41,0,0,0,6.41,2.24L27.1,49.61c-1.05,1.61-1.06,1.26,0,2.87l1.61,2.43a1.78,1.78,0,0,1,0,.2c-1.12-.18-2.22-.27-3.27-.54Zm23.7-20.11a.58.58,0,0,1-.3-.13L48.32,34l-6.13-3.6h2.75A14.74,14.74,0,0,0,32.2,17.66c-.08,0-.16,0-.32-.05.22-.33.41-.63.61-.92l1.67-2.5c.43-.65.43-.79,0-1.43L32.31,10a1.11,1.11,0,0,1-.22-.55c1.08.17,2.17.27,3.23.53A22.57,22.57,0,0,1,51.76,24.19a20.56,20.56,0,0,1,1.41,6.19h2.24l-2.53,1.67c-1.13.78-2.27,1.53-3.4,2.3a.7.7,0,0,1-.23.11l0,0Zm-36.82-6c-.66-.44-.8-.44-1.46,0-1.06.7-2.11,1.41-3.31,2.07.14-.91.23-1.83.41-2.73A22.86,22.86,0,0,1,26.58,9.72c.76-.13,1.54-.19,2.31-.25V7.63L32.36,13l.12.18.06.11.11.17-.06.09a.71.71,0,0,1-.11.25l-.43.64L28.9,19.53V17.66A14.74,14.74,0,0,0,15.76,30.78l-3.43-2.29Z"/></svg>