<svg id="Layer_1" data-name="Layer 1" xmlns="http://www.w3.org/2000/svg" width="64" height="64" viewBox="0 0 64 64"><defs><style>.cls-1{fill:#1a7ddd;}</style></defs><g id="Group_13018" data-name="Group 13018"><path id="Path_60584" data-name="Path 60584" class="cls-1" d="M0,32.33C0,26.45,0,20.57.06,14.69A13.87,13.87,0,0,1,6,2.92,14,14,0,0,1,12.92.51C14.11.41,15.31.35,16.5.35H48.56a16.27,16.27,0,0,1,8.61,2.06,13.3,13.3,0,0,1,6.5,9.72,28.09,28.09,0,0,1,.31,4.3q0,16.23,0,32.44a15.81,15.81,0,0,1-2.53,9.36,13.72,13.72,0,0,1-10.72,6c-1.23.1-2.48.13-3.72.14q-15.78,0-31.55,0a16.55,16.55,0,0,1-8.28-1.86,13.51,13.51,0,0,1-7-11A34.16,34.16,0,0,1,0,48c0-5.21,0-10.41,0-15.62ZM23.6,33.57c-.05-.79-.07-1.41-.13-2a7.25,7.25,0,0,0-6.81-7.08,7.29,7.29,0,0,0-8.49,5.85c0,.21-.06.42-.08.63a17.48,17.48,0,0,0,0,4.9,7,7,0,0,0,7,6.46,7.16,7.16,0,0,0,8.16-6c.2-.95.24-1.93.33-2.73Zm14.5-4a5,5,0,0,0-3.19-4.7,8.86,8.86,0,0,0-6.43.08,4.6,4.6,0,0,0-3.05,4.16,4.39,4.39,0,0,0,2.49,4.56A34.12,34.12,0,0,0,31.4,35a14.11,14.11,0,0,1,1.74.66A1.56,1.56,0,0,1,34,37.35a1.68,1.68,0,0,1-1.3,1.48,2.48,2.48,0,0,1-3.15-1.54s0,0,0-.08c-.13-.37-.21-.75-.33-1.2l-4.4.31c.06.43.08.73.15,1a5.4,5.4,0,0,0,2.92,4.26,9.32,9.32,0,0,0,7.43.08,5.32,5.32,0,0,0,3.26-5.19,4.87,4.87,0,0,0-3.16-4.87,23.64,23.64,0,0,0-2.32-.82c-.83-.26-1.68-.45-2.51-.73a1.09,1.09,0,0,1-.84-1.18,1.27,1.27,0,0,1,1.09-1.16,2.14,2.14,0,0,1,2.67,1.42,1,1,0,0,1,0,.17c.06.19.12.38.19.57ZM50.7,35c-.23.65-.37,1.2-.6,1.72a2.53,2.53,0,0,1-2.75,1.62,2.49,2.49,0,0,1-2.3-1.94,11.16,11.16,0,0,1,0-5.68,3.41,3.41,0,0,1,.51-1.07,2.67,2.67,0,0,1,4.68.46c.11.24.18.49.29.77l2.08-.52,2-.52a6.37,6.37,0,0,0-5.88-5.33,7.11,7.11,0,0,0-8.36,5.6,6.46,6.46,0,0,0-.11.75,16.28,16.28,0,0,0-.11,4.24c.5,4.35,2.89,7.43,8,7.28a6.51,6.51,0,0,0,6.51-6Z"/><path id="Path_60585" data-name="Path 60585" class="cls-1" d="M19,33.33a29.1,29.1,0,0,1-.5,2.94,2.65,2.65,0,0,1-2.64,2A2.7,2.7,0,0,1,13,36.43a9.24,9.24,0,0,1,0-6,2.7,2.7,0,0,1,2.71-2,2.75,2.75,0,0,1,2.76,2A23,23,0,0,1,19,33.33Z"/></g></svg>