<svg id="Layer_1" data-name="Layer 1" xmlns="http://www.w3.org/2000/svg" width="64" height="64" viewBox="0 0 64 64"><defs><style>.cls-1{fill:#03a9f4;}.cls-2{fill:#fff;}</style></defs><g id="Group_5" data-name="Group 5"><circle id="Ellipse_4" data-name="Ellipse 4" class="cls-1" cx="32" cy="32" r="32"/><path id="Path_25" data-name="Path 25" class="cls-2" d="M3.16,45.88C6.55,42.78,14.1,35.7,17.47,32.57c1.36-1.27,2.48-1.23,3.73.11l9.69,10.39c1.19,1.27,1.17,2.43-.09,3.61C27.38,49.88,19.92,56.81,16.52,60A30.44,30.44,0,0,1,5.33,49.68,20.64,20.64,0,0,1,3.16,45.88Z"/><path id="Path_22" data-name="Path 22" class="cls-2" d="M28.09,38.47l-2.52-2.7c.32-.32.6-.63.9-.91C30.55,31,34.65,27.24,38.71,23.4a3,3,0,0,0,.83-1.53,3.12,3.12,0,0,1,3.33-2.52,3.06,3.06,0,0,1,2.79,3,3,3,0,0,1-2.76,3.09,2.45,2.45,0,0,0-1.68.79L29.1,37.53Zm15.52-16.9a1.32,1.32,0,0,0-1.85-.21l0,0a1.34,1.34,0,0,0-.14,1.89l0,0a1.33,1.33,0,0,0,2-1.74Z"/><path id="Path_24" data-name="Path 24" class="cls-2" d="M23.69,33.75l-2.38-2.54c.31-.32.59-.63.89-.91,2.73-2.55,5.47-5.08,8.18-7.66a2.62,2.62,0,0,0,.69-1.3,3,3,0,0,1,3.14-2.47,2.91,2.91,0,0,1,2.68,2.84,3,3,0,0,1-2.65,3,2.93,2.93,0,0,0-1.43.65c-2.73,2.5-5.43,5-8.14,7.57C24.36,33.2,24,33.46,23.69,33.75ZM35,22.56a1.2,1.2,0,0,0-.08-1.64,1.22,1.22,0,0,0-1.71-.13l-.1.1A1.17,1.17,0,0,0,33,22.53l.09.1a1.26,1.26,0,0,0,1.77.09Z"/><path id="Path_23" data-name="Path 23" class="cls-2" d="M32.19,42.85l-2.42-2.6.88-.82c2.73-2.55,5.47-5.08,8.17-7.66a2.86,2.86,0,0,0,.75-1.36A3,3,0,0,1,42.74,28a2.92,2.92,0,0,1,2.65,2.87,3,3,0,0,1-2.67,3,2.82,2.82,0,0,0-1.42.63C38.52,37,35.78,39.57,33,42.14,32.77,42.37,32.49,42.59,32.19,42.85Zm11.15-11a1.23,1.23,0,0,0,.07-1.75L43.35,30a1.16,1.16,0,0,0-1.64-.09l-.09.09a1.15,1.15,0,0,0-.19,1.61l.11.12a1.2,1.2,0,0,0,1.69.18.52.52,0,0,0,.11-.1Z"/></g></svg>