<svg xmlns="http://www.w3.org/2000/svg" width="32px" height="32px" viewBox="0 0 84.329 100.686">
  <path id="BLUE" d="M118.108,121.822A41.982,41.982,0,0,0,76.055,85.789a54.924,54.924,0,0,0-5.709.357,41.968,41.968,0,0,0-35.993,39.189,39.937,39.937,0,0,0,11.889,31.824c9.57,9.669,19.38,19.1,29.058,28.66.805.794,1.317.919,2.189.056,9.757-9.654,19.7-19.126,29.292-28.938C116.309,147.194,119.973,135.235,118.108,121.822ZM76.465,155.031a27.206,27.206,0,1,1,27.156-27.256A27.019,27.019,0,0,1,76.465,155.031Zm17.253-27.2A17,17,0,0,0,76.6,110.447a17.377,17.377,0,1,0-.04,34.749A16.96,16.96,0,0,0,93.718,127.836Z" transform="translate(-34.25 -85.784)" fill="#006dc3"/>
</svg>
