<svg id="Layer_1" data-name="Layer 1" xmlns="http://www.w3.org/2000/svg" width="32px" height="32px" viewBox="0 0 64 64"><defs><style>.cls-1{fill:#0dba95;}.cls-2{fill:#9d0dba;}</style></defs><path class="cls-1" d="M31.78.5a35.63,35.63,0,0,0-3.57.22A26.28,26.28,0,0,0,5.69,25.25a25,25,0,0,0,7.44,19.91c6,6.05,12.13,12,18.18,17.93.51.5.83.58,1.37,0C38.79,57.09,45,51.16,51,45a25.13,25.13,0,0,0,7.09-22A26.28,26.28,0,0,0,31.78.5Zm.5,43.33H32a16.87,16.87,0,1,1,.24,0Z"/><path class="cls-2" d="M42.84,26.81a10.65,10.65,0,0,0-10.4-10.88h-.31a10.87,10.87,0,0,0-.4,21.74h.37A10.61,10.61,0,0,0,42.84,27.19v-.38Z"/></svg>