<svg id="Layer_1" data-name="Layer 1" xmlns="http://www.w3.org/2000/svg" xmlns:xlink="http://www.w3.org/1999/xlink" viewBox="0 0 1449.53 305.18"><defs><style>.cls-1{fill:none;}.cls-2{fill:url(#linear-gradient);}.cls-3{clip-path:url(#clip-path);}.cls-4{opacity:0.08;}.cls-5{fill:#fff;}</style><linearGradient id="linear-gradient" x1="1203.25" y1="0.51" x2="1203.25" y2="1.51" gradientTransform="translate(-1731959.19 -97.26) scale(1440 245)" gradientUnits="userSpaceOnUse"><stop offset="0" stop-color="#0070db"/><stop offset="1" stop-color="#004486"/></linearGradient><clipPath id="clip-path" transform="translate(-3 0.01)"><rect class="cls-1" y="27.27" width="1440" height="245"/></clipPath></defs><rect id="Rectangle_2015-2" data-name="Rectangle 2015-2" class="cls-2" y="27.28" width="1440" height="245"/><g class="cls-3"><g id="Group_10312" data-name="Group 10312" class="cls-4"><g id="Group_2" data-name="Group 2"><g id="Group_1" data-name="Group 1"><path id="Path_1" data-name="Path 1" class="cls-5" d="M1334.17,288.36h20l10-17.32-10-17.32h-20l-10,17.32Zm19.41-1h-18.84L1325.35,271l9.42-16.32h18.85L1363,271Z" transform="translate(-3 0.01)"/><path id="Path_2" data-name="Path 2" class="cls-5" d="M1305,271.54h20l10-17.32-10-17.32h-20l-10,17.32Zm19.42-1h-18.84l-9.42-16.32,9.42-16.31h18.84l9.42,16.31Z" transform="translate(-3 0.01)"/><path id="Path_3" data-name="Path 3" class="cls-5" d="M1392.42,221.09h20l10-17.32-10-17.31h-20l-10,17.31Zm19.42-1H1393l-9.42-16.32,9.42-16.31h18.84l9.42,16.31Z" transform="translate(-3 0.01)"/><path id="Path_4" data-name="Path 4" class="cls-5" d="M1363.29,271.54h20l10-17.32-10-17.32h-20l-10,17.32Zm19.42-1h-18.84l-9.42-16.32,9.42-16.31h18.84l9.43,16.31Z" transform="translate(-3 0.01)"/><path id="Path_5" data-name="Path 5" class="cls-5" d="M1392.42,288.36h20l10-17.32-10-17.32h-20l-10,17.32Zm19.42-1H1393L1383.58,271l9.42-16.32h18.84l9.42,16.32Z" transform="translate(-3 0.01)"/><path id="Path_6" data-name="Path 6" class="cls-5" d="M1392.42,254.72h20l10-17.31-10-17.32h-20l-10,17.32Zm19.42-1H1393l-9.42-16.31,9.42-16.32h18.84l9.42,16.32Z" transform="translate(-3 0.01)"/><path id="Path_7" data-name="Path 7" class="cls-5" d="M1392.42,187.46h20l10-17.32-10-17.32h-20l-10,17.32Zm19.42-1H1393l-9.42-16.32,9.42-16.32h18.84l9.42,16.32Z" transform="translate(-3 0.01)"/><path id="Path_8" data-name="Path 8" class="cls-5" d="M1421.55,237.9h20l10-17.32-10-17.32h-20l-10,17.32Zm19.42-1h-18.84l-9.43-16.32,9.42-16.32H1441l9.42,16.32Z" transform="translate(-3 0.01)"/><path id="Path_9" data-name="Path 9" class="cls-5" d="M1421.55,305.17h20l10-17.31-10-17.32h-20l-10,17.32Zm19.42-1h-18.84l-9.43-16.27,9.42-16.32H1441l9.39,16.32Z" transform="translate(-3 0.01)"/><path id="Path_10" data-name="Path 10" class="cls-5" d="M1421.55,271.54h20l10-17.32-10-17.32h-20l-10,17.32Zm19.42-1h-18.84l-9.43-16.32,9.42-16.31H1441l9.42,16.31Z" transform="translate(-3 0.01)"/><path id="Path_11" data-name="Path 11" class="cls-5" d="M1421.55,204.27h20l10-17.32-10-17.31h-20l-10,17.31Zm19.42-1h-18.84L1412.7,187l9.42-16.32H1441l9.42,16.32Z" transform="translate(-3 0.01)"/><path id="Path_12" data-name="Path 12" class="cls-5" d="M1042.9,52.9h20l10-17.32-10-17.32h-20l-10,17.32Zm19.45-1h-18.84l-9.42-16.32,9.42-16.31h18.84l9.42,16.31Z" transform="translate(-3 0.01)"/><path id="Path_13" data-name="Path 13" class="cls-5" d="M1042.9,86.48h20l10-17.32-10-17.31h-20l-10,17.31Zm19.42-1h-18.84l-9.42-16.32,9.42-16.26h18.87l9.42,16.31Z" transform="translate(-3 0.01)"/><path id="Path_14" data-name="Path 14" class="cls-5" d="M1392.42,221.09h20l10-17.32-10-17.31h-20l-10,17.31Zm19.42-1H1393l-9.42-16.32,9.42-16.31h18.84l9.42,16.31Z" transform="translate(-3 0.01)"/><path id="Path_15" data-name="Path 15" class="cls-5" d="M1392.42,288.36h20l10-17.32-10-17.32h-20l-10,17.32Zm19.42-1H1393L1383.58,271l9.42-16.32h18.84l9.42,16.32Z" transform="translate(-3 0.01)"/><path id="Path_16" data-name="Path 16" class="cls-5" d="M1392.42,254.72h20l10-17.31-10-17.32h-20l-10,17.32Zm19.42-1H1393l-9.42-16.31,9.42-16.32h18.84l9.42,16.32Z" transform="translate(-3 0.01)"/><path id="Path_17" data-name="Path 17" class="cls-5" d="M1392.42,187.46h20l10-17.32-10-17.32h-20l-10,17.32Zm19.42-1H1393l-9.42-16.32,9.42-16.32h18.84l9.42,16.32Z" transform="translate(-3 0.01)"/><path id="Path_18" data-name="Path 18" class="cls-5" d="M1334.17,187.46h20l10-17.32-10-17.32h-20l-10,17.32Zm19.41-1h-18.84l-9.39-16.32,9.42-16.32h18.85l9.42,16.32Z" transform="translate(-3 0.01)"/><path id="Path_19" data-name="Path 19" class="cls-5" d="M1363.29,204.27h20l10-17.32-10-17.31h-20l-10,17.31Zm19.42-1h-18.84L1354.45,187l9.42-16.32h18.84l9.43,16.32Z" transform="translate(-3 0.01)"/><path id="Path_20" data-name="Path 20" class="cls-5" d="M1363.29,237.9h20l10-17.32-10-17.32h-20l-10,17.32Zm19.42-1h-18.84l-9.42-16.32,9.42-16.32h18.84l9.43,16.32Z" transform="translate(-3 0.01)"/><path id="Path_21" data-name="Path 21" class="cls-5" d="M1305,237.9h20l10-17.32-10-17.32h-20l-10,17.32Zm19.42-1h-18.84l-9.42-16.32,9.42-16.32h18.84l9.42,16.32Z" transform="translate(-3 0.01)"/><path id="Path_22" data-name="Path 22" class="cls-5" d="M1334.16,254.72h20l10-17.31-10-17.32h-20l-10,17.32Zm19.42-1h-18.83l-9.4-16.31,9.42-16.32h18.84l9.42,16.32Z" transform="translate(-3 0.01)"/><path id="Path_23" data-name="Path 23" class="cls-5" d="M1334.16,221.09h20l10-17.32-10-17.31h-20l-10,17.31Zm19.42-1h-18.83l-9.4-16.32,9.42-16.31h18.84l9.42,16.31Z" transform="translate(-3 0.01)"/><path id="Path_24" data-name="Path 24" class="cls-5" d="M1305,204.27h20L1335,187l-10-17.31h-20L1295,187Zm19.42-1h-18.84L1296.2,187l9.42-16.32h18.84l9.42,16.32Z" transform="translate(-3 0.01)"/><path id="Path_25" data-name="Path 25" class="cls-5" d="M1246.79,204.27h20l10-17.32-10-17.31h-20l-10,17.31Zm19.41-1h-18.85L1237.93,187l9.42-16.32h18.84l9.43,16.32Z" transform="translate(-3 0.01)"/><path id="Path_26" data-name="Path 26" class="cls-5" d="M1275.91,221.09h20l10-17.32-10-17.31h-20l-10,17.31Zm19.42-1h-18.84l-9.42-16.32,9.42-16.31h18.86l9.42,16.31Z" transform="translate(-3 0.01)"/><path id="Path_27" data-name="Path 27" class="cls-5" d="M1275.91,187.46h20l10-17.32-10-17.32h-20l-10,17.32Zm19.42-1h-18.84l-9.42-16.32,9.42-16.32h18.86l9.42,16.32Z" transform="translate(-3 0.01)"/><path id="Path_28" data-name="Path 28" class="cls-5" d="M1275.91,254.72h20l10-17.31-10-17.32h-20l-10,17.32Zm19.42-1h-18.84l-9.42-16.31,9.42-16.32h18.86l9.42,16.32Z" transform="translate(-3 0.01)"/><path id="Path_29" data-name="Path 29" class="cls-5" d="M1275.91,120.14h20l10-17.32-10-17.32h-20l-10,17.32Zm19.42-1h-18.84l-9.42-16.32,9.42-16.31h18.86l9.42,16.31Z" transform="translate(-3 0.01)"/><path id="Path_30" data-name="Path 30" class="cls-5" d="M1217.66,120.14h20l10-17.32-10-17.32h-20l-10,17.32Zm19.42-1h-18.84l-9.42-16.32,9.42-16.31h18.84l9.42,16.31Z" transform="translate(-3 0.01)"/><path id="Path_31" data-name="Path 31" class="cls-5" d="M1246.79,137h20l10-17.32-10-17.31h-20l-10,17.31Zm19.42-1h-18.86l-9.41-16.32,9.41-16.31h18.85l9.42,16.31Z" transform="translate(-3 0.01)"/><path id="Path_32" data-name="Path 32" class="cls-5" d="M1246.79,103.32h20l10-17.31-10-17.32h-20l-10,17.32Zm19.42-1h-18.86L1237.94,86l9.41-16.32h18.85L1275.62,86Z" transform="translate(-3 0.01)"/><path id="Path_33" data-name="Path 33" class="cls-5" d="M1246.79,170.59h20l10-17.32-10-17.32h-20l-10,17.32Zm19.42-1h-18.86l-9.41-16.32,9.41-16.31h18.85l9.42,16.31Z" transform="translate(-3 0.01)"/><path id="Path_34" data-name="Path 34" class="cls-5" d="M1217.66,153.77h20l10-17.31-10-17.32h-20l-10,17.32Zm19.42-1h-18.84l-9.42-16.31,9.42-16.32h18.84l9.42,16.32Z" transform="translate(-3 0.01)"/><path id="Path_35" data-name="Path 35" class="cls-5" d="M1217.66,86.5h20l10-17.31-10-17.32h-20l-10,17.32Zm19.42-1h-18.84l-9.43-16.31,9.42-16.29h18.84l9.42,16.32Z" transform="translate(-3 0.01)"/><path id="Path_36" data-name="Path 36" class="cls-5" d="M1159.41,86.5h20l10-17.31-10-17.32h-20l-10,17.32Zm19.41-1H1160l-9.42-16.31L1160,52.9h18.84l9.42,16.32Z" transform="translate(-3 0.01)"/><path id="Path_37" data-name="Path 37" class="cls-5" d="M1188.53,103.32h20l10-17.31-10-17.32h-20l-10,17.32Zm19.42-1h-18.84L1179.69,86l9.42-16.32H1208l9.4,16.32Z" transform="translate(-3 0.01)"/><path id="Path_38" data-name="Path 38" class="cls-5" d="M1188.53,69.69h20l10-17.32-10-17.32h-20l-10,17.32Zm19.42-1h-18.84l-9.42-16.32,9.42-16.31H1208l9.4,16.32Z" transform="translate(-3 0.01)"/><path id="Path_39" data-name="Path 39" class="cls-5" d="M1159.41,120.14h20l10-17.32-10-17.32h-20l-10,17.32Zm19.42-1H1160l-9.43-16.32L1160,86.51h18.84l9.42,16.31Z" transform="translate(-3 0.01)"/><path id="Path_40" data-name="Path 40" class="cls-5" d="M1130.28,103.32h20l10-17.31-10-17.32h-20l-10,17.32Zm19.42-1h-18.84L1121.44,86l9.42-16.32h18.84L1159.12,86Z" transform="translate(-3 0.01)"/><path id="Path_41" data-name="Path 41" class="cls-5" d="M1072,103.32h20L1102,86l-10-17.32h-20L1062,86Zm19.41-1H1072.6L1063.18,86l9.42-16.32h18.84L1100.86,86Z" transform="translate(-3 0.01)"/><path id="Path_42" data-name="Path 42" class="cls-5" d="M1101.15,86.5h20l10-17.31-10-17.29h-20l-10,17.32Zm19.42-1h-18.84l-9.38-16.31,9.38-16.29h18.84L1130,69.22Z" transform="translate(-3 0.01)"/><path id="Path_43" data-name="Path 43" class="cls-5" d="M1072,69.69h20l10-17.32-10-17.32h-20l-10,17.32Zm19.41-1H1072.6l-9.42-16.32,9.42-16.31h18.84l9.42,16.32Z" transform="translate(-3 0.01)"/><path id="Path_44" data-name="Path 44" class="cls-5" d="M1246.79,36.06h20l10-17.32-10-17.32h-20l-10,17.32Zm19.42-1h-18.86l-9.41-16.32,9.41-16.32h18.85l9.42,16.32Z" transform="translate(-3 0.01)"/><path id="Path_45" data-name="Path 45" class="cls-5" d="M1188.53,36.06h20l10-17.32-10-17.32h-20l-10,17.32Zm19.42-1h-18.84l-9.42-16.32,9.42-16.32H1208l9.4,16.32Z" transform="translate(-3 0.01)"/><path id="Path_46" data-name="Path 46" class="cls-5" d="M1217.66,52.9h20l10-17.32-10-17.31h-20l-10,17.31Zm19.42-1h-18.84l-9.42-16.32,9.42-16.31h18.84l9.42,16.31Z" transform="translate(-3 0.01)"/><path id="Path_47" data-name="Path 47" class="cls-5" d="M1159.41,52.9h20l10-17.32-10-17.31h-20l-10,17.31Zm19.42-1H1160l-9.43-16.31L1160,19.27h18.84l9.42,16.32Z" transform="translate(-3 0.01)"/><path id="Path_48" data-name="Path 48" class="cls-5" d="M1101.15,52.9h20l10-17.32-10-17.31h-20l-10,17.31Zm19.42-1h-18.84l-9.38-16.34,9.42-16.32h18.84L1130,35.56Z" transform="translate(-3 0.01)"/><path id="Path_49" data-name="Path 49" class="cls-5" d="M1130.28,69.69h20l10-17.32-10-17.32h-20l-10,17.32Zm19.42-1h-18.84l-9.42-16.32,9.42-16.31h18.84l9.42,16.32Z" transform="translate(-3 0.01)"/><path id="Path_50" data-name="Path 50" class="cls-5" d="M1130.28,36.06h20l10-17.32-10-17.32h-20l-10,17.32Zm19.42-1h-18.84l-9.42-16.32,9.42-16.32h18.84l9.42,16.32Z" transform="translate(-3 0.01)"/><path id="Path_51" data-name="Path 51" class="cls-5" d="M1072,36.06h20l10-17.32L1092,1.42h-20l-10,17.32Zm19.41-1H1072.6l-9.42-16.32,9.42-16.32h18.84l9.42,16.32Z" transform="translate(-3 0.01)"/><path id="Path_52" data-name="Path 52" class="cls-5" d="M1421.55,170.64h20l10-17.32-10-17.31h-20l-10,17.31Zm19.42-1h-18.84l-9.43-16.32,9.42-16.31H1441l9.42,16.31Z" transform="translate(-3 0.01)"/><path id="Path_53" data-name="Path 53" class="cls-5" d="M1421.55,137h20l10-17.32-10-17.32h-20l-10,17.32Zm19.42-1h-18.84l-9.43-16.32,9.42-16.32H1441l9.42,16.32Z" transform="translate(-3 0.01)"/><path id="Path_54" data-name="Path 54" class="cls-5" d="M1363.29,137h20l10-17.32-10-17.32h-20l-10,17.32Zm19.42-1h-18.84l-9.42-16.32,9.42-16.32h18.84l9.42,16.32Z" transform="translate(-3 0.01)"/><path id="Path_55" data-name="Path 55" class="cls-5" d="M1392.42,153.82h20l10-17.31-10-17.32h-20l-10,17.32Zm19.42-1H1393l-9.42-16.31,9.42-16.32h18.84l9.42,16.32Z" transform="translate(-3 0.01)"/><path id="Path_56" data-name="Path 56" class="cls-5" d="M1392.42,120.19h20l10-17.32-10-17.31h-20l-10,17.31Zm19.42-1H1393l-9.42-16.29L1393,86.59h18.84l9.42,16.31Z" transform="translate(-3 0.01)"/><path id="Path_57" data-name="Path 57" class="cls-5" d="M1363.35,170.64h20l10-17.32-10-17.31h-20l-10,17.31Zm19.41-1h-18.84l-9.42-16.32,9.42-16.31h18.84l9.42,16.31Z" transform="translate(-3 0.01)"/><path id="Path_58" data-name="Path 58" class="cls-5" d="M1363.29,103.37h20l10-17.31-10-17.32h-20l-10,17.32Zm19.42-1h-18.84l-9.42-16.32,9.42-16.31h18.84l9.42,16.31Z" transform="translate(-3 0.01)"/><path id="Path_59" data-name="Path 59" class="cls-5" d="M1305,103.37h20l10-17.31-10-17.32h-20l-10,17.32Zm19.42-1h-18.84l-9.42-16.32,9.42-16.31h18.84l9.42,16.31Z" transform="translate(-3 0.01)"/><path id="Path_60" data-name="Path 60" class="cls-5" d="M1334.17,120.19h20l10-17.32-10-17.31h-20l-10,17.31Zm19.42-1h-18.84l-9.4-16.29,9.42-16.31h18.84L1363,102.9Z" transform="translate(-3 0.01)"/><path id="Path_61" data-name="Path 61" class="cls-5" d="M1334.17,86.56h20l10-17.32-10-17.32h-20l-10,17.32Zm19.42-1h-18.84l-9.4-16.32,9.4-16.34h18.84L1363,69.22Z" transform="translate(-3 0.01)"/><path id="Path_62" data-name="Path 62" class="cls-5" d="M1334.17,153.82h20l10-17.31-10-17.32h-20l-10,17.32Zm19.42-1h-18.84l-9.4-16.31,9.42-16.32h18.84l9.42,16.32Z" transform="translate(-3 0.01)"/><path id="Path_63" data-name="Path 63" class="cls-5" d="M1275.91,153.82h20l10-17.31-10-17.32h-20l-10,17.32Zm19.42-1h-18.84l-9.42-16.31,9.42-16.32h18.86l9.42,16.32Z" transform="translate(-3 0.01)"/><path id="Path_64" data-name="Path 64" class="cls-5" d="M1305,170.64h20l10-17.32L1325,136h-20l-10,17.31Zm19.42-1h-18.84l-9.42-16.32,9.42-16.31h18.83l9.42,16.31Z" transform="translate(-3 0.01)"/><path id="Path_65" data-name="Path 65" class="cls-5" d="M1305,137h20l10-17.32-10-17.32h-20l-10,17.32Zm19.42-1h-18.84l-9.42-16.32,9.42-16.32h18.83l9.42,16.32Z" transform="translate(-3 0.01)"/><path id="Path_66" data-name="Path 66" class="cls-5" d="M1421.55,36.11h20l10-17.32-10-17.32h-20l-10,17.32Zm19.42-1h-18.84l-9.43-16.32,9.42-16.32H1441l9.39,16.32Z" transform="translate(-3 0.01)"/><path id="Path_67" data-name="Path 67" class="cls-5" d="M1392.42,86.56h20l10-17.32-10-17.32h-20l-10,17.32Zm19.42-1H1393l-9.42-16.32L1393,52.9h18.84l9.42,16.32Z" transform="translate(-3 0.01)"/><path id="Path_68" data-name="Path 68" class="cls-5" d="M1421.55,103.37h20l10-17.31-10-17.32h-20l-10,17.32Zm19.42-1h-18.84l-9.42-16.32,9.42-16.31H1441l9.38,16.31Z" transform="translate(-3 0.01)"/><path id="Path_69" data-name="Path 69" class="cls-5" d="M1421.55,69.74h20l10-17.32-10-17.31h-20l-10,17.31Zm19.42-1h-18.84l-9.42-16.32,9.42-16.31H1441l9.38,16.32Z" transform="translate(-3 0.01)"/><path id="Path_70" data-name="Path 70" class="cls-5" d="M1392.42,52.9h20l10-17.31-10-17.32h-20l-10,17.32Zm19.42-1H1393l-9.42-16.31L1393,19.27h18.84l9.42,16.32Z" transform="translate(-3 0.01)"/><path id="Path_71" data-name="Path 71" class="cls-5" d="M1334.17,52.9h20l10-17.31-10-17.32h-20l-10,17.31Zm19.42-1h-18.84l-9.4-16.29,9.42-16.32h18.84L1363,35.61Z" transform="translate(-3 0.01)"/><path id="Path_72" data-name="Path 72" class="cls-5" d="M1363.35,69.74h20l10-17.32-10-17.31h-20l-10,17.31Zm19.41-1h-18.84l-9.42-16.32,9.42-16.31h18.84l9.42,16.32Z" transform="translate(-3 0.01)"/><path id="Path_73" data-name="Path 73" class="cls-5" d="M1363.35,36.11h20l10-17.32-10-17.32h-20l-10,17.32Zm19.41-1h-18.84l-9.42-16.32,9.42-16.32h18.84l9.42,16.32Z" transform="translate(-3 0.01)"/><path id="Path_74" data-name="Path 74" class="cls-5" d="M1305,36.11h20l10-17.32L1325,1.47h-20l-10,17.32Zm19.42-1h-18.84l-9.42-16.32,9.42-16.32h18.83l9.42,16.32Z" transform="translate(-3 0.01)"/><path id="Path_75" data-name="Path 75" class="cls-5" d="M1305,69.74h20l10-17.32-10-17.31h-20l-10,17.31Zm19.42-1h-18.84l-9.42-16.32,9.42-16.31h18.83l9.42,16.32Z" transform="translate(-3 0.01)"/><path id="Path_76" data-name="Path 76" class="cls-5" d="M1246.79,69.74h20l10-17.32-10-17.31h-20l-10,17.31Zm19.42-1h-18.86l-9.42-16.32,9.42-16.31h18.84l9.42,16.31Z" transform="translate(-3 0.01)"/><path id="Path_77" data-name="Path 77" class="cls-5" d="M1275.91,86.56h20l10-17.32-10-17.32h-20l-10,17.32Zm19.42-1h-18.84l-9.42-16.32,9.42-16.34h18.86l9.42,16.32Z" transform="translate(-3 0.01)"/><path id="Path_78" data-name="Path 78" class="cls-5" d="M1275.91,52.9h20l10-17.31-10-17.32h-20l-10,17.32Zm19.44-1h-18.84l-9.42-16.31,9.42-16.32h18.84l9.42,16.32Z" transform="translate(-3 0.01)"/></g><path id="Path_79" data-name="Path 79" class="cls-5" d="M1383,172.12a1.83,1.83,0,1,0-1.83-1.83h0A1.83,1.83,0,0,0,1383,172.12Z" transform="translate(-3 0.01)"/><path id="Path_80" data-name="Path 80" class="cls-5" d="M1383,206a1.83,1.83,0,1,0-1.83-1.83h0A1.83,1.83,0,0,0,1383,206Z" transform="translate(-3 0.01)"/><path id="Path_81" data-name="Path 81" class="cls-5" d="M1421.68,239.61a1.83,1.83,0,1,0-1.82-1.84v0A1.84,1.84,0,0,0,1421.68,239.61Z" transform="translate(-3 0.01)"/><path id="Path_82" data-name="Path 82" class="cls-5" d="M1383,239.61a1.83,1.83,0,1,0-1.83-1.83h0A1.83,1.83,0,0,0,1383,239.61Z" transform="translate(-3 0.01)"/><circle id="Ellipse_1" data-name="Ellipse 1" class="cls-5" cx="1418.68" cy="69.07" r="1.83"/><circle id="Ellipse_2" data-name="Ellipse 2" class="cls-5" cx="1379.94" cy="35.61" r="1.83"/><circle id="Ellipse_3" data-name="Ellipse 3" class="cls-5" cx="1418.68" cy="102.9" r="1.83"/><circle id="Ellipse_4" data-name="Ellipse 4" class="cls-5" cx="1379.94" cy="102.9" r="1.83"/><path id="Path_83" data-name="Path 83" class="cls-5" d="M1421.68,138.38a1.83,1.83,0,1,0-1.82-1.84h0A1.83,1.83,0,0,0,1421.68,138.38Z" transform="translate(-3 0.01)"/><path id="Path_84" data-name="Path 84" class="cls-5" d="M1442.2,206a1.83,1.83,0,1,0-1.82-1.84v0A1.84,1.84,0,0,0,1442.2,206Z" transform="translate(-3 0.01)"/><path id="Path_85" data-name="Path 85" class="cls-5" d="M1442.2,239.61a1.83,1.83,0,1,0-1.82-1.84v0A1.84,1.84,0,0,0,1442.2,239.61Z" transform="translate(-3 0.01)"/><circle id="Ellipse_5" data-name="Ellipse 5" class="cls-5" cx="1439.2" cy="69.07" r="1.83"/><circle id="Ellipse_6" data-name="Ellipse 6" class="cls-5" cx="1351.95" cy="253.91" r="1.83"/><circle id="Ellipse_7" data-name="Ellipse 7" class="cls-5" cx="1447.69" cy="220.69" r="1.83"/><circle id="Ellipse_8" data-name="Ellipse 8" class="cls-5" cx="1409.82" cy="220.69" r="1.83"/><circle id="Ellipse_9" data-name="Ellipse 9" class="cls-5" cx="1389.81" cy="220.69" r="1.83"/><circle id="Ellipse_10" data-name="Ellipse 10" class="cls-5" cx="1330.24" cy="220.69" r="1.83"/><circle id="Ellipse_11" data-name="Ellipse 11" class="cls-5" cx="1292.37" cy="220.69" r="1.82"/><circle id="Ellipse_12" data-name="Ellipse 12" class="cls-5" cx="1273.44" cy="253.91" r="1.83"/><circle id="Ellipse_13" data-name="Ellipse 13" class="cls-5" cx="1273.44" cy="220.69" r="1.83"/><circle id="Ellipse_14" data-name="Ellipse 14" class="cls-5" cx="1447.69" cy="186.81" r="1.83"/><circle id="Ellipse_15" data-name="Ellipse 15" class="cls-5" cx="1389.81" cy="186.81" r="1.83"/><circle id="Ellipse_16" data-name="Ellipse 16" class="cls-5" cx="1351.95" cy="186.81" r="1.83"/><path id="Path_86" data-name="Path 86" class="cls-5" d="M1450.69,154.79a1.83,1.83,0,1,0-1.82-1.84v0A1.81,1.81,0,0,0,1450.69,154.79Z" transform="translate(-3 0.01)"/><path id="Path_87" data-name="Path 87" class="cls-5" d="M1412.82,154.79A1.83,1.83,0,1,0,1411,153v0A1.81,1.81,0,0,0,1412.82,154.79Z" transform="translate(-3 0.01)"/><path id="Path_88" data-name="Path 88" class="cls-5" d="M1392.82,154.79a1.83,1.83,0,1,0-.27,0A1.22,1.22,0,0,0,1392.82,154.79Z" transform="translate(-3 0.01)"/><path id="Path_89" data-name="Path 89" class="cls-5" d="M1355,154.79a1.83,1.83,0,1,0-.27,0A1.22,1.22,0,0,0,1355,154.79Z" transform="translate(-3 0.01)"/><path id="Path_90" data-name="Path 90" class="cls-5" d="M1295.35,154.79a1.83,1.83,0,1,0-.27,0A1.22,1.22,0,0,0,1295.35,154.79Z" transform="translate(-3 0.01)"/><circle id="Ellipse_17" data-name="Ellipse 17" class="cls-5" cx="1447.69" cy="119.54" r="1.83"/><circle id="Ellipse_18" data-name="Ellipse 18" class="cls-5" cx="1409.82" cy="119.54" r="1.83"/><circle id="Ellipse_19" data-name="Ellipse 19" class="cls-5" cx="1330.24" cy="119.54" r="1.83"/><circle id="Ellipse_20" data-name="Ellipse 20" class="cls-5" cx="1292.37" cy="119.54" r="1.82"/><path id="Path_91" data-name="Path 91" class="cls-5" d="M1450.69,87.69a1.83,1.83,0,1,0-1.82-1.84v0A1.81,1.81,0,0,0,1450.69,87.69Z" transform="translate(-3 0.01)"/><path id="Path_92" data-name="Path 92" class="cls-5" d="M1412.82,87.69a1.83,1.83,0,1,0-1.82-1.84v0A1.81,1.81,0,0,0,1412.82,87.69Z" transform="translate(-3 0.01)"/><path id="Path_93" data-name="Path 93" class="cls-5" d="M1392.82,87.69a1.83,1.83,0,1,0-1.83-1.83h0a1.81,1.81,0,0,0,1.8,1.82Z" transform="translate(-3 0.01)"/><path id="Path_94" data-name="Path 94" class="cls-5" d="M1355,87.69a1.83,1.83,0,1,0-.27,0A1.22,1.22,0,0,0,1355,87.69Z" transform="translate(-3 0.01)"/><path id="Path_95" data-name="Path 95" class="cls-5" d="M1333.25,87.69a1.83,1.83,0,1,0-1.83-1.83h0a1.81,1.81,0,0,0,1.8,1.82Z" transform="translate(-3 0.01)"/><path id="Path_96" data-name="Path 96" class="cls-5" d="M1295.35,87.69a1.83,1.83,0,1,0-1.8-1.86v.07A1.81,1.81,0,0,0,1295.35,87.69Z" transform="translate(-3 0.01)"/><path id="Path_97" data-name="Path 97" class="cls-5" d="M1412.82,54.7a1.83,1.83,0,1,0-1.82-1.84h0A1.83,1.83,0,0,0,1412.82,54.7Z" transform="translate(-3 0.01)"/><path id="Path_98" data-name="Path 98" class="cls-5" d="M1355,54.7a1.83,1.83,0,1,0-1.83-1.83h0a1.81,1.81,0,0,0,1.81,1.83Z" transform="translate(-3 0.01)"/><path id="Path_99" data-name="Path 99" class="cls-5" d="M1333.25,54.7a1.83,1.83,0,1,0-1.83-1.83h0a1.81,1.81,0,0,0,1.81,1.83Z" transform="translate(-3 0.01)"/><path id="Path_100" data-name="Path 100" class="cls-5" d="M1295.35,54.7a1.83,1.83,0,1,0-1.8-1.86v.06A1.82,1.82,0,0,0,1295.35,54.7Z" transform="translate(-3 0.01)"/><circle id="Ellipse_21" data-name="Ellipse 21" class="cls-5" cx="1379.94" cy="271.63" r="1.83"/><path id="Path_101" data-name="Path 101" class="cls-5" d="M1363.13,172.12a1.83,1.83,0,1,0-1.82-1.84v0A1.84,1.84,0,0,0,1363.13,172.12Z" transform="translate(-3 0.01)"/><path id="Path_102" data-name="Path 102" class="cls-5" d="M1324.4,172.12a1.83,1.83,0,1,0-1.83-1.83h0a1.81,1.81,0,0,0,1.82,1.82Z" transform="translate(-3 0.01)"/><path id="Path_103" data-name="Path 103" class="cls-5" d="M1324.4,206a1.83,1.83,0,1,0-1.83-1.83h0a1.81,1.81,0,0,0,1.82,1.82Z" transform="translate(-3 0.01)"/><path id="Path_104" data-name="Path 104" class="cls-5" d="M1324.4,239.61a1.83,1.83,0,1,0-1.83-1.83h0a1.81,1.81,0,0,0,1.82,1.82Z" transform="translate(-3 0.01)"/><circle id="Ellipse_22" data-name="Ellipse 22" class="cls-5" cx="1360.13" cy="69.08" r="1.83"/><circle id="Ellipse_23" data-name="Ellipse 23" class="cls-5" cx="1321.4" cy="69.07" r="1.83"/><circle id="Ellipse_24" data-name="Ellipse 24" class="cls-5" cx="1360.13" cy="35.61" r="1.82"/><circle id="Ellipse_25" data-name="Ellipse 25" class="cls-5" cx="1321.4" cy="35.61" r="1.83"/><circle id="Ellipse_26" data-name="Ellipse 26" class="cls-5" cx="1360.13" cy="102.9" r="1.83"/><path id="Path_105" data-name="Path 105" class="cls-5" d="M1363.13,138.38a1.83,1.83,0,1,0-1.82-1.84h0A1.83,1.83,0,0,0,1363.13,138.38Z" transform="translate(-3 0.01)"/><path id="Path_106" data-name="Path 106" class="cls-5" d="M1324.4,138.38a1.83,1.83,0,1,0-1.83-1.83h0a1.81,1.81,0,0,0,1.81,1.83Z" transform="translate(-3 0.01)"/><circle id="Ellipse_27" data-name="Ellipse 27" class="cls-5" cx="1360.13" cy="271.63" r="1.83"/><path id="Path_107" data-name="Path 107" class="cls-5" d="M1266.52,172.12a1.83,1.83,0,1,0-1.83-1.83h0A1.83,1.83,0,0,0,1266.52,172.12Z" transform="translate(-3 0.01)"/><path id="Path_108" data-name="Path 108" class="cls-5" d="M1305.25,206a1.83,1.83,0,1,0-1.83-1.83h0a1.81,1.81,0,0,0,1.82,1.82Z" transform="translate(-3 0.01)"/><path id="Path_109" data-name="Path 109" class="cls-5" d="M1305.25,239.61a1.83,1.83,0,1,0-1.83-1.83h0a1.81,1.81,0,0,0,1.82,1.82Z" transform="translate(-3 0.01)"/><path id="Path_110" data-name="Path 110" class="cls-5" d="M1266.52,239.61a1.83,1.83,0,1,0-1.83-1.83h0A1.83,1.83,0,0,0,1266.52,239.61Z" transform="translate(-3 0.01)"/><path id="Path_111" data-name="Path 111" class="cls-5" d="M1305.25,104.72a1.83,1.83,0,1,0-1.83-1.83h0a1.81,1.81,0,0,0,1.81,1.83Z" transform="translate(-3 0.01)"/><path id="Path_112" data-name="Path 112" class="cls-5" d="M1266.52,104.72a1.83,1.83,0,1,0-1.83-1.83h0A1.83,1.83,0,0,0,1266.52,104.72Z" transform="translate(-3 0.01)"/><circle id="Ellipse_28" data-name="Ellipse 28" class="cls-5" cx="1205.14" cy="69.07" r="1.83"/><circle id="Ellipse_29" data-name="Ellipse 29" class="cls-5" cx="1205.14" cy="35.61" r="1.83"/><path id="Path_113" data-name="Path 113" class="cls-5" d="M1208.14,138.38a1.83,1.83,0,1,0-1.82-1.84h0A1.83,1.83,0,0,0,1208.14,138.38Z" transform="translate(-3 0.01)"/><path id="Path_114" data-name="Path 114" class="cls-5" d="M1237.15,154.79a1.83,1.83,0,1,0-1.83-1.83h0a1.81,1.81,0,0,0,1.8,1.82Z" transform="translate(-3 0.01)"/><path id="Path_115" data-name="Path 115" class="cls-5" d="M1237.15,87.69a1.83,1.83,0,1,0-1.8-1.86v.07A1.81,1.81,0,0,0,1237.15,87.69Z" transform="translate(-3 0.01)"/><path id="Path_116" data-name="Path 116" class="cls-5" d="M1179.28,87.69a1.83,1.83,0,1,0-1.83-1.83v0a1.81,1.81,0,0,0,1.83,1.79Z" transform="translate(-3 0.01)"/><path id="Path_117" data-name="Path 117" class="cls-5" d="M1237.15,54.7a1.83,1.83,0,1,0-1.8-1.86v.06A1.82,1.82,0,0,0,1237.15,54.7Z" transform="translate(-3 0.01)"/><circle id="Ellipse_30" data-name="Ellipse 30" class="cls-5" cx="1409.82" cy="18.58" r="1.83"/><circle id="Ellipse_31" data-name="Ellipse 31" class="cls-5" cx="1389.81" cy="18.58" r="1.83"/><path id="Path_118" data-name="Path 118" class="cls-5" d="M1334.46,20.4a1.83,1.83,0,1,0-1.82-1.84h0A1.83,1.83,0,0,0,1334.46,20.4Z" transform="translate(-3 0.01)"/><circle id="Ellipse_32" data-name="Ellipse 32" class="cls-5" cx="1234.15" cy="18.58" r="1.83"/><path id="Path_119" data-name="Path 119" class="cls-5" d="M1217.89,121.36a1.85,1.85,0,0,0,1.82-1.83,1.83,1.83,0,1,0-1.82,1.83Z" transform="translate(-3 0.01)"/><path id="Path_120" data-name="Path 120" class="cls-5" d="M1217.89,87.69a1.83,1.83,0,1,0-1.83-1.83h0a1.81,1.81,0,0,0,1.82,1.82Z" transform="translate(-3 0.01)"/><path id="Path_121" data-name="Path 121" class="cls-5" d="M1217.89,20.4a1.83,1.83,0,1,0-1.83-1.83h0A1.83,1.83,0,0,0,1217.89,20.4Z" transform="translate(-3 0.01)"/><path id="Path_122" data-name="Path 122" class="cls-5" d="M1276.13,154.79a1.83,1.83,0,1,0-1.83-1.83h0a1.81,1.81,0,0,0,1.8,1.82Z" transform="translate(-3 0.01)"/><path id="Path_123" data-name="Path 123" class="cls-5" d="M1276.13,121.36a1.83,1.83,0,1,0-1.83-1.83h0A1.84,1.84,0,0,0,1276.13,121.36Z" transform="translate(-3 0.01)"/><path id="Path_124" data-name="Path 124" class="cls-5" d="M1276.13,54.7a1.83,1.83,0,1,0-1.78-1.88v.08A1.82,1.82,0,0,0,1276.13,54.7Z" transform="translate(-3 0.01)"/><path id="Path_125" data-name="Path 125" class="cls-5" d="M1180.44,20.4a1.83,1.83,0,1,0-1.82-1.84h0A1.83,1.83,0,0,0,1180.44,20.4Z" transform="translate(-3 0.01)"/><circle id="Ellipse_33" data-name="Ellipse 33" class="cls-5" cx="1155.74" cy="18.58" r="1.83"/><circle id="Ellipse_34" data-name="Ellipse 34" class="cls-5" cx="1117.87" cy="18.58" r="1.83"/><path id="Path_126" data-name="Path 126" class="cls-5" d="M1101.77,87.69a1.83,1.83,0,1,0-1.83-1.83h0a1.81,1.81,0,0,0,1.8,1.82Z" transform="translate(-3 0.01)"/><circle id="Ellipse_35" data-name="Ellipse 35" class="cls-5" cx="1098.27" cy="18.58" r="1.83"/><circle id="Ellipse_36" data-name="Ellipse 36" class="cls-5" cx="1059.64" cy="18.58" r="1.83"/><path id="Path_127" data-name="Path 127" class="cls-5" d="M1179.28,54.7a1.83,1.83,0,1,0-1.83-1.83v0A1.82,1.82,0,0,0,1179.28,54.7Z" transform="translate(-3 0.01)"/><path id="Path_128" data-name="Path 128" class="cls-5" d="M1119.71,54.7a1.83,1.83,0,1,0-1.83-1.83h0A1.83,1.83,0,0,0,1119.71,54.7Z" transform="translate(-3 0.01)"/><path id="Path_129" data-name="Path 129" class="cls-5" d="M1101.6,54.7a1.83,1.83,0,1,0-1.82-1.84h0A1.83,1.83,0,0,0,1101.6,54.7Z" transform="translate(-3 0.01)"/><path id="Path_130" data-name="Path 130" class="cls-5" d="M1042,54.7a1.83,1.83,0,1,0-1.82-1.84h0A1.83,1.83,0,0,0,1042,54.7Z" transform="translate(-3 0.01)"/><circle id="Ellipse_37" data-name="Ellipse 37" class="cls-5" cx="1146.59" cy="102.9" r="1.83"/><circle id="Ellipse_38" data-name="Ellipse 38" class="cls-5" cx="1418.68" cy="1.84" r="1.83"/><circle id="Ellipse_39" data-name="Ellipse 39" class="cls-5" cx="1379.94" cy="1.84" r="1.83"/><circle id="Ellipse_40" data-name="Ellipse 40" class="cls-5" cx="1360.13" cy="1.84" r="1.83"/><circle id="Ellipse_41" data-name="Ellipse 41" class="cls-5" cx="1321.4" cy="1.84" r="1.83"/><path id="Path_131" data-name="Path 131" class="cls-5" d="M1305.25,3.65a1.83,1.83,0,1,0-1.83-1.83h0A1.84,1.84,0,0,0,1305.25,3.65Z" transform="translate(-3 0.01)"/><path id="Path_132" data-name="Path 132" class="cls-5" d="M1266.52,3.65a1.83,1.83,0,1,0-1.83-1.83h0A1.83,1.83,0,0,0,1266.52,3.65Z" transform="translate(-3 0.01)"/><path id="Path_133" data-name="Path 133" class="cls-5" d="M1246.25,172.12a1.83,1.83,0,1,0-1.82-1.84v0A1.84,1.84,0,0,0,1246.25,172.12Z" transform="translate(-3 0.01)"/><path id="Path_134" data-name="Path 134" class="cls-5" d="M1247.09,205.28a1.83,1.83,0,1,0-1.83-1.83h0a1.81,1.81,0,0,0,1.81,1.83Z" transform="translate(-3 0.01)"/><path id="Path_135" data-name="Path 135" class="cls-5" d="M1246.25,70.9a1.83,1.83,0,1,0-1.82-1.84h0A1.83,1.83,0,0,0,1246.25,70.9Z" transform="translate(-3 0.01)"/><path id="Path_136" data-name="Path 136" class="cls-5" d="M1246.25,138.38a1.83,1.83,0,1,0-1.82-1.84h0A1.83,1.83,0,0,0,1246.25,138.38Z" transform="translate(-3 0.01)"/><path id="Path_137" data-name="Path 137" class="cls-5" d="M1246.25,3.65a1.83,1.83,0,1,0-1.82-1.84h0A1.83,1.83,0,0,0,1246.25,3.65Z" transform="translate(-3 0.01)"/><circle id="Ellipse_42" data-name="Ellipse 42" class="cls-5" cx="1205.14" cy="1.84" r="1.83"/><circle id="Ellipse_43" data-name="Ellipse 43" class="cls-5" cx="1185.43" cy="69.07" r="1.83"/><circle id="Ellipse_44" data-name="Ellipse 44" class="cls-5" cx="1185.43" cy="35.61" r="1.83"/><circle id="Ellipse_45" data-name="Ellipse 45" class="cls-5" cx="1185.43" cy="102.9" r="1.83"/><circle id="Ellipse_46" data-name="Ellipse 46" class="cls-5" cx="1185.43" cy="1.84" r="1.83"/><circle id="Ellipse_47" data-name="Ellipse 47" class="cls-5" cx="1127.63" cy="35.61" r="1.83"/><circle id="Ellipse_48" data-name="Ellipse 48" class="cls-5" cx="1127.63" cy="102.9" r="1.83"/><circle id="Ellipse_49" data-name="Ellipse 49" class="cls-5" cx="1127.63" cy="1.84" r="1.83"/><circle id="Ellipse_50" data-name="Ellipse 50" class="cls-5" cx="1070.05" cy="69.07" r="1.83"/><circle id="Ellipse_51" data-name="Ellipse 51" class="cls-5" cx="1146.59" cy="1.84" r="1.83"/><path id="Path_138" data-name="Path 138" class="cls-5" d="M1091.71,3.65a1.83,1.83,0,1,0-1.82-1.84h0A1.83,1.83,0,0,0,1091.71,3.65Z" transform="translate(-3 0.01)"/><path id="Path_139" data-name="Path 139" class="cls-5" d="M1421.68,171.62a1.33,1.33,0,1,0-1.32-1.34v0A1.33,1.33,0,0,0,1421.68,171.62Z" transform="translate(-3 0.01)"/><circle id="Ellipse_52" data-name="Ellipse 52" class="cls-5" cx="1379.94" cy="69.07" r="1.33"/><circle id="Ellipse_53" data-name="Ellipse 53" class="cls-5" cx="1418.68" cy="35.61" r="1.32"/><circle id="Ellipse_54" data-name="Ellipse 54" class="cls-5" cx="1439.2" cy="102.9" r="1.33"/><path id="Path_140" data-name="Path 140" class="cls-5" d="M1442.2,137.9a1.33,1.33,0,1,0-1.32-1.34h0A1.33,1.33,0,0,0,1442.2,137.9Z" transform="translate(-3 0.01)"/><path id="Path_141" data-name="Path 141" class="cls-5" d="M1383,137.9a1.33,1.33,0,1,0-1.33-1.33h0a1.32,1.32,0,0,0,1.31,1.33Z" transform="translate(-3 0.01)"/><circle id="Ellipse_55" data-name="Ellipse 55" class="cls-5" cx="1447.69" cy="253.91" r="1.33"/><circle id="Ellipse_56" data-name="Ellipse 56" class="cls-5" cx="1409.82" cy="253.91" r="1.33"/><circle id="Ellipse_57" data-name="Ellipse 57" class="cls-5" cx="1389.82" cy="253.91" r="1.33"/><circle id="Ellipse_58" data-name="Ellipse 58" class="cls-5" cx="1330.24" cy="253.91" r="1.33"/><path id="Path_142" data-name="Path 142" class="cls-5" d="M1295.35,255.22a1.33,1.33,0,1,0-.23,0Z" transform="translate(-3 0.01)"/><circle id="Ellipse_59" data-name="Ellipse 59" class="cls-5" cx="1351.95" cy="220.69" r="1.33"/><circle id="Ellipse_60" data-name="Ellipse 60" class="cls-5" cx="1409.82" cy="186.81" r="1.33"/><circle id="Ellipse_61" data-name="Ellipse 61" class="cls-5" cx="1330.24" cy="186.81" r="1.33"/><circle id="Ellipse_62" data-name="Ellipse 62" class="cls-5" cx="1330.24" cy="152.98" r="1.33"/><path id="Path_143" data-name="Path 143" class="cls-5" d="M1450.69,54.2a1.33,1.33,0,1,0,.23-2.65h-.23a1.33,1.33,0,0,0,0,2.65Z" transform="translate(-3 0.01)"/><path id="Path_144" data-name="Path 144" class="cls-5" d="M1363.13,205.45a1.33,1.33,0,1,0-1.32-1.34h0a1.32,1.32,0,0,0,1.31,1.33Z" transform="translate(-3 0.01)"/><path id="Path_145" data-name="Path 145" class="cls-5" d="M1363.13,239.11a1.33,1.33,0,1,0-1.32-1.34v0A1.32,1.32,0,0,0,1363.13,239.11Z" transform="translate(-3 0.01)"/><path id="Path_146" data-name="Path 146" class="cls-5" d="M1305.25,171.62a1.33,1.33,0,1,0-1.32-1.34v0A1.33,1.33,0,0,0,1305.25,171.62Z" transform="translate(-3 0.01)"/><path id="Path_147" data-name="Path 147" class="cls-5" d="M1266.51,205.45a1.33,1.33,0,1,0-1.32-1.34h0a1.32,1.32,0,0,0,1.31,1.33Z" transform="translate(-3 0.01)"/><path id="Path_148" data-name="Path 148" class="cls-5" d="M1305.25,70.39a1.33,1.33,0,1,0-1.32-1.34h0A1.33,1.33,0,0,0,1305.25,70.39Z" transform="translate(-3 0.01)"/><path id="Path_149" data-name="Path 149" class="cls-5" d="M1266.51,70.39a1.33,1.33,0,1,0-1.32-1.34h0a1.32,1.32,0,0,0,1.31,1.33Z" transform="translate(-3 0.01)"/><path id="Path_150" data-name="Path 150" class="cls-5" d="M1305.25,36.9a1.33,1.33,0,1,0-1.32-1.34v0A1.32,1.32,0,0,0,1305.25,36.9Z" transform="translate(-3 0.01)"/><path id="Path_151" data-name="Path 151" class="cls-5" d="M1305.25,137.9a1.33,1.33,0,1,0-1.32-1.34h0A1.33,1.33,0,0,0,1305.25,137.9Z" transform="translate(-3 0.01)"/><path id="Path_152" data-name="Path 152" class="cls-5" d="M1266.51,137.9a1.33,1.33,0,1,0-1.32-1.34h0a1.32,1.32,0,0,0,1.31,1.33Z" transform="translate(-3 0.01)"/><path id="Path_153" data-name="Path 153" class="cls-5" d="M1305.25,272.9a1.33,1.33,0,1,0-1.32-1.34v0A1.33,1.33,0,0,0,1305.25,272.9Z" transform="translate(-3 0.01)"/><path id="Path_154" data-name="Path 154" class="cls-5" d="M1237.15,188.12a1.33,1.33,0,0,0,0-2.65,1.35,1.35,0,0,0-1.33,1.33h0A1.33,1.33,0,0,0,1237.15,188.12Z" transform="translate(-3 0.01)"/><circle id="Ellipse_63" data-name="Ellipse 63" class="cls-5" cx="1176.28" cy="119.54" r="1.33"/><path id="Path_155" data-name="Path 155" class="cls-5" d="M1355,19.9a1.33,1.33,0,1,0-1.33-1.33h0A1.35,1.35,0,0,0,1355,19.9Z" transform="translate(-3 0.01)"/><path id="Path_156" data-name="Path 156" class="cls-5" d="M1295.35,19.9a1.33,1.33,0,1,0-1.33-1.33h0A1.34,1.34,0,0,0,1295.35,19.9Z" transform="translate(-3 0.01)"/><path id="Path_157" data-name="Path 157" class="cls-5" d="M1217.89,54.2a1.33,1.33,0,1,0-1.33-1.33h0A1.34,1.34,0,0,0,1217.89,54.2Z" transform="translate(-3 0.01)"/><path id="Path_158" data-name="Path 158" class="cls-5" d="M1276.13,19.9a1.33,1.33,0,1,0-1.33-1.33h0A1.34,1.34,0,0,0,1276.13,19.9Z" transform="translate(-3 0.01)"/><circle id="Ellipse_64" data-name="Ellipse 64" class="cls-5" cx="1059.9" cy="85.71" r="1.33"/><circle id="Ellipse_65" data-name="Ellipse 65" class="cls-5" cx="1146.59" cy="35.61" r="1.33"/><path id="Path_159" data-name="Path 159" class="cls-5" d="M1091.71,36.9a1.33,1.33,0,1,0-1.36-1.3,1.32,1.32,0,0,0,1.34,1.3Z" transform="translate(-3 0.01)"/><path id="Path_160" data-name="Path 160" class="cls-5" d="M1246.25,104.22a1.33,1.33,0,1,0,.23-2.65h-.23a1.33,1.33,0,0,0,0,2.65Z" transform="translate(-3 0.01)"/><circle id="Ellipse_66" data-name="Ellipse 66" class="cls-5" cx="1127.63" cy="69.07" r="1.33"/><circle id="Ellipse_67" data-name="Ellipse 67" class="cls-5" cx="1070.05" cy="1.84" r="1.33"/><path id="Path_161" data-name="Path 161" class="cls-5" d="M1091.71,104.22a1.33,1.33,0,1,0-1.36-1.32h0a1.34,1.34,0,0,0,1.34,1.32Z" transform="translate(-3 0.01)"/></g></g></g></svg>