<svg id="Layer_1" data-name="Layer 1" xmlns="http://www.w3.org/2000/svg" width="64" height="64" viewBox="0 0 64 64"><defs><style>.cls-1{fill:#1a7ddd;}.cls-2{fill:#fff;}</style></defs><path id="Path_60845" data-name="Path 60845" class="cls-1" d="M11.29.33H52.71A11.3,11.3,0,0,1,64,11.63V53A11.29,11.29,0,0,1,52.71,64.33H11.29A11.29,11.29,0,0,1,0,53V11.63A11.3,11.3,0,0,1,11.29.33Z"/><g id="Group_12939" data-name="Group 12939"><path id="Path_60547" data-name="Path 60547" class="cls-2" d="M43.54,54.81a1.38,1.38,0,0,1-.72,1.35,1.29,1.29,0,0,1-1.41-.06c-2.7-1.72-5.41-3.42-8.06-5.2a1.62,1.62,0,0,0-2.16,0c-2.39,1.61-4.86,3.11-7.3,4.65a5.17,5.17,0,0,0-.53.39,1.39,1.39,0,0,1-2.27-1.5q1.13-3.21,2.26-6.4l7.48-21c.3-.85.74-1.22,1.44-1.22s1.15.37,1.44,1.21q4.83,13.57,9.65,27.16C43.45,54.41,43.5,54.67,43.54,54.81Zm-6.88-9c-1.42-1.14-2.78-2.21-4.12-3.3-.25-.21-.41-.12-.61.05l-3.74,3-.27.29c1.41.89,2.77,1.76,4.15,2.61a.48.48,0,0,0,.39,0ZM32.33,31.47h-.14c-.8,2.26-1.6,4.52-2.38,6.8a.53.53,0,0,0,.16.44c.66.56,1.33,1.1,2,1.61a.57.57,0,0,0,.54,0c.68-.5,1.32-1,2-1.56a.44.44,0,0,0,.17-.6h0c-.24-.63-.45-1.28-.68-1.92l-1.69-4.77Zm-7.94,22,.13.09L31,49.44l-4.22-2.66Zm9.17-4L40,53.52l.09-.12-2.35-6.62ZM27.73,44l.11.07,3.32-2.66-2-1.56Zm9,.07L36.8,44l-1.47-4.13-2,1.56Z"/><path id="Path_60548" data-name="Path 60548" class="cls-2" d="M49.48,22.28a17.1,17.1,0,0,1-4.66,11.57,1.42,1.42,0,0,1-2,.3l-.09-.07a1.41,1.41,0,0,1-.11-2,1.14,1.14,0,0,1,.11-.11,14.26,14.26,0,0,0,3.86-11.13,14,14,0,0,0-3.7-8.49,2.69,2.69,0,0,1-.57-.91A1.32,1.32,0,0,1,43,9.91a1.36,1.36,0,0,1,1.67.3,16.23,16.23,0,0,1,2.9,4.07A17.49,17.49,0,0,1,49.48,22.28Z"/><path id="Path_60549" data-name="Path 60549" class="cls-2" d="M15.06,21.93A17.07,17.07,0,0,1,19.75,10.3a1.38,1.38,0,0,1,1.69-.42,1.31,1.31,0,0,1,.77,1.5,1.8,1.8,0,0,1-.42.81,14.22,14.22,0,0,0-3.88,10.9,13.94,13.94,0,0,0,3.35,8.28c.19.23.4.44.59.67a1.42,1.42,0,0,1,0,2l0,0A1.38,1.38,0,0,1,19.85,34l-.07-.08a17,17,0,0,1-3-4.38A17.6,17.6,0,0,1,15.06,21.93Z"/><path id="Path_60550" data-name="Path 60550" class="cls-2" d="M44.62,22.08a12.54,12.54,0,0,1-3.1,8,2.43,2.43,0,0,1-1,.67,1.3,1.3,0,0,1-1.41-.64,1.4,1.4,0,0,1,.2-1.69,9.57,9.57,0,0,0,.17-12.58,2.42,2.42,0,0,1-.52-.94,1.3,1.3,0,0,1,.75-1.45,1.43,1.43,0,0,1,1.7.39,11.83,11.83,0,0,1,2.77,5.27C44.38,20.1,44.47,21.1,44.62,22.08Z"/><path id="Path_60551" data-name="Path 60551" class="cls-2" d="M20,22A12.17,12.17,0,0,1,23.09,14a1.41,1.41,0,0,1,2-.36l.11.08a1.42,1.42,0,0,1,.11,2l-.1.1a9.46,9.46,0,0,0,0,12.56,1.41,1.41,0,0,1,.1,2l-.1.1a1.41,1.41,0,0,1-2-.12l-.11-.13A12.23,12.23,0,0,1,20,22Z"/><path id="Path_60552" data-name="Path 60552" class="cls-2" d="M39.7,22.93a7.13,7.13,0,0,1-1.47,3.63,1.44,1.44,0,0,1-2,.55L36.12,27a1.44,1.44,0,0,1-.24-2l.08-.09a4.62,4.62,0,0,0,0-5.64,1.45,1.45,0,0,1,.07-2l.08-.07a1.47,1.47,0,0,1,2,.34l.06.11A8.14,8.14,0,0,1,39.7,22.93Z"/><path id="Path_60553" data-name="Path 60553" class="cls-2" d="M24.82,22a7.29,7.29,0,0,1,1.53-4.42,1.43,1.43,0,0,1,2-.47l.11.08a1.41,1.41,0,0,1,.24,2l-.05.06a4.64,4.64,0,0,0,0,5.73,1.42,1.42,0,0,1-.12,2,.39.39,0,0,1-.1.08,1.43,1.43,0,0,1-2-.36l0-.06A7.59,7.59,0,0,1,24.82,22Z"/><path id="Path_60554" data-name="Path 60554" class="cls-2" d="M32.31,20.35a1.74,1.74,0,1,1-1.78,1.72,1.74,1.74,0,0,1,1.78-1.72Z"/></g></svg>