<?xml version="1.0" encoding="utf-8"?>
<!-- Generator: Adobe Illustrator 17.0.0, SVG Export Plug-In . SVG Version: 6.00 Build 0)  -->
<!DOCTYPE svg PUBLIC "-//W3C//DTD SVG 1.1//EN" "http://www.w3.org/Graphics/SVG/1.1/DTD/svg11.dtd">
<svg version="1.1" id="Layer_1" xmlns="http://www.w3.org/2000/svg" xmlns:xlink="http://www.w3.org/1999/xlink" x="0px" y="0px"
	 width="32px" height="32px" viewBox="0 0 32 32" enable-background="new 0 0 32 32" xml:space="preserve">
<ellipse fill="#FFFFFF" cx="15.986" cy="13.217" rx="9.236" ry="8.97"/>
<path fill="#757584" d="M16,1C9.064,1,3.441,6.47,3.441,13.217c0,2.954,1.081,5.662,2.877,7.775l0.005,0.004
	c0.354,0.416,0.733,0.812,1.141,1.179L16,31l8.536-8.825c0.407-0.367,0.788-0.764,1.142-1.181l0.002-0.002
	c1.797-2.112,2.878-4.82,2.878-7.775C28.559,6.469,22.938,1,16,1z M16,22.187c-5.093,0-9.222-4.017-9.222-8.97
	s4.128-8.97,9.222-8.97c5.094,0,9.222,4.016,9.222,8.97S21.094,22.187,16,22.187z"/>
</svg>
