<?xml version="1.0" encoding="utf-8"?>
<!-- Generator: Adobe Illustrator 17.0.0, SVG Export Plug-In . SVG Version: 6.00 Build 0)  -->
<!DOCTYPE svg PUBLIC "-//W3C//DTD SVG 1.1//EN" "http://www.w3.org/Graphics/SVG/1.1/DTD/svg11.dtd">
<svg version="1.1" id="Layer_1" xmlns="http://www.w3.org/2000/svg" xmlns:xlink="http://www.w3.org/1999/xlink" x="0px" y="0px"
	 width="32px" height="32px" viewBox="0 0 32 32" enable-background="new 0 0 32 32" xml:space="preserve">
<ellipse fill="#FFFFFF" cx="15.986" cy="13.217" rx="9.236" ry="8.97"/>
<path fill="#00FFFF" d="M25.681,20.992l-0.002,0.002c-0.354,0.418-0.735,0.814-1.142,1.181L16,31l-8.537-8.825
	c-0.407-0.367-0.787-0.762-1.141-1.179l-0.004-0.004l0,0c-1.796-2.113-2.877-4.821-2.877-7.775C3.441,6.47,9.064,1,16,1
	c6.938,0,12.559,5.469,12.559,12.217C28.559,16.172,27.478,18.88,25.681,20.992L25.681,20.992z M16,22.187
	c5.094,0,9.222-4.017,9.222-8.97S21.094,4.247,16,4.247s-9.222,4.017-9.222,8.97S10.907,22.187,16,22.187z M12.373,12.751
	c0-1.667,1.05-3.094,2.542-3.695l-2.46-2.105c-1.911,1.259-3.166,3.387-3.166,5.799c0,3.866,3.071,7,7.045,7
	c0.202,0,0.446-0.014,0.446-0.029v-3.029c0,0.028-0.242,0.059-0.446,0.059C14.063,16.751,12.373,14.96,12.373,12.751z"/>
</svg>
