<?xml version="1.0" encoding="utf-8"?>
<!-- Generator: Adobe Illustrator 17.0.0, SVG Export Plug-In . SVG Version: 6.00 Build 0)  -->
<!DOCTYPE svg PUBLIC "-//W3C//DTD SVG 1.1//EN" "http://www.w3.org/Graphics/SVG/1.1/DTD/svg11.dtd">
<svg version="1.1" id="Layer_1" xmlns="http://www.w3.org/2000/svg" xmlns:xlink="http://www.w3.org/1999/xlink" x="0px" y="0px"
	 width="32px" height="32px" viewBox="0 0 32 32" enable-background="new 0 0 32 32" xml:space="preserve">
<ellipse fill="#FFFFFF" cx="15.986" cy="13.217" rx="9.236" ry="8.97"/>
<path fill="#92D050" d="M15.902,17.217c0.419,0,1.098-0.079,1.098-0.192v3.088c0,0.063-0.69,0.104-1.098,0.104
	c-3.975,0-7.044-3.134-7.044-7c0-3.865,3.194-7,7.17-7c2.139,0,4.041,0.913,5.359,2.354l-2.033,2.335
	c-0.745-1.019-1.966-1.689-3.35-1.689c-2.272,0-4.059,1.792-4.059,4C11.944,15.426,13.631,17.217,15.902,17.217z M25.681,20.992
	c1.797-2.112,2.878-4.82,2.878-7.775C28.559,6.469,22.938,1,16,1C9.064,1,3.441,6.47,3.441,13.217c0,2.954,1.081,5.662,2.877,7.775
	l0,0l0.004,0.004c0.354,0.416,0.733,0.812,1.141,1.179L16,31l8.537-8.825c0.407-0.367,0.788-0.764,1.142-1.181L25.681,20.992
	L25.681,20.992z M6.778,13.217c0-4.953,4.128-8.97,9.222-8.97s9.222,4.017,9.222,8.97s-4.128,8.97-9.222,8.97
	C10.907,22.187,6.778,18.17,6.778,13.217z"/>
</svg>
