<?xml version="1.0" encoding="utf-8"?>
<!-- Generator: Adobe Illustrator 17.0.0, SVG Export Plug-In . SVG Version: 6.00 Build 0)  -->
<!DOCTYPE svg PUBLIC "-//W3C//DTD SVG 1.1//EN" "http://www.w3.org/Graphics/SVG/1.1/DTD/svg11.dtd">
<svg version="1.1" id="Layer_1" xmlns="http://www.w3.org/2000/svg" xmlns:xlink="http://www.w3.org/1999/xlink" x="0px" y="0px"
	 width="32px" height="32px" viewBox="0 0 32 32" enable-background="new 0 0 32 32" xml:space="preserve">
<ellipse fill="#FFFFFF" cx="15.986" cy="13.217" rx="9.236" ry="8.97"/>
<path fill="#00506A" d="M16,19.898c-4-0.022-7.187-3.146-7.187-6.998c0-3.866,3.245-7,7.22-7s7.147,3.134,7.147,7
	c0,1.288-0.312,2.491-0.936,3.528L16,13.65V19.898z M25.681,20.992c1.797-2.112,2.878-4.82,2.878-7.775C28.559,6.469,22.938,1,16,1
	C9.064,1,3.441,6.47,3.441,13.217c0,2.954,1.081,5.662,2.877,7.775l0,0l0.004,0.004c0.354,0.416,0.733,0.812,1.141,1.179L16,31
	l8.537-8.825c0.407-0.367,0.788-0.764,1.142-1.181L25.681,20.992L25.681,20.992z M6.778,13.217c0-4.953,4.128-8.97,9.222-8.97
	s9.222,4.017,9.222,8.97s-4.128,8.97-9.222,8.97C10.907,22.187,6.778,18.17,6.778,13.217z"/>
</svg>
