<svg id="Layer_1" data-name="Layer 1" xmlns="http://www.w3.org/2000/svg" width="64" height="64" viewBox="0 0 64 64"><defs><style>.cls-1{fill:#231f20;}</style></defs><g id="AG1"><path id="Path_60595" data-name="Path 60595" class="cls-1" d="M14.48,42.9V35.11H3.07c-.46,0-.63-.11-.62-.6,0-2.29,0-4.59,0-6.86,0-.16,0-.31,0-.53h12V19.23L26.27,31.07Z"/><path id="Path_60596" data-name="Path 60596" class="cls-1" d="M49.59,19.33v7.74h12v8H49.62v7.74L37.84,31.05Z"/><path id="Path_60597" data-name="Path 60597" class="cls-1" d="M26.85,12.78H19L30.83,1,42.66,12.78h-7.8v12h-8Z"/><path id="Path_60598" data-name="Path 60598" class="cls-1" d="M34.85,39.35v4.4c0,2.31,0,4.61,0,6.92,0,.49.13.65.63.64,2.19,0,4.37,0,6.56,0h.51L30.77,63,19.05,51.31H26.8v-12Z"/></g></svg>