<svg id="Layer_1" data-name="Layer 1" xmlns="http://www.w3.org/2000/svg" width="64" height="64" viewBox="0 0 64 64"><defs><style>.cls-1{fill:#231f20;}</style></defs><path id="ALL" class="cls-1" d="M12.42,37.32V19.76A8.85,8.85,0,0,1,21,10.68H55a8.74,8.74,0,0,1,8.85,7.66A45.82,45.82,0,0,1,64,24.08V55.14A8.77,8.77,0,0,1,55.22,64H55.1q-17,0-34,0a8.69,8.69,0,0,1-8.63-8.24c-.15-4.38-.06-8.77-.07-13.16C12.42,40.82,12.43,39.07,12.42,37.32Zm21.73,4.27-.63-.66Q30.79,38,28.05,35a2.6,2.6,0,0,0-3.66-.45l-.18.15A2.58,2.58,0,0,0,24,38.34a1.8,1.8,0,0,0,.19.2q3.95,4.24,7.9,8.45a2.49,2.49,0,0,0,3.48.38,3.45,3.45,0,0,0,.28-.26q8.25-7.94,16.47-15.88a2.71,2.71,0,0,0,.26-3.75,2.65,2.65,0,0,0-3.74,0l-.06.07c-.78.72-1.52,1.46-2.28,2.19ZM51.26,6.69A8.83,8.83,0,0,0,42.83,0H8.69A8.84,8.84,0,0,0,0,8.84V44.39a8.81,8.81,0,0,0,5.6,8.3,7.08,7.08,0,0,0,3.28.58v-4c0-9.88,0-19.76,0-29.64v-.46a12.32,12.32,0,0,1,12.59-12q9.87,0,19.74,0H51.28C51.28,7,51.27,6.84,51.26,6.69Z"/></svg>