<svg id="Layer_1" data-name="Layer 1" xmlns="http://www.w3.org/2000/svg" width="64" height="64" viewBox="0 0 64 64"><defs><style>.cls-1{fill:#231f20;}</style></defs><path id="Fiber_Pop" data-name="Fiber Pop" class="cls-1" d="M54.42,21.26a7,7,0,0,0-6.6-4.16A7.23,7.23,0,0,0,40.9,23a7.14,7.14,0,0,0,4,7.72c.64.31.69.58.46,1.21a10.85,10.85,0,0,1-3.94,5A6,6,0,0,0,39,41c0,.65-.26,1.95-.26,1.95v9.47H34.11V14.16a1.62,1.62,0,0,1,1.12-1.77A7.12,7.12,0,0,0,38.59,2.9a1.24,1.24,0,0,0-.1-.2A7.26,7.26,0,0,0,30.67-1,7.21,7.21,0,0,0,25,5a7.05,7.05,0,0,0,4.06,7.4,1.68,1.68,0,0,1,1.1,1.89q0,15,0,30.07h0v2.21c0,1.94.06,3.88.08,5.82H25.38c0-3.13,0-6.26,0-9.4a12.05,12.05,0,0,0-.21-2.24,7.91,7.91,0,0,0-3.28-4.58A9.43,9.43,0,0,1,18.54,31l1-.54a7.18,7.18,0,0,0-3.89-13.39,7.17,7.17,0,0,0-2,14,1.9,1.9,0,0,1,1,1.11,11.27,11.27,0,0,0,3.64,6.13c3.76,3,3.07,3.44,3.13,7.62l-.76,8.71a9.21,9.21,0,0,0-2.08,2.19c-1.71,2.59-1,5.5-1.12,8.34H47.13c0-1.33,0-2.58,0-3.82A9.7,9.7,0,0,0,47,59.19h0a7.5,7.5,0,0,0-4.13-5.28v-.57l-.06-8.42c0-.66,0-1.32,0-2a3.77,3.77,0,0,1,1.62-3.3,13.76,13.76,0,0,0,5.21-7.71A2,2,0,0,1,50.4,31a21.31,21.31,0,0,0,3.08-2.36A6.54,6.54,0,0,0,54.42,21.26ZM29,5.93a3.16,3.16,0,0,1,3.19-3.12h0A3.26,3.26,0,0,1,35.3,5.92a3.23,3.23,0,0,1-3.23,3.23h0A3.15,3.15,0,0,1,29,6v0ZM16,27.46a3.19,3.19,0,1,1,3.13-3.21h0A3.23,3.23,0,0,1,16,27.47Zm31.92,0a3.19,3.19,0,0,1,0-6.38,3.2,3.2,0,0,1,0,6.39h0Z"/></svg>