<svg id="Layer_1" data-name="Layer 1" xmlns="http://www.w3.org/2000/svg" width="64" height="64" viewBox="0 0 64 64"><defs><style>.cls-1{fill:#231f20;}</style></defs><g id="ILA"><path id="Path_60817" data-name="Path 60817" class="cls-1" d="M58.63,30.66h-9a2.13,2.13,0,0,1-1-.27c-3.15-2-6.28-3.95-9.43-5.91a1,1,0,0,1-.56-1c0-3,0-6.08,0-9.11a1.32,1.32,0,0,0-1.19-1.44c-.82-.1-1.44.54-1.45,1.52v8c-.31-.18-.52-.3-.72-.43-2.21-1.38-4.41-2.78-6.63-4.15a1,1,0,0,1-.54-1c0-2.8,0-5.6,0-8.4V8.26a1.35,1.35,0,0,0-1.26-1.44h-.06a1.33,1.33,0,0,0-1.33,1.33v7.64c-.22-.13-.39-.22-.54-.32l-8.8-5.53a1.38,1.38,0,0,0-2.28,1.25V17.9H5.3a1.31,1.31,0,0,0-1.43,1.16,1,1,0,0,0,0,.25,1.34,1.34,0,0,0,1.42,1.24h8.56V43.45H5.35A1.33,1.33,0,0,0,3.88,44.6,1.31,1.31,0,0,0,5,46.1H13.9v6.63A1.4,1.4,0,0,0,16.24,54q4.31-2.73,8.62-5.43l.66-.39v7.43a1.42,1.42,0,0,0,.74,1.4,1.33,1.33,0,0,0,1.92-1.33q0-4.35,0-8.67a.81.81,0,0,1,.44-.8q3.47-2.16,6.91-4.34c.15-.1.31-.18.54-.31v8A1.42,1.42,0,0,0,36.85,51a1.31,1.31,0,0,0,1.75-.63,1.29,1.29,0,0,0,.12-.67q0-4.63,0-9.29a.8.8,0,0,1,.45-.79C42.05,37.8,45,36,47.82,34.15a4.7,4.7,0,0,1,2.86-.83c2.66.06,5.33,0,8,0a1.32,1.32,0,0,0,1.45-1.17.89.89,0,0,0,0-.23,1.33,1.33,0,0,0-1.37-1.29ZM19,22.25h.83c.1-.71-.16-1.46.49-1.93A1.77,1.77,0,0,1,21.2,20a1.09,1.09,0,0,1,1.18.76,8.34,8.34,0,0,1,.2,1.49c.29,0,.6,0,.91,0a1.32,1.32,0,0,1,.1,2.64,9.73,9.73,0,0,1-1.08,0c0,.37,0,.68,0,1a1.29,1.29,0,0,1-1.3,1.29h0a1.29,1.29,0,0,1-1.28-1.29c0-.29,0-.59,0-1-.34,0-.63,0-.92,0a1.34,1.34,0,0,1-1.38-1.29v-.05A1.35,1.35,0,0,1,19,22.25ZM23.5,44c-.78,0-1.56,0-2.34,0H19a1.33,1.33,0,0,1-1.39-1.28v0a1.31,1.31,0,0,1,1.29-1.33H19c1.5,0,3,0,4.52,0a1.31,1.31,0,0,1,1.33,1.28h0A1.32,1.32,0,0,1,23.52,44Z"/></g></svg>