<svg id="Layer_1" data-name="Layer 1" xmlns="http://www.w3.org/2000/svg" width="64" height="64" viewBox="0 0 64 64"><defs><style>.cls-1{fill:none;}.cls-2{fill:#231f20;}</style></defs><g id="Manhole"><path class="cls-1" d="M28,30.72H11.53A1.29,1.29,0,0,0,10.25,32a1.54,1.54,0,0,0,.07.42,1.3,1.3,0,0,0,1.33.86H28.08a1.28,1.28,0,0,0,1.17-1.94A1.32,1.32,0,0,0,28,30.72Z"/><path class="cls-1" d="M35.91,14.09h6.2a1.79,1.79,0,0,0,.68-.13,1.25,1.25,0,0,0,.68-1.43,1.29,1.29,0,0,0-1.27-1H35.86a1.27,1.27,0,0,0-1.31,1.23,1.43,1.43,0,0,0,.07.46A1.31,1.31,0,0,0,35.91,14.09Z"/><path class="cls-1" d="M35.86,17.93a1.28,1.28,0,0,0-1.3,1.26,1.28,1.28,0,0,0,1.38,1.3H47.26a1.28,1.28,0,0,0,1.36-1.19,1.43,1.43,0,0,0-.06-.51,1.3,1.3,0,0,0-1.33-.86H35.86Z"/><path class="cls-1" d="M28.06,46.09a1.29,1.29,0,0,0,1.36-1.2,1.21,1.21,0,0,0-.07-.5A1.3,1.3,0,0,0,28,43.53H16.64a1.27,1.27,0,0,0-1.29,1.26,1.28,1.28,0,0,0,1.38,1.3H28.06Z"/><path class="cls-1" d="M28.35,50l-.28,0H21.83a1.28,1.28,0,0,0-1.35,1.2,1.24,1.24,0,0,0,.07.51,1.3,1.3,0,0,0,1.29.85H28l.38,0a1.26,1.26,0,0,0,1.07-1.25A1.29,1.29,0,0,0,28.35,50Z"/><path class="cls-1" d="M26,39.69h2.08a1.28,1.28,0,0,0,1.33-1.22,1.34,1.34,0,0,0-.18-.71A1.3,1.3,0,0,0,28,37.13H12.81a1.28,1.28,0,0,0-1.3,1.26,1.28,1.28,0,0,0,1.38,1.3H26Z"/><path class="cls-1" d="M16.76,20.48H28.12a1.26,1.26,0,0,0,1.29-1.26,1.1,1.1,0,0,0-.07-.44A1.3,1.3,0,0,0,28,17.92H16.72a1.29,1.29,0,0,0-1.37,1.2,1.35,1.35,0,0,0,.08.52A1.29,1.29,0,0,0,16.76,20.48Z"/><path class="cls-1" d="M21.85,14.08h6.22a1.27,1.27,0,0,0,1.35-1.2,1.13,1.13,0,0,0,0-.32,1.29,1.29,0,0,0-1.33-1H21.83a1.27,1.27,0,0,0-1.34,1.2,1.35,1.35,0,0,0,.06.49A1.29,1.29,0,0,0,21.85,14.08Z"/><path class="cls-1" d="M12.91,26.89H28.07A1.28,1.28,0,0,0,29.24,25,1.31,1.31,0,0,0,28,24.33H12.8a1.27,1.27,0,0,0-1.28,1.27,1.16,1.16,0,0,0,.07.42A1.3,1.3,0,0,0,12.91,26.89Z"/><path class="cls-1" d="M47.24,43.53H35.91a1.27,1.27,0,0,0-1.18.66,1.2,1.2,0,0,0,0,1.29,1.32,1.32,0,0,0,1.2.62H47.34a1.29,1.29,0,0,0,1.22-1.71A1.31,1.31,0,0,0,47.24,43.53Z"/><path class="cls-1" d="M32,2.55h0v0A29.42,29.42,0,0,0,2.57,32v0A29.39,29.39,0,0,0,31.91,61.44H32A29.38,29.38,0,0,0,61.43,32.09V32A29.42,29.42,0,0,0,32,2.55ZM34.7,58.74h-.14a2.72,2.72,0,0,0-1-1.9,2.59,2.59,0,0,0-3.31.16,2.79,2.79,0,0,0-.82,1.74,26.88,26.88,0,0,1,0-53.51A2.5,2.5,0,0,0,32,7.66h.2a2.49,2.49,0,0,0,2.37-2.39,26.87,26.87,0,0,1,.12,53.48Z"/><path class="cls-1" d="M34.55,25.59a1.27,1.27,0,0,0,1.38,1.29H51.11a1.27,1.27,0,0,0,1.34-1.21,1.22,1.22,0,0,0-.17-.72A1.3,1.3,0,0,0,51,24.33H35.85A1.28,1.28,0,0,0,34.55,25.59Z"/><path class="cls-1" d="M44.17,30.72H35.84A1.29,1.29,0,0,0,34.56,32,1.3,1.3,0,0,0,36,33.29H52.45A1.3,1.3,0,0,0,53.75,32a1.26,1.26,0,0,0-.08-.43,1.3,1.3,0,0,0-1.31-.86Z"/><path class="cls-1" d="M51.08,37.12H35.9a1.28,1.28,0,0,0-1.35,1.21,1.31,1.31,0,0,0,.18.72,1.32,1.32,0,0,0,1.23.64h15.2a1.28,1.28,0,0,0,1.3-1.27,1.31,1.31,0,0,0-.07-.44A1.32,1.32,0,0,0,51.08,37.12Z"/><path class="cls-1" d="M42.49,50l-.36,0H35.94a1.29,1.29,0,0,0-1.37,1.19,1.15,1.15,0,0,0,.07.52,1.29,1.29,0,0,0,1.29.85h6.13l.42,0a1.27,1.27,0,0,0,0-2.49Z"/><path class="cls-2" d="M63.76,28.14a32,32,0,0,0-3.65-11.47A32.08,32.08,0,0,0,42.9,1.89,29.35,29.35,0,0,0,36.42.31C35.21.17,34,.06,32.72,0a30.87,30.87,0,0,0-6.44.5A32.17,32.17,0,0,0,6.2,13.09a31.8,31.8,0,0,0-3.78,6.7A32.45,32.45,0,0,0,.63,25.67,30.23,30.23,0,0,0,.08,29.9c0,.3-.06.6-.08.91V33.2c0,.3.06.6.08.91a30.23,30.23,0,0,0,.55,4.23,32.7,32.7,0,0,0,1.79,5.88A32.17,32.17,0,0,0,18.1,60.83a31.57,31.57,0,0,0,11.77,3.09l.94.08h2.4l.19,0a31.8,31.8,0,0,0,4.13-.45,31.31,31.31,0,0,0,5.76-1.58A32,32,0,0,0,64,33.8,31.49,31.49,0,0,0,63.76,28.14Zm-2.33,4A29.38,29.38,0,0,1,32,61.44h-.1A29.39,29.39,0,0,1,2.57,32v0A29.42,29.42,0,0,1,32,2.57v0h0A29.42,29.42,0,0,1,61.43,32Z"/><path class="cls-2" d="M34.58,5.26a2.49,2.49,0,0,1-2.37,2.39H32a2.5,2.5,0,0,1-2.58-2.42,26.88,26.88,0,0,0,0,53.51A2.79,2.79,0,0,1,30.26,57a2.59,2.59,0,0,1,3.31-.16,2.72,2.72,0,0,1,1,1.9h.14a26.87,26.87,0,0,0-.12-53.48ZM21.83,11.53h6.24a1.29,1.29,0,0,1,1.33,1,1.13,1.13,0,0,1,0,.32,1.27,1.27,0,0,1-1.35,1.2H21.85a1.29,1.29,0,0,1-1.3-.86,1.35,1.35,0,0,1-.06-.49A1.27,1.27,0,0,1,21.83,11.53Zm-5.11,6.39H28a1.3,1.3,0,0,1,1.31.86,1.1,1.1,0,0,1,.07.44,1.26,1.26,0,0,1-1.29,1.26H16.76a1.29,1.29,0,0,1-1.33-.84,1.35,1.35,0,0,1-.08-.52A1.29,1.29,0,0,1,16.72,17.92ZM12.8,24.33H28a1.31,1.31,0,0,1,1.22.62,1.28,1.28,0,0,1-1.17,1.94H12.91A1.3,1.3,0,0,1,11.59,26a1.16,1.16,0,0,1-.07-.42A1.27,1.27,0,0,1,12.8,24.33Zm-1.22,14.5a1.31,1.31,0,0,1-.07-.44,1.28,1.28,0,0,1,1.3-1.26H28a1.3,1.3,0,0,1,1.24.63,1.34,1.34,0,0,1,.18.71,1.28,1.28,0,0,1-1.33,1.22H12.89A1.31,1.31,0,0,1,11.58,38.83Zm3.84,6.4a1.31,1.31,0,0,1-.07-.44,1.27,1.27,0,0,1,1.29-1.26H28a1.3,1.3,0,0,1,1.35.86,1.21,1.21,0,0,1,.07.5,1.29,1.29,0,0,1-1.36,1.2H16.73A1.3,1.3,0,0,1,15.42,45.23Zm12.94,7.22-.38,0H21.84a1.3,1.3,0,0,1-1.29-.85,1.24,1.24,0,0,1-.07-.51,1.28,1.28,0,0,1,1.35-1.2h6.24l.28,0a1.29,1.29,0,0,1,1.08,1.25A1.26,1.26,0,0,1,28.36,52.45Zm-.28-19.16H11.65a1.3,1.3,0,0,1-1.33-.86,1.54,1.54,0,0,1-.07-.42,1.29,1.29,0,0,1,1.28-1.28H28a1.32,1.32,0,0,1,1.24.63,1.28,1.28,0,0,1-1.17,1.94Zm20.48-14.5a1.43,1.43,0,0,1,.06.51,1.28,1.28,0,0,1-1.36,1.19H35.94a1.28,1.28,0,0,1-1.38-1.3,1.28,1.28,0,0,1,1.3-1.26H47.23A1.3,1.3,0,0,1,48.56,18.79Zm-12.7-7.26H42.2a1.29,1.29,0,0,1,1.27,1A1.25,1.25,0,0,1,42.79,14a1.79,1.79,0,0,1-.68.13h-6.2a1.31,1.31,0,0,1-1.29-.87,1.43,1.43,0,0,1-.07-.46A1.27,1.27,0,0,1,35.86,11.53Zm6.62,40.92-.42,0H35.93a1.29,1.29,0,0,1-1.29-.85,1.15,1.15,0,0,1-.07-.52,1.29,1.29,0,0,1,1.37-1.19h6.19l.36,0a1.27,1.27,0,0,1,0,2.49Zm4.86-6.36H36a1.32,1.32,0,0,1-1.2-.62,1.2,1.2,0,0,1,0-1.29,1.27,1.27,0,0,1,1.18-.66H47.24a1.27,1.27,0,0,1,1.39,1.29A1.3,1.3,0,0,1,47.34,46.09Zm3.82-6.4H36a1.32,1.32,0,0,1-1.23-.64,1.31,1.31,0,0,1-.18-.72,1.28,1.28,0,0,1,1.35-1.21H51.08a1.32,1.32,0,0,1,1.31.86,1.31,1.31,0,0,1,.07.44A1.28,1.28,0,0,1,51.16,39.69Zm2.51-8.11a1.26,1.26,0,0,1,.08.43,1.3,1.3,0,0,1-1.3,1.28H36A1.3,1.3,0,0,1,34.56,32a1.29,1.29,0,0,1,1.28-1.27H52.36A1.3,1.3,0,0,1,53.67,31.58ZM52.28,25a1.22,1.22,0,0,1,.17.72,1.27,1.27,0,0,1-1.34,1.21H35.93a1.27,1.27,0,0,1-1.38-1.29,1.28,1.28,0,0,1,1.3-1.26H51A1.3,1.3,0,0,1,52.28,25Z"/></g></svg>