<svg id="Layer_1" data-name="Layer 1" xmlns="http://www.w3.org/2000/svg" width="64" height="64" viewBox="0 0 64 64"><defs><style>.cls-1{fill:#231f20;}</style></defs><g id="Others"><path id="Path_60521" data-name="Path 60521" class="cls-1" d="M28.35,16.67V6.44a3,3,0,0,0-2.53-3.3,3.22,3.22,0,0,0-.76,0H4.54A2.93,2.93,0,0,0,1.25,5.69a3.22,3.22,0,0,0,0,.76V26.91a2.94,2.94,0,0,0,2.53,3.3,2.49,2.49,0,0,0,.77,0H25a2.93,2.93,0,0,0,3.34-2.48,3.37,3.37,0,0,0,0-.84Q28.37,21.81,28.35,16.67ZM14.8,36.07H4.5a2.94,2.94,0,0,0-3.24,2.61,3,3,0,0,0,0,.67V59.8a3,3,0,0,0,2.57,3.35,3.22,3.22,0,0,0,.76,0H25.06a2.94,2.94,0,0,0,3.3-2.53,2.49,2.49,0,0,0,0-.77V39.33a2.91,2.91,0,0,0-2.51-3.26,2.3,2.3,0,0,0-.74,0l-10.31,0Zm33.18,0H37.69a2.9,2.9,0,0,0-3.24,2.53,3,3,0,0,0,0,.73V59.85A2.94,2.94,0,0,0,37,63.15a3.31,3.31,0,0,0,.77,0H58.22a3,3,0,0,0,3.33-2.59,3.22,3.22,0,0,0,0-.76V39.41A3,3,0,0,0,59,36.07a2.62,2.62,0,0,0-.79,0L48,36.09Zm-.4-3.1A2.94,2.94,0,0,0,49.72,32l2.43-2.43L61.75,20a2.83,2.83,0,0,0,.38-4l-.22-.24Q55.76,9.62,49.58,3.46a2.81,2.81,0,0,0-4-.1l-.11.12Q39.35,9.6,33.23,15.75a2.81,2.81,0,0,0-.12,4l.1.1Q39.36,26,45.54,32.15a2.66,2.66,0,0,0,2,.83Z"/></g></svg>