<svg id="Layer_1" data-name="Layer 1" xmlns="http://www.w3.org/2000/svg" width="64" height="64" viewBox="0 0 64 64"><defs><style>.cls-1,.cls-3{fill:#231f20;}.cls-2,.cls-3{isolation:isolate;}.cls-3{font-size:24.28px;font-family:MyriadPro-Bold, Myriad Pro;font-weight:700;}</style></defs><g id="SAG_2" data-name="SAG 2"><path id="Path_60788" data-name="Path 60788" class="cls-1" d="M51.64,62.85l7.68-7.7H54.23c0-2.64.08-21.62.08-24.2a21.18,21.18,0,0,0-4.7-13.3h7.51v5.08L64.82,15l-7.7-7.68v5.09H43.49A21.18,21.18,0,0,0,17,17V7.06h5.08l-7.7-7.7L6.66,7.05h5.09c0,2.65,0,21.31,0,23.89a21.14,21.14,0,0,0,4.79,13.43c-3,.08-6.19.17-7.65.17V39.45l-7.7,7.71,7.69,7.68V49.76H23.08A21.2,21.2,0,0,0,49,45V55.16H43.92ZM33,46.92A16,16,0,1,1,49,31h0A16,16,0,0,1,33,46.92Z"/><g id="_2" data-name=" 2" class="cls-2"><text class="cls-3" transform="translate(27.02 38.32)">2</text></g></g></svg>