<svg id="Layer_1" data-name="Layer 1" xmlns="http://www.w3.org/2000/svg" width="64" height="64" viewBox="0 0 64 64"><defs><style>.cls-1{fill:#1a7ddd;}.cls-2{fill:#f0f3f5;}</style></defs><g id="Group_13148" data-name="Group 13148"><rect id="Rectangle_2239" data-name="Rectangle 2239" class="cls-1" width="64" height="64" rx="11.29"/></g><g id="Group_13193" data-name="Group 13193"><path id="Path_60799" data-name="Path 60799" class="cls-2" d="M55.27,50.84h-44V32H31.71v-.52q0-6.79,0-13.61a.83.83,0,0,0-.37-.75,3.13,3.13,0,0,1-.54-4.39,2,2,0,0,1,.19-.22,3.16,3.16,0,0,1,4.46-.13l.14.14a3.12,3.12,0,0,1-.15,4.41l-.23.2a.83.83,0,0,0-.36.77q0,6.68,0,13.36V32H55.27ZM17.58,43h22V39.87h-22Zm28.26,1.6A3.13,3.13,0,0,0,49,41.45v0a3.13,3.13,0,0,0-3.13-3.15h0a3.14,3.14,0,0,0,0,6.28Z"/><path id="Path_60800" data-name="Path 60800" class="cls-2" d="M19.33,7.69l2.75,1.4a12,12,0,0,0,0,11.18l-2.71,1.38A14.54,14.54,0,0,1,19.33,7.69Z"/><path id="Path_60801" data-name="Path 60801" class="cls-2" d="M44.49,9.09l2.8-1.42a15.11,15.11,0,0,1,0,14l-2.8-1.42A12,12,0,0,0,44.49,9.09Z"/><path id="Path_60802" data-name="Path 60802" class="cls-2" d="M25.72,20.25a9.38,9.38,0,0,1,0-11.13l2.58,1.69a6.34,6.34,0,0,0,0,7.72Z"/><path id="Path_60803" data-name="Path 60803" class="cls-2" d="M40.85,20.24,38.3,18.55a6.44,6.44,0,0,0,0-7.75l2.54-1.68A9.24,9.24,0,0,1,40.85,20.24Z"/></g></svg>