<svg id="Layer_1" data-name="Layer 1" xmlns="http://www.w3.org/2000/svg" width="64" height="64" viewBox="0 0 64 64"><defs><style>.cls-1{fill:#231f20;}</style></defs><g id="AG2_OTN" data-name="AG2+OTN"><path id="Path_60600" data-name="Path 60600" class="cls-1" d="M58.85,58.25l-10-5.76v3.43H40.63a.59.59,0,0,1-.38-.29c-.75-1.23-1.48-2.47-2.24-3.7-.46-.75-.94-1.49-1.42-2.23s-.81-1.49-1.25-2.21a.66.66,0,0,1,0-.82c1.61-2.67,3.21-5.33,4.81-8a.78.78,0,0,1,.79-.46c2.44,0,4.9,0,7.33,0l.63,0v3.41l9.9-5.71-9.94-5.75V33.6l-.24,0-9.47,0a2.07,2.07,0,0,0-1.86,1c-1.39,2.26-2.75,4.54-4.13,6.81-.23.39-.47.78-.74,1.19-.09-.12-.18-.23-.26-.36-1.45-2.42-2.91-4.85-4.35-7.29a2.43,2.43,0,0,0-2.27-1.3c-2.41,0-4.82,0-7.22,0l-.65,0V30.21L7.75,35.89l10,5.77V38.18h.6c1.84,0,3.68,0,5.51,0a.93.93,0,0,1,.93.53q2.38,4,4.81,8a.6.6,0,0,1,0,.73,10.53,10.53,0,0,0-.52.93,4,4,0,0,0-.26.32l-4,6.74a.86.86,0,0,1-.84.5c-1.89,0-3.78,0-5.67,0-.17,0-.34,0-.56,0V52.52L7.73,58.25l10,5.75V60.56h7.49a6.09,6.09,0,0,0,.73-.1c.4-.13.95-.14,1.18-.41a24.59,24.59,0,0,0,1.58-2.34c1.14-1.88,2.87-4.67,4-6.55.08-.13,3.17,6.07,4.32,8a2.64,2.64,0,0,0,2.51,1.39c2.87,0,5.73,0,8.6,0h.8V64Z"/><path id="Path_60844" data-name="Path 60844" class="cls-1" d="M57.19,12.32,46.9.88V8.54H15.45V.88L5.15,12.32l10.3,11.44V16.11H46.9v7.65Z"/></g></svg>