<svg id="Layer_1" data-name="Layer 1" xmlns="http://www.w3.org/2000/svg" width="64" height="64" viewBox="0 0 64 64"><defs><style>.cls-1{fill:#231f20;}</style></defs><g id="AG3"><g id="Group_13218" data-name="Group 13218"><path id="Path_60818" data-name="Path 60818" class="cls-1" d="M33.78,13l.78-1.2,2.18-3.25c.56-.85.56-1,0-1.86L34.33,3.05A1.61,1.61,0,0,1,34,2.33c1.41.22,2.83.35,4.21.68a29.48,29.48,0,0,1,21.4,18.55A27.58,27.58,0,0,1,61.55,31a1,1,0,0,1-.36.74c-1.49,1-3,2-4.51,3a.61.61,0,0,1-.82,0l-4.41-2.94a1,1,0,0,1-.54-.89A19.19,19.19,0,0,0,34.19,13.07Z"/><path id="Path_60819" data-name="Path 60819" class="cls-1" d="M12.79,30.12l-4.45-3c-.86-.57-1-.57-1.91,0-1.38.92-2.76,1.84-4.31,2.7.18-1.19.3-2.39.53-3.56A29.77,29.77,0,0,1,26.87,2.72a36.27,36.27,0,0,1,3.9-.39,1,1,0,0,1,.73.35c1,1.49,2,3,3,4.51a.61.61,0,0,1,0,.82q-1.51,2.22-3,4.47a1,1,0,0,1-.85.49,18.93,18.93,0,0,0-15,8.86A18.74,18.74,0,0,0,12.79,30.12Z"/><path id="Path_60820" data-name="Path 60820" class="cls-1" d="M29.9,51.1c-.82,1.22-1.59,2.38-2.35,3.54-1.38,2.08-1.39,1.63,0,3.73l2.08,3.16s0,.08,0,.26c-1.44-.23-2.87-.35-4.25-.7A29.27,29.27,0,0,1,3.12,39.69a51.72,51.72,0,0,1-1-6.54.73.73,0,0,1,.39-.81q2.25-1.47,4.47-3a.66.66,0,0,1,.87,0c1.47,1,3,2,4.46,3a1.19,1.19,0,0,1,.44.78,19.27,19.27,0,0,0,17.18,18Z"/><path id="Path_60821" data-name="Path 60821" class="cls-1" d="M50.88,34l4.32,2.88c1,.69,1.12.69,2.13,0l3.92-2.6a1.34,1.34,0,0,1,.26-.09c-.12,1-.18,2-.37,2.89A29.47,29.47,0,0,1,42.28,59.89a27.52,27.52,0,0,1-9.45,1.89,1,1,0,0,1-.68-.34c-1-1.5-2-3-3-4.51a.65.65,0,0,1,0-.88q1.48-2.2,2.94-4.41a1,1,0,0,1,.84-.49,18.82,18.82,0,0,0,12.37-5.54A19.08,19.08,0,0,0,50.88,34Z"/></g><path id="Path_60826" data-name="Path 60826" class="cls-1" d="M7.32,28.75-.4,33.85H15.7Z"/><path id="Path_60827" data-name="Path 60827" class="cls-1" d="M34.77,7.55l-4.9,7.93V0Z"/><path id="Path_60828" data-name="Path 60828" class="cls-1" d="M56.31,35l8.09-5.35H47.2Z"/><path id="Path_60829" data-name="Path 60829" class="cls-1" d="M28.31,56.18l5.93-7.68v17Z"/></g></svg>