<svg id="Layer_1" data-name="Layer 1" xmlns="http://www.w3.org/2000/svg" width="64" height="64" viewBox="0 0 64 64"><defs><style>.cls-1{fill:#231f20;}</style></defs><g id="OSC"><path class="cls-1" d="M41.16,31a6.91,6.91,0,0,0-4.4-6.48,12.28,12.28,0,0,0-8.87.11,6.33,6.33,0,0,0-4.2,5.74,6,6,0,0,0,3.43,6.28,46.44,46.44,0,0,0,4.8,1.83,23.19,23.19,0,0,1,2.4.91,2.17,2.17,0,0,1,1.23,2.31,2.35,2.35,0,0,1-1.8,2,3.42,3.42,0,0,1-4.34-2.14l0-.1c-.17-.51-.29-1-.46-1.66l-6.05.43c.07.59.1,1,.19,1.4a7.44,7.44,0,0,0,4,5.87,12.84,12.84,0,0,0,10.24.1,7.33,7.33,0,0,0,4.49-7.15,6.7,6.7,0,0,0-4.36-6.71,29.6,29.6,0,0,0-3.2-1.13c-1.14-.36-2.3-.63-3.46-1A1.49,1.49,0,0,1,29.66,30a1.75,1.75,0,0,1,1.51-1.6,2.94,2.94,0,0,1,3.67,2l.06.24c.08.25.16.51.26.78Z"/><path class="cls-1" d="M58.53,38.41c-.31.9-.51,1.66-.83,2.38A3.46,3.46,0,0,1,53.91,43a3.42,3.42,0,0,1-3.17-2.66,15.43,15.43,0,0,1-.05-7.84,4.79,4.79,0,0,1,.7-1.48,3.69,3.69,0,0,1,6.45.64c.15.33.25.68.4,1.06L61.11,32c.93-.23,1.84-.47,2.75-.71A8.76,8.76,0,0,0,55.77,24a9.82,9.82,0,0,0-11.54,7.72,9,9,0,0,0-.15,1,22.4,22.4,0,0,0-.15,5.84c.69,6,4,10.24,11.1,10a9,9,0,0,0,9-8.3Z"/><path class="cls-1" d="M11.6,23.94A10.07,10.07,0,0,0-.11,32c0,.28-.09.57-.12.86a24.61,24.61,0,0,0,0,6.75,9.72,9.72,0,0,0,9.69,8.92A9.87,9.87,0,0,0,20.7,40.26c.28-1.31.34-2.65.47-3.76-.07-1.09-.11-2-.19-2.8A10,10,0,0,0,11.6,23.94Zm2.51,16.28A3.67,3.67,0,0,1,10.47,43a3.75,3.75,0,0,1-3.92-2.59,12.73,12.73,0,0,1,0-8.29,3.73,3.73,0,0,1,3.74-2.69,3.79,3.79,0,0,1,3.81,2.74,31.61,31.61,0,0,1,.71,4C14.63,37.53,14.4,38.88,14.11,40.22Z"/><polygon class="cls-1" points="21.17 36.49 21.17 36.49 21.17 36.5 21.17 36.49"/></g></svg>