<svg id="Layer_1" data-name="Layer 1" xmlns="http://www.w3.org/2000/svg" width="64" height="64" viewBox="0 0 64 64"><defs><style>.cls-1{fill:#231f20;}</style></defs><path id="Pole" class="cls-1" d="M41.65,62H33.26V22.85a.92.92,0,0,1,.23-.64l2.57-3.06,7.5-9a.83.83,0,0,1,.7-.33c2.84,0,5.69,0,8.53,0a1.1,1.1,0,0,0,1.14-1.06V8.7a1.09,1.09,0,0,0-1.12-1.07H50.09V2.29a1.07,1.07,0,0,0-.62-1,1.11,1.11,0,0,0-1.59,1V7.61H44.42V2.35a1.48,1.48,0,0,0-.27-.81A1,1,0,0,0,43,1.21a1.1,1.1,0,0,0-.72,1.08V7.63H21.87V2.29a1.1,1.1,0,0,0-1.06-1.13,1,1,0,0,0-.38.05,1.12,1.12,0,0,0-.77,1.15V7.63H16.2V2.35a1.08,1.08,0,0,0-.46-1,1,1,0,0,0-1.13-.09,1.07,1.07,0,0,0-.61,1V7.65H11.53a1.1,1.1,0,1,0,.08,2.2h8.83a.46.46,0,0,1,.42.2l1.35,1.63,1.68,2.05c2.34,2.83,4.66,5.66,7,8.49a.84.84,0,0,1,.21.59V62H8.72a1.09,1.09,0,0,0-1,1.17,1.28,1.28,0,0,0,0,.27,1.11,1.11,0,0,0,1.18.76H57.8a1.11,1.11,0,0,0,1.05-1.15s0-.1,0-.15A1.11,1.11,0,0,0,57.59,62H43.9"/></svg>