<svg xmlns="http://www.w3.org/2000/svg" width="64" height="64" viewBox="0 0 64 64">
  <g id="Group_16519" data-name="Group 16519" transform="translate(-11502 -936)">
    <g id="Group_16518" data-name="Group 16518">
      <g id="Group_16517" data-name="Group 16517">
        <g id="Group_16516" data-name="Group 16516">
          <circle id="Ellipse_2230" data-name="Ellipse 2230" cx="32" cy="32" r="32" transform="translate(11502 936)" fill="#03a9f4"/>
          <g id="Group_16515" data-name="Group 16515" transform="translate(94 -29.5)">
            <g id="Group_16514" data-name="Group 16514" transform="translate(11420.001 980.5)">
              <path id="Polygon_7" data-name="Polygon 7" d="M14.773,1.259a2.277,2.277,0,0,1,4.073,0L33.38,30.324a2.277,2.277,0,0,1-2.037,3.3H2.277a2.277,2.277,0,0,1-2.037-3.3Z" transform="translate(0 33.621) rotate(-90)" fill="rgba(255,255,255,0)" stroke="#fff" stroke-linejoin="round" stroke-width="3"/>
              <path id="Path_63492" data-name="Path 63492" d="M16.116,6.931,13.541,5.213a.429.429,0,0,0-.667.357v1.1A5.461,5.461,0,0,0,8.8,8.361V3.424H9.87a.429.429,0,0,0,.357-.668L8.511.179a.445.445,0,0,0-.714,0L6.08,2.756a.429.429,0,0,0,.357.668H7.51V8.361A5.465,5.465,0,0,0,3.433,6.675V5.57a.429.429,0,0,0-.667-.357L.191,6.93a.429.429,0,0,0,0,.714L2.766,9.363a.429.429,0,0,0,.667-.357V7.96C6.2,8.1,7.51,9.519,7.51,12.442V28.5a.644.644,0,1,0,1.287,0V12.443c0-2.923,1.311-4.346,4.077-4.482V9.006a.429.429,0,0,0,.667.357l2.575-1.718a.429.429,0,0,0,0-.714Z" transform="translate(30.003 8.244) rotate(90)" fill="#fff" stroke="#fff" stroke-width="0.3"/>
            </g>
            <circle id="Ellipse_2231" data-name="Ellipse 2231" cx="2.177" cy="2.177" r="2.177" transform="translate(11433.062 994.106)" fill="#fff"/>
          </g>
        </g>
      </g>
    </g>
  </g>
</svg>
