<svg id="Layer_1" data-name="Layer 1" xmlns="http://www.w3.org/2000/svg" width="64" height="64" viewBox="0 0 64 64"><defs><style>.cls-1{fill:#1a7ddd;}.cls-2{fill:#fff;}</style></defs><g id="Group_13198" data-name="Group 13198"><rect id="Rectangle_2261-2" data-name="Rectangle 2261-2" class="cls-1" width="64" height="64" rx="11.29"/></g><g id="Group_13249" data-name="Group 13249"><path id="Path_60840" data-name="Path 60840" class="cls-2" d="M41.61,29.94v.93c0,.2-.07.29-.29.28H33.86a3.65,3.65,0,0,0-.34-1c1.38-1.38,2.77-2.76,4.14-4.15L39,24.64l.8,1,1-3.88-3.77,1-.06.11.84.69a.61.61,0,0,1-.05.12l-5.27,5.27a3.56,3.56,0,0,0-5.37,1.4H19.78c-.28,0-.38.07-.38.36,0,.8,0,1.59,0,2.39,0,.42,0,.42.42.42h7.42a3.55,3.55,0,0,0,4.82,1.4,1.28,1.28,0,0,0,.25-.15l.07.06c1.13,1.16,2.28,2.29,3.42,3.42l2.07,2L37,41l.06.09,3.77,1-1-3.77-.11-.05-.71.83a.3.3,0,0,1-.11-.06c-1.72-1.72-3.43-3.45-5.16-5.16a1.69,1.69,0,0,1-.27-.32,3.33,3.33,0,0,0,.36-.87h7.47c.27,0,.36.08.34.35s0,.53,0,.86l3.43-2Z"/><path id="Path_60841" data-name="Path 60841" class="cls-2" d="M49.67,18.34V13.59h0V10.47a1.6,1.6,0,0,0-1.61-1.58,1.48,1.48,0,0,0-.74.19c-.81.44-1.6.91-2.39,1.37l-8.56,4.92-8.9,5.15L18.9,25.46l-8.66,5a1.61,1.61,0,0,0-.61,2.19,2.2,2.2,0,0,0,.17.25,1.36,1.36,0,0,0,.48.41L36.79,48.6l2.73,1.57.25.14h0l7.41,4.28a1.56,1.56,0,0,0,1.36.18,1.6,1.6,0,0,0,1.13-1.68V51.34h0v-33Zm-36.25,14-.24-.19.24.19Zm-.14-.59V31.6h0v.19Zm-.41-.15.07,0Zm-.07.43,0,.16Zm.37.89a.49.49,0,0,0,.1-.26s0-.08-.09-.12.09.08.09.12A.49.49,0,0,1,13.17,33Zm.54-1.06.16.18,0,0,0,0-.16-.17ZM14,32c0-.06-.09-.12-.13-.19S14,31.9,14,32Zm-.65-.67Zm-1,.7.15-.09-.15.09a.61.61,0,0,0-.16.16.57.57,0,0,1,.15-.16Zm-.19.34h0v0ZM46.48,50.45l-.33-.14-2.74-1.58h0L42,47.9h0l-2-1.13,0,0-1-.58h0a15.63,15.63,0,0,0-1.73-1C35.38,44.08,33.53,43,31.69,42l-5.51-3.2-5.22-3-5.19-3L14.38,32l-.21-.1L46.46,13.23v6.34h0V50.45Z"/></g></svg>