<svg id="Layer_1" data-name="Layer 1" xmlns="http://www.w3.org/2000/svg" width="64" height="64" viewBox="0 0 64 64"><defs><style>.cls-1{fill:#03a9f4;}</style></defs><path class="cls-1" d="M23.77,29.26c1.71.79,3.2,1.45,4.67,2.15a.75.75,0,0,0,1-.14c1-.82,2-1.6,3.09-2.36a.67.67,0,0,0,.34-.76c-.27-1.49-.47-3-.73-4.48-.08-.43,0-.64.48-.77,1.86-.52,3.71-1.08,5.64-1.64.45,1.18.85,2.19,1.23,3.2.25.67.3,1.56.79,1.95s1.36.17,2.07.27c1,.15,2.09.35,3.21.55.92-1.26,1.91-2.57,2.85-3.92.31-.43.59-.56,1.06-.28l4.4,2.54c.54.3.51.65.26,1.14-.63,1.26-1.23,2.54-1.8,3.82a.86.86,0,0,0,.06.75c1,1.24,2,2.44,3,3.73l5.32-.87a14.66,14.66,0,0,1,1.44,4.94c.19,1.3.18,1.31-1.12,1.8-1.12.42-2.24.86-3.37,1.26a.7.7,0,0,0-.52.73c-.15,1.4-.34,2.81-.59,4.2a.63.63,0,0,0,.31.76c1.37,1,2.72,1.92,4.22,3l-3.27,5.51L54,54.58c-1.37-.62-1.34-.58-2.48.36A25.39,25.39,0,0,1,49,56.64a.7.7,0,0,0-.41.85c.27,1.44.46,2.89.72,4.34.08.46,0,.71-.52.83L43.64,64c-.39.11-.58,0-.71-.41-.52-1.42-1.09-2.83-1.59-4.26-.15-.41-.37-.49-.79-.53-1.31-.13-2.62-.29-3.91-.53a.82.82,0,0,0-1,.34c-.94,1.37-1.93,2.71-2.9,4.06a21.19,21.19,0,0,1-5.16-3,.6.6,0,0,1-.23-.88c.64-1.33,1.23-2.68,1.87-4a.72.72,0,0,0-.13-.93c-.8-1-1.55-2-2.27-3a.71.71,0,0,0-.83-.37c-1.66.31-3.32.55-5.19.85l-1.67-6.2c1.72-.64,3.26-1.24,4.82-1.79a.79.79,0,0,0,.61-.81c.12-1.3.32-2.59.53-3.88a.71.71,0,0,0-.33-.84c-1.38-1-2.74-2-4.27-3.06ZM48.69,42.79a8,8,0,1,0-8.14,7.74C45,50.51,48.73,47,48.69,42.79Z"/><path class="cls-1" d="M31.8,6.66,29.1,10c.46,1.17.88,2.27,1.35,3.35a.8.8,0,0,0,.57.4c1.24.16,2.48.28,3.78.41A12.4,12.4,0,0,1,34.74,19l-4,.4c-.58,1.24-1.13,2.38-1.64,3.53a.77.77,0,0,0,.19.62c.77.95,1.56,1.88,2.45,3l-3.52,3.52c-1.06-.87-2-1.63-2.94-2.44a.78.78,0,0,0-1-.13,19.45,19.45,0,0,1-2.56,1,.74.74,0,0,0-.61.74c-.1,1.22-.25,2.43-.39,3.73h-5c-.1-1-.21-1.9-.28-2.82-.1-1.46-.1-1.44-1.52-1.95a7.82,7.82,0,0,1-1.68-.79c-.49-.34-.77-.24-1.17.11-.89.79-1.83,1.51-2.8,2.3a19.3,19.3,0,0,1-3.56-3.55c.82-1,1.61-1.91,2.44-2.84a.75.75,0,0,0,.13-1,17.55,17.55,0,0,1-1-2.47.64.64,0,0,0-.67-.52c-1.08-.08-2.17-.2-3.25-.28-.39,0-.6-.12-.6-.53,0-1.51,0-3,0-4.56C3,14,4.22,13.82,5.47,13.73c.45,0,.59-.17.72-.6a13.58,13.58,0,0,1,1-2.41A.9.9,0,0,0,7,9.5c-.78-.87-1.5-1.8-2.36-2.83L8.25,3.2c1.08.88,2.07,1.66,3,2.47a.7.7,0,0,0,.9.09c1-.48,2-.88,3-1.35L15.67.26A12.34,12.34,0,0,1,20.32.21c.17,0,.37.36.4.57.15,1.21.25,2.42.36,3.54l3.85,1.61,3.41-2.75ZM18.22,10.49c-3.08-.31-6.24,2.58-6.21,6a6.16,6.16,0,0,0,12.31-.05C24.35,13.26,21.38,10.21,18.22,10.49Z"/><path class="cls-1" d="M33.81,42.63a6.85,6.85,0,1,1,6.75,6.76A6.76,6.76,0,0,1,33.81,42.63Zm11.91,0a5.09,5.09,0,1,0-5.16,5A5.09,5.09,0,0,0,45.72,42.68Z"/><path class="cls-1" d="M18.13,21.73a5.21,5.21,0,1,1,5.26-5.24A5.28,5.28,0,0,1,18.13,21.73Zm-3.9-5.26a3.91,3.91,0,1,0,4-3.83A3.82,3.82,0,0,0,14.23,16.47Z"/></svg>