<svg id="Layer_1" data-name="Layer 1" xmlns="http://www.w3.org/2000/svg" width="64" height="64" viewBox="0 0 64 64"><defs><style>.cls-1{fill:#1a7ddd;}.cls-2{fill:#fff;}</style></defs><g id="Group_13197" data-name="Group 13197"><rect id="Rectangle_2261" data-name="Rectangle 2261" class="cls-1" width="64" height="64" rx="11.29"/></g><g id="Group_13247" data-name="Group 13247"><path id="Path_60834" data-name="Path 60834" class="cls-2" d="M55.26,34.86A2.27,2.27,0,0,0,53.1,36.4L39.69,32.65V30.46l13.07-3a2.34,2.34,0,1,0,.45-3.28,2.3,2.3,0,0,0-.9,2.21L39.69,29.29v-1.6l7.39-8.33a2.29,2.29,0,1,0-.84-.78L39.69,26V20.7l-21.27,10L12,31.09a2.29,2.29,0,1,0,0,1.15l6.22-.34L39.7,42.6V38l8.61,7.92a2.27,2.27,0,1,0,.64-1L39.7,36.41V33.84L53,37.56a2.29,2.29,0,1,0,2.26-2.7Z"/></g></svg>