<svg id="Layer_1" data-name="Layer 1" xmlns="http://www.w3.org/2000/svg" width="64" height="64" viewBox="0 0 64 64"><defs><style>.cls-1{fill:#94c65a;}.cls-2{fill:#fff;}</style></defs><g id="Group_13204" data-name="Group 13204"><rect id="Rectangle_2261-4" data-name="Rectangle 2261-4" class="cls-1" width="63.98" height="63.98" rx="11.29"/></g><g id="Group_13205" data-name="Group 13205"><path id="Path_60595" data-name="Path 60595" class="cls-2" d="M19.06,40.24V34.16h-8.9c-.36,0-.49-.08-.48-.47,0-1.78,0-3.57,0-5.35,0-.12,0-.24,0-.41h9.35V21.77L28.27,31Z"/><path id="Path_60596" data-name="Path 60596" class="cls-2" d="M46.46,21.85v6h9.33v6.26H46.48V40.2L37.3,31Z"/><path id="Path_60597" data-name="Path 60597" class="cls-2" d="M28.72,16.74H22.63l9.19-9.22,9.24,9.22H35V26.1H28.72Z"/><path id="Path_60598" data-name="Path 60598" class="cls-2" d="M35,37.47v3.44c0,1.8,0,3.59,0,5.4,0,.37.1.5.5.5,1.7,0,3.41,0,5.11,0H41L31.78,56l-9.15-9.14h6.05V37.47Z"/></g></svg>