<svg id="Layer_1" data-name="Layer 1" xmlns="http://www.w3.org/2000/svg" width="64" height="64" viewBox="0 0 64 64"><defs><style>.cls-1{fill:#94c65a;}.cls-2{fill:#fff;}</style></defs><g id="Group_13212" data-name="Group 13212"><g id="Group_13201" data-name="Group 13201"><rect id="Rectangle_2261-5" data-name="Rectangle 2261-5" class="cls-1" width="63.78" height="63.78" rx="11.26"/></g></g><g id="Group_13218" data-name="Group 13218"><path id="Path_60818" data-name="Path 60818" class="cls-2" d="M33.65,17.57l.6-.92,1.67-2.5c.43-.65.43-.78,0-1.42L34.07,9.94a1.21,1.21,0,0,1-.22-.55c1.08.17,2.17.27,3.23.53a22.55,22.55,0,0,1,16.38,14.2,21.13,21.13,0,0,1,1.46,7.23.79.79,0,0,1-.28.57c-1.14.79-2.31,1.54-3.46,2.33a.47.47,0,0,1-.62,0c-1.13-.77-2.26-1.52-3.38-2.25a.79.79,0,0,1-.41-.69A14.67,14.67,0,0,0,34,17.62Z"/><path id="Path_60819" data-name="Path 60819" class="cls-2" d="M17.58,30.67,14.17,28.4c-.66-.44-.8-.44-1.46,0-1.06.7-2.11,1.4-3.3,2.06.13-.91.23-1.82.41-2.72a22.78,22.78,0,0,1,18.54-18c1-.15,2-.25,3-.3a.74.74,0,0,1,.57.27c.79,1.14,1.54,2.31,2.33,3.45a.47.47,0,0,1,0,.63C33.46,14.88,32.7,16,32,17.17a.74.74,0,0,1-.65.37A14.71,14.71,0,0,0,17.58,30.67Z"/><path id="Path_60820" data-name="Path 60820" class="cls-2" d="M30.68,46.73c-.63.94-1.22,1.83-1.8,2.72-1.06,1.59-1.06,1.25,0,2.85l1.59,2.42s0,.06,0,.2c-1.1-.17-2.2-.27-3.25-.53A22.41,22.41,0,0,1,10.18,38a36.88,36.88,0,0,1-.79-5,.56.56,0,0,1,.29-.63c1.15-.75,2.29-1.51,3.42-2.29a.52.52,0,0,1,.68,0c1.12.78,2.28,1.52,3.41,2.31a.88.88,0,0,1,.34.59A14.61,14.61,0,0,0,24.31,44.5,14.4,14.4,0,0,0,30.68,46.73Z"/><path id="Path_60821" data-name="Path 60821" class="cls-2" d="M46.75,33.63l3.31,2.2c.79.53.85.53,1.63,0l3-2,.2-.07c-.1.77-.14,1.5-.28,2.21A22.56,22.56,0,0,1,40.16,53.46a20.84,20.84,0,0,1-7.23,1.45.72.72,0,0,1-.53-.26c-.79-1.14-1.54-2.31-2.33-3.45a.5.5,0,0,1,0-.67c.76-1.13,1.51-2.25,2.25-3.38a.74.74,0,0,1,.64-.37A14.75,14.75,0,0,0,46.75,33.63Z"/></g><path id="Path_60826" data-name="Path 60826" class="cls-2" d="M13.39,29.62,7.48,33.53H19.81Z"/><path id="Path_60827" data-name="Path 60827" class="cls-2" d="M34.41,13.39l-3.75,6.07V7.61Z"/><path id="Path_60828" data-name="Path 60828" class="cls-2" d="M50.91,34.38l6.19-4.1H43.93Z"/><path id="Path_60829" data-name="Path 60829" class="cls-2" d="M29.46,50.62,34,44.75v13Z"/></svg>