<svg id="Layer_1" data-name="Layer 1" xmlns="http://www.w3.org/2000/svg" width="64" height="64" viewBox="0 0 64 64"><defs><style>.cls-1{fill:#94c65a;}.cls-2{fill:#fff;}</style></defs><path id="Path_60845" data-name="Path 60845" class="cls-1" d="M11.29,0H52.71A11.3,11.3,0,0,1,64,11.29V52.71A11.3,11.3,0,0,1,52.71,64H11.29A11.3,11.3,0,0,1,0,52.71V11.29A11.3,11.3,0,0,1,11.29,0Z"/><g id="Group_12939" data-name="Group 12939"><path id="Path_60547" data-name="Path 60547" class="cls-2" d="M43.54,54.48a1.4,1.4,0,0,1-.72,1.35,1.31,1.31,0,0,1-1.41-.06C38.71,54,36,52.35,33.35,50.56a1.64,1.64,0,0,0-2.16,0c-2.39,1.61-4.86,3.11-7.3,4.66a5.17,5.17,0,0,0-.53.39,1.39,1.39,0,0,1-2.27-1.51q1.13-3.19,2.26-6.4l7.48-21c.3-.84.74-1.21,1.44-1.22s1.15.38,1.44,1.21q4.83,13.58,9.65,27.16C43.45,54.07,43.5,54.34,43.54,54.48Zm-6.88-9c-1.42-1.14-2.78-2.21-4.12-3.3-.25-.2-.41-.11-.61.06l-3.74,3a3.84,3.84,0,0,0-.27.29c1.41.89,2.77,1.75,4.15,2.6a.41.41,0,0,0,.39,0ZM32.33,31.14h-.14c-.8,2.26-1.6,4.52-2.38,6.79a.51.51,0,0,0,.16.44c.66.57,1.33,1.1,2,1.62a.57.57,0,0,0,.54,0c.68-.5,1.32-1.05,2-1.57a.44.44,0,0,0,.17-.6h0c-.24-.63-.45-1.28-.68-1.92-.56-1.59-1.13-3.18-1.69-4.76Zm-7.94,22,.13.08L31,49.11l-4.22-2.67Zm9.17-4L40,53.19l.09-.12-2.35-6.63ZM27.73,43.7l.11.06,3.32-2.66-2-1.56Zm9,.06.09-.09-1.47-4.13-2,1.57Z"/><path id="Path_60548" data-name="Path 60548" class="cls-2" d="M49.48,22a17.1,17.1,0,0,1-4.66,11.56,1.41,1.41,0,0,1-2,.3l-.09-.07a1.41,1.41,0,0,1-.11-2l.11-.11a14.24,14.24,0,0,0,3.86-11.13A14,14,0,0,0,42.92,12a2.69,2.69,0,0,1-.57-.91A1.32,1.32,0,0,1,43,9.58a1.37,1.37,0,0,1,1.67.29,16.23,16.23,0,0,1,2.9,4.07A17.53,17.53,0,0,1,49.48,22Z"/><path id="Path_60549" data-name="Path 60549" class="cls-2" d="M15.06,21.6A17.07,17.07,0,0,1,19.75,10a1.38,1.38,0,0,1,1.69-.42A1.3,1.3,0,0,1,22.21,11a1.75,1.75,0,0,1-.42.81,14.25,14.25,0,0,0-3.88,10.91A14,14,0,0,0,21.26,31c.19.23.4.44.59.66a1.43,1.43,0,0,1,0,2l0,0a1.38,1.38,0,0,1-1.95-.09l-.07-.07a16.86,16.86,0,0,1-3-4.39A17.59,17.59,0,0,1,15.06,21.6Z"/><path id="Path_60550" data-name="Path 60550" class="cls-2" d="M44.62,21.74a12.59,12.59,0,0,1-3.1,8.05,2.5,2.5,0,0,1-1,.66,1.27,1.27,0,0,1-1.41-.64,1.39,1.39,0,0,1,.2-1.68,9.58,9.58,0,0,0,.17-12.58,2.57,2.57,0,0,1-.52-.94,1.3,1.3,0,0,1,.75-1.45,1.43,1.43,0,0,1,1.7.39,11.78,11.78,0,0,1,2.77,5.27C44.38,19.77,44.47,20.76,44.62,21.74Z"/><path id="Path_60551" data-name="Path 60551" class="cls-2" d="M20,21.7a12.14,12.14,0,0,1,3.08-8.07,1.41,1.41,0,0,1,2-.36l.11.08a1.4,1.4,0,0,1,.11,2l-.1.1a9.47,9.47,0,0,0,0,12.57,1.41,1.41,0,0,1,.1,2l-.1.09a1.4,1.4,0,0,1-2-.11.76.76,0,0,1-.11-.14A12.23,12.23,0,0,1,20,21.7Z"/><path id="Path_60552" data-name="Path 60552" class="cls-2" d="M39.7,22.59a7.09,7.09,0,0,1-1.47,3.63,1.45,1.45,0,0,1-2,.56l-.15-.1a1.43,1.43,0,0,1-.24-2l.08-.09a4.64,4.64,0,0,0,0-5.65,1.44,1.44,0,0,1,.07-2,.27.27,0,0,1,.08-.07,1.46,1.46,0,0,1,2,.34l.06.1A8.15,8.15,0,0,1,39.7,22.59Z"/><path id="Path_60553" data-name="Path 60553" class="cls-2" d="M24.82,21.65a7.32,7.32,0,0,1,1.53-4.43,1.42,1.42,0,0,1,2-.46l.11.07a1.41,1.41,0,0,1,.24,2l-.05.07a4.63,4.63,0,0,0,0,5.72,1.44,1.44,0,0,1-.12,2l-.1.08a1.43,1.43,0,0,1-2-.36.21.21,0,0,0,0-.06A7.63,7.63,0,0,1,24.82,21.65Z"/><path id="Path_60554" data-name="Path 60554" class="cls-2" d="M32.31,20a1.74,1.74,0,1,1-1.78,1.72A1.75,1.75,0,0,1,32.31,20Z"/></g></svg>