<svg id="Layer_1" data-name="Layer 1" xmlns="http://www.w3.org/2000/svg" width="64" height="64" viewBox="0 0 64 64"><defs><style>.cls-1{fill:#94c65a;}.cls-2{fill:#fff;}</style></defs><rect id="Rectangle_2259" data-name="Rectangle 2259" class="cls-1" width="63.78" height="63.78" rx="11.26"/><path id="Path_60620" data-name="Path 60620" class="cls-2" d="M50.5,27.6a5.7,5.7,0,0,0-5.37-3.37A5.87,5.87,0,0,0,39.51,29a5.81,5.81,0,0,0,3.27,6.28c.52.25.57.47.38,1A8.94,8.94,0,0,1,40,40.34a4.75,4.75,0,0,0-2,3.3c0,.53-.22,1.59-.22,1.59v7.69H34V21.83a1.31,1.31,0,0,1,.91-1.43,5.79,5.79,0,0,0,2.73-7.72l-.08-.16A5.83,5.83,0,0,0,26.6,14.41a5.72,5.72,0,0,0,3.3,6A1.36,1.36,0,0,1,30.79,22q0,12.23,0,24.44h0v1.8c0,1.57,0,3.15.07,4.73h-4c0-2.55,0-5.09,0-7.64a9.27,9.27,0,0,0-.17-1.82,6.5,6.5,0,0,0-2.66-3.73,7.6,7.6,0,0,1-2.75-4.17l.82-.45A5.83,5.83,0,0,0,19,24.23a5.83,5.83,0,0,0-1.62,11.34,1.57,1.57,0,0,1,.85.9,9.1,9.1,0,0,0,2.95,5c3.06,2.44,2.5,2.8,2.55,6.2l-.62,7.07a7.37,7.37,0,0,0-1.69,1.79c-1.39,2.1-.84,4.47-.91,6.77H44.57c0-1.08,0-2.09,0-3.1a7.94,7.94,0,0,0-.13-1.75h0a6.11,6.11,0,0,0-3.36-4.29v-.47l0-6.83c0-.54,0-1.08,0-1.61a3.08,3.08,0,0,1,1.31-2.69,11.16,11.16,0,0,0,4.24-6.27,1.66,1.66,0,0,1,.66-.73,17.93,17.93,0,0,0,2.51-1.92A5.34,5.34,0,0,0,50.5,27.6ZM29.8,15.15a2.57,2.57,0,0,1,2.6-2.54h0A2.66,2.66,0,0,1,35,15.13a2.63,2.63,0,0,1-2.63,2.63h0a2.57,2.57,0,0,1-2.53-2.59v0ZM19.29,32.65A2.6,2.6,0,1,1,21.83,30h0a2.62,2.62,0,0,1-2.54,2.62Zm25.94,0A2.63,2.63,0,0,1,42.69,30a2.56,2.56,0,1,1,5.11,0,2.57,2.57,0,0,1-2.54,2.58Z"/></svg>