<svg id="Layer_1" data-name="Layer 1" xmlns="http://www.w3.org/2000/svg" width="64" height="64" viewBox="0 0 64 64"><defs><style>.cls-1{fill:#94c65a;}</style></defs><g id="Group_13018" data-name="Group 13018"><path id="Path_60584" data-name="Path 60584" class="cls-1" d="M0,31.89C0,26,0,20.17.06,14.31A13.73,13.73,0,0,1,12.88.18C14.06.07,15.25,0,16.44,0h32A16.15,16.15,0,0,1,57,2.07a13.2,13.2,0,0,1,6.48,9.68A28.05,28.05,0,0,1,63.76,16q0,16.17,0,32.33a15.79,15.79,0,0,1-2.52,9.33,13.7,13.7,0,0,1-10.68,5.93c-1.23.1-2.48.13-3.71.13q-15.72,0-31.44,0a16.36,16.36,0,0,1-8.26-1.85A13.49,13.49,0,0,1,.17,51,34,34,0,0,1,0,47.47C0,42.28,0,37.1,0,31.9Zm23.49,1.23c-.05-.78-.07-1.4-.13-2A7.23,7.23,0,0,0,16.6,24a7.26,7.26,0,0,0-8.45,5.84,6.17,6.17,0,0,0-.09.62,17.34,17.34,0,0,0,0,4.88,7,7,0,0,0,7,6.45,7.15,7.15,0,0,0,8.13-6,27.07,27.07,0,0,0,.33-2.72Zm14.45-4a5,5,0,0,0-3.18-4.68,8.91,8.91,0,0,0-6.41.08,4.59,4.59,0,0,0-3,4.15,4.37,4.37,0,0,0,2.49,4.54,30.79,30.79,0,0,0,3.46,1.32,18.28,18.28,0,0,1,1.74.66,1.55,1.55,0,0,1,.88,1.67,1.69,1.69,0,0,1-1.29,1.48,2.48,2.48,0,0,1-3.14-1.54.24.24,0,0,1,0-.08c-.13-.37-.21-.75-.33-1.2l-4.38.32c.06.42.07.72.14,1a5.4,5.4,0,0,0,2.92,4.25,9.29,9.29,0,0,0,7.4.07A5.32,5.32,0,0,0,38.46,36a4.85,4.85,0,0,0-3.15-4.85A23.64,23.64,0,0,0,33,30.35c-.82-.26-1.66-.45-2.5-.73a1.08,1.08,0,0,1-.83-1.17,1.26,1.26,0,0,1,1.09-1.16A2.12,2.12,0,0,1,33.4,28.7a1.21,1.21,0,0,1,.05.18q.07.27.18.57ZM50.52,34.5c-.22.65-.37,1.21-.6,1.72a2.68,2.68,0,0,1-5-.31,11.12,11.12,0,0,1,0-5.67,3.6,3.6,0,0,1,.5-1.07A2.57,2.57,0,0,1,47.94,28,2.53,2.53,0,0,1,50,29.63c.11.24.19.5.3.77l2.07-.52,2-.52a6.35,6.35,0,0,0-5.85-5.31,7.1,7.1,0,0,0-8.34,5.58c0,.25-.08.5-.11.75A16.19,16.19,0,0,0,40,34.61c.5,4.34,2.88,7.4,8,7.25a6.48,6.48,0,0,0,6.48-6Z"/><path id="Path_60585" data-name="Path 60585" class="cls-1" d="M18.91,32.88a29.35,29.35,0,0,1-.49,2.93,2.65,2.65,0,0,1-2.63,2A2.7,2.7,0,0,1,13,36a9.24,9.24,0,0,1,0-6A2.7,2.7,0,0,1,15.64,28a2.75,2.75,0,0,1,2.76,2A23.15,23.15,0,0,1,18.91,32.88Z"/></g></svg>