<svg id="Layer_1" data-name="Layer 1" xmlns="http://www.w3.org/2000/svg" width="64" height="64" viewBox="0 0 64 64"><defs><style>.cls-1{fill:#94c65a;}.cls-2{fill:#fff;}</style></defs><g id="Group_13133" data-name="Group 13133"><rect id="Rectangle_2261-6" data-name="Rectangle 2261-6" class="cls-1" width="64" height="64" rx="11.29"/><g id="Group_13127" data-name="Group 13127"><path id="Path_60521" data-name="Path 60521" class="cls-2" d="M30.52,22.18V15.63a1.89,1.89,0,0,0-1.62-2.11,2,2,0,0,0-.49,0H15.28a1.89,1.89,0,0,0-2.11,1.63,1.61,1.61,0,0,0,0,.49V28.73a1.87,1.87,0,0,0,1.61,2.11,1.4,1.4,0,0,0,.5,0H28.38a1.87,1.87,0,0,0,2.13-1.58,1.63,1.63,0,0,0,0-.54Q30.53,25.47,30.52,22.18ZM21.84,34.59H15.26a1.89,1.89,0,0,0-2.08,1.67,2.06,2.06,0,0,0,0,.43V49.78a1.91,1.91,0,0,0,1.64,2.14,2,2,0,0,0,.49,0H28.41a1.88,1.88,0,0,0,2.12-1.62,2,2,0,0,0,0-.49V36.68a1.87,1.87,0,0,0-1.61-2.09,1.93,1.93,0,0,0-.48,0h-6.6Zm21.24,0H36.49a1.87,1.87,0,0,0-2.07,2.09V49.81a1.89,1.89,0,0,0,1.63,2.11,2,2,0,0,0,.49,0H49.63a1.91,1.91,0,0,0,2.13-1.66,1.93,1.93,0,0,0,0-.48V36.73a1.89,1.89,0,0,0-1.61-2.14,2.18,2.18,0,0,0-.51,0H43.08Zm-.26-2a1.87,1.87,0,0,0,1.37-.6l1.55-1.55,6.15-6.15a1.81,1.81,0,0,0,.24-2.55L52,21.61,44.1,13.72a1.8,1.8,0,0,0-2.53-.06l-.07.08q-3.95,3.92-7.86,7.85a1.8,1.8,0,0,0-.07,2.54l.06.07q3.93,3.94,7.89,7.89a1.76,1.76,0,0,0,1.31.53Z"/></g></g></svg>