<svg id="Layer_1" data-name="Layer 1" xmlns="http://www.w3.org/2000/svg" width="64" height="64" viewBox="0 0 64 64"><defs><style>.cls-1{fill:#94c65a;}.cls-2{fill:#fff;}</style></defs><g id="Group_13202" data-name="Group 13202"><rect id="Rectangle_2261" data-name="Rectangle 2261" class="cls-1" width="64.06" height="64.06" rx="11.3"/></g><path id="Path_60822" data-name="Path 60822" class="cls-2" d="M37,52H31.11V24.63a.62.62,0,0,1,.16-.45L33.06,22l5.26-6.3a.58.58,0,0,1,.49-.23h6a.78.78,0,0,0,.8-.74v0a.77.77,0,0,0-.79-.76h-1.9V10.23a.74.74,0,0,0-.44-.72.77.77,0,0,0-1,.34.88.88,0,0,0-.08.39V14H38.92V10.28a1.05,1.05,0,0,0-.19-.57.71.71,0,0,0-.84-.23.79.79,0,0,0-.51.76V14H23.13V10.24a.78.78,0,0,0-.74-.8.84.84,0,0,0-.27,0,.79.79,0,0,0-.53.81V14H19.16v-3.7a.78.78,0,0,0-.32-.69.73.73,0,0,0-.79-.06.74.74,0,0,0-.43.72V14H15.89a.75.75,0,0,0-.72.52.77.77,0,0,0,.47,1,.65.65,0,0,0,.31,0h6.18a.33.33,0,0,1,.3.14l.94,1.14,1.18,1.43,4.89,6a.61.61,0,0,1,.15.41V52.06H13.93a.76.76,0,0,0-.71.82.65.65,0,0,0,0,.19.77.77,0,0,0,.82.53H48.29a.77.77,0,0,0,.73-.8s0-.07,0-.11a.79.79,0,0,0-.87-.64H38.56"/></svg>