<svg id="Layer_1" data-name="Layer 1" xmlns="http://www.w3.org/2000/svg" width="64" height="64" viewBox="0 0 64 64"><defs><style>.cls-1{fill:#94c65a;}.cls-2,.cls-4{fill:#fff;}.cls-3,.cls-4{isolation:isolate;}.cls-4{font-size:15.06px;font-family:MyriadPro-Bold, Myriad Pro;font-weight:700;}</style></defs><g id="Group_13214" data-name="Group 13214"><path id="Path_60814" data-name="Path 60814" class="cls-1" d="M11.29,0H52.71A11.3,11.3,0,0,1,64,11.29V52.71A11.3,11.3,0,0,1,52.71,64H11.29A11.3,11.3,0,0,1,0,52.71V11.29A11.3,11.3,0,0,1,11.29,0Z"/><path id="Path_60788" data-name="Path 60788" class="cls-2" d="M44.14,52.24l4.77-4.77H45.75c0-1.64,0-13.41,0-15a13.13,13.13,0,0,0-2.92-8.25h4.66v3.16l4.77-4.78-4.77-4.77V21H39.09A13.14,13.14,0,0,0,22.64,23.8V17.65h3.15L21,12.87l-4.76,4.77h3.16c0,1.64,0,13.22,0,14.82a13.13,13.13,0,0,0,3,8.32c-1.86.06-3.83.11-4.74.11V37.74l-4.77,4.78,4.77,4.76V44.13h8.82a13.17,13.17,0,0,0,16.08-3v6.32H39.35ZM32.59,42.37a9.91,9.91,0,1,1,9.91-9.91h0A9.93,9.93,0,0,1,32.59,42.37Z"/><g id="_2" data-name=" 2" class="cls-3"><text class="cls-4" transform="translate(28.87 37.04)">2</text></g></g></svg>