<svg id="Layer_1" data-name="Layer 1" xmlns="http://www.w3.org/2000/svg" width="64" height="64" viewBox="0 0 64 64"><defs><style>.cls-1{fill:#1a7ddd;}.cls-2{fill:#fff;}</style></defs><g id="Group_13204" data-name="Group 13204"><rect id="Rectangle_2261-2" data-name="Rectangle 2261-2" class="cls-1" width="64" height="64" rx="11.29"/></g><g id="Group_13205" data-name="Group 13205"><path id="Path_60595" data-name="Path 60595" class="cls-2" d="M19.07,40.26V34.18H10.16c-.35,0-.48-.09-.48-.48,0-1.78,0-3.57,0-5.35,0-.12,0-.24,0-.41h9.35V21.78L28.28,31Z"/><path id="Path_60596" data-name="Path 60596" class="cls-2" d="M46.48,21.85v6h9.33v6.26H46.5v6.05L37.31,31Z"/><path id="Path_60597" data-name="Path 60597" class="cls-2" d="M28.73,16.75h-6.1l9.2-9.23,9.24,9.23H35V26.1H28.73Z"/><path id="Path_60598" data-name="Path 60598" class="cls-2" d="M35,37.48v3.44c0,1.8,0,3.6,0,5.4,0,.38.1.51.5.5,1.7,0,3.41,0,5.12,0H41L31.79,56l-9.15-9.15h6.05V37.48Z"/></g></svg>