<svg id="Layer_1" data-name="Layer 1" xmlns="http://www.w3.org/2000/svg" width="64" height="64" viewBox="0 0 64 64"><defs><style>.cls-1{fill:#1a7ddd;}</style></defs><g id="Group_13110" data-name="Group 13110"><path id="Path_60592" data-name="Path 60592" class="cls-1" d="M12.42,37.32V19.76A8.85,8.85,0,0,1,21,10.68H55a8.74,8.74,0,0,1,8.85,7.66A45.82,45.82,0,0,1,64,24.08V55.14A8.77,8.77,0,0,1,55.22,64H55.1q-17,0-34,0a8.69,8.69,0,0,1-8.63-8.24c-.15-4.38-.06-8.77-.07-13.16C12.42,40.82,12.43,39.07,12.42,37.32Zm21.73,4.27-.63-.66Q30.79,38,28.05,35a2.6,2.6,0,0,0-3.66-.45l-.18.15A2.58,2.58,0,0,0,24,38.34a1.8,1.8,0,0,0,.19.2q3.95,4.24,7.9,8.45a2.49,2.49,0,0,0,3.48.38,3.45,3.45,0,0,0,.28-.26q8.25-7.94,16.47-15.88a2.71,2.71,0,0,0,.26-3.75,2.65,2.65,0,0,0-3.74,0l-.06.07c-.78.72-1.52,1.46-2.28,2.19Z"/><path id="Path_60593" data-name="Path 60593" class="cls-1" d="M51.28,7.15H41.22q-9.87,0-19.74,0a12.32,12.32,0,0,0-12.59,12v.46c0,9.88,0,19.76,0,29.64v4a7.08,7.08,0,0,1-3.28-.58A8.81,8.81,0,0,1,0,44.39V8.84A8.84,8.84,0,0,1,8.69,0H42.83a8.83,8.83,0,0,1,8.43,6.68C51.27,6.84,51.28,7,51.28,7.15Z"/></g></svg>