<svg id="Layer_1" data-name="Layer 1" xmlns="http://www.w3.org/2000/svg" width="64" height="64" viewBox="0 0 64 64"><defs><style>.cls-1{fill:#1a7ddd;}.cls-2{fill:#fff;}</style></defs><g id="Group_13202" data-name="Group 13202"><rect id="Rectangle_2261" data-name="Rectangle 2261" class="cls-1" y="-0.11" width="64.37" height="64.37" rx="11.36"/></g><path id="Path_60822" data-name="Path 60822" class="cls-2" d="M37.16,52.17h-5.9V24.64a.62.62,0,0,1,.16-.45c.61-.71,1.21-1.43,1.81-2.15l5.28-6.33a.56.56,0,0,1,.49-.23h6a.77.77,0,0,0,.8-.75v0a.77.77,0,0,0-.79-.76H43.1V10.17a.72.72,0,0,0-.44-.72.77.77,0,0,0-1.11.73v3.74H39.11v-3.7a1,1,0,0,0-.18-.57.72.72,0,0,0-.85-.23.78.78,0,0,0-.51.76v3.76H23.24V10.18a.76.76,0,0,0-.74-.8.84.84,0,0,0-.27,0,.8.8,0,0,0-.54.81v3.71H19.26V10.22a.77.77,0,0,0-.33-.69.73.73,0,0,0-.79-.07.77.77,0,0,0-.43.73V14H16a.75.75,0,0,0-.73.52.78.78,0,0,0,.48,1,.8.8,0,0,0,.31,0h6.21a.33.33,0,0,1,.3.14l.95,1.14,1.18,1.44,4.91,6a.62.62,0,0,1,.16.41v27.6H14a.77.77,0,0,0-.71.82,1.29,1.29,0,0,0,0,.19.77.77,0,0,0,.83.53H48.53a.76.76,0,0,0,.73-.8.41.41,0,0,0,0-.11.79.79,0,0,0-.87-.64H38.75"/></svg>