<svg id="Layer_1" data-name="Layer 1" xmlns="http://www.w3.org/2000/svg" width="64" height="64" viewBox="0 0 64 64"><defs><style>.cls-1{fill:#1a7ddd;}.cls-2,.cls-4{fill:#fff;}.cls-3,.cls-4{isolation:isolate;}.cls-4{font-size:15.06px;font-family:MyriadPro-Bold, Myriad Pro;font-weight:700;}</style></defs><g id="Group_13214" data-name="Group 13214"><path id="Path_60814" data-name="Path 60814" class="cls-1" d="M11.29-.06H52.71A11.3,11.3,0,0,1,64,11.24V52.65A11.29,11.29,0,0,1,52.71,63.94H11.29A11.29,11.29,0,0,1,0,52.65V11.24A11.3,11.3,0,0,1,11.29-.06Z"/><path id="Path_60788" data-name="Path 60788" class="cls-2" d="M44.14,52.19l4.77-4.77H45.75c0-1.64,0-13.41,0-15a13.11,13.11,0,0,0-2.92-8.25h4.66v3.15l4.77-4.78-4.77-4.76v3.15H39.09a13.14,13.14,0,0,0-16.45,2.83V17.59h3.15L21,12.82l-4.76,4.77h3.16c0,1.64,0,13.21,0,14.81a13.16,13.16,0,0,0,3,8.33c-1.86.05-3.83.11-4.74.11V37.68l-4.77,4.78,4.77,4.76V44.07h8.82a13.14,13.14,0,0,0,16.08-3v6.32H39.35ZM32.59,42.31a9.9,9.9,0,1,1,9.91-9.9h0A9.91,9.91,0,0,1,32.59,42.31Z"/><g id="_2" data-name=" 2" class="cls-3"><text class="cls-4" transform="translate(28.87 36.98)">2</text></g></g></svg>